<?xml version="1.0" encoding="utf-8"?>
<!-- Generator: Adobe Illustrator 23.0.2, SVG Export Plug-In . SVG Version: 6.00 Build 0)  -->
<svg version="1.1" id="Layer_1" xmlns="http://www.w3.org/2000/svg" xmlns:xlink="http://www.w3.org/1999/xlink" x="0px" y="0px"
	 viewBox="0 0 595.28 841.89" style="enable-background:new 0 0 595.28 841.89;" xml:space="preserve">
<style type="text/css">
	.st0{fill:none;stroke:#000000;stroke-width:0.75;stroke-miterlimit:10;}
</style>
<g>
	<path class="st0" d="M423.06,284.31c0,3.33-1.14,7.3,0.28,9.82c1.88,3.33,5.95,0.2,9.08,0.37c11.23,0.58,22.21,1.9,32.48,6.93
		c17.92,8.78,19.69,16.51,17.95,34.72c-1.17,12.19-4.8,23.84-11.77,34.15c-1.86,2.75-1.05,3.96,1.66,5.25
		c9.91,4.72,18.44,11.37,25.5,19.7c14.29,16.85,13.72,37.18-0.97,53.97c-6.09,6.97-13.56,11.94-21.98,15.21
		c-5.08,1.97-4.65,3.94-2.43,7.9c7.28,13.03,11.23,26.93,10.55,42.08c-0.46,10.29-4.94,17.71-13.76,22.76
		c-13.09,7.5-27.01,11.15-42.14,9.2c-3.47-0.45-4.31,0.77-3.81,4.22c2.38,16.47-1.72,31.4-11.35,44.86
		c-9.09,12.7-21.99,13.81-35.82,11.26c-9.9-1.83-19.33-5.25-27.73-10.89c-3.39-2.28-4.79-1.95-6.51,1.85
		c-7.01,15.46-19.77,24.79-34.83,31.33c-16.34,7.09-31.2-1.37-39.88-11.32c-5.73-6.57-9.94-14.19-13.7-22.01
		c-1.43-2.97-2.35-3.17-4.91-1.03c-9.81,8.16-21.56,11.9-33.96,13.27c-17.41,1.92-28.92-7.21-36.56-21.71
		c-5.64-10.7-9.08-22.25-8.46-34.56c0.23-4.61-1.51-5.9-5.8-5.45c-12.3,1.29-23.79-1.43-34.66-7.24
		c-14.22-7.6-18.86-15.93-17.36-32.13c1.21-13.1,4.57-25.58,11.85-36.72c1.92-2.93,1.63-4.44-1.64-6.09
		c-12.03-6.06-21.55-14.92-28.7-26.38c-9.08-14.55-7.1-33.45,4.83-46.04c6.49-6.85,13.8-12.65,22.3-16.63
		c4.38-2.05,4.14-3.91,1.88-7.41c-7.06-10.93-9.69-23.34-10.77-36.04c-0.9-10.47,2.83-19.05,11.61-25.55
		c12.61-9.34,26.83-12.95,42.16-13.17c6.64-0.1,6.47,0.06,6.23-6.23c-0.49-12.97,0.42-25.52,8.78-36.55
		c8.93-11.78,20.95-15.55,34.83-14.05c11.63,1.25,22.97,4.14,32.99,10.63c2.68,1.74,3.85,1.2,5.22-1.58
		c5.77-11.73,14.01-21.16,25.12-28.43c15.85-10.36,27.12-8.52,41.74,0.75c9.38,5.95,15.83,14.61,20.69,24.53
		c2.89,5.91,2.92,5.67,8.47,2.71c14.16-7.53,29.27-10.94,45.31-9.75c7,0.52,12.79,3.54,16.83,9.41
		C420.24,256.3,423.98,269.7,423.06,284.31z M383.33,496.92c11.28,0.1,15-5.41,10.42-15.45c-3.71-8.14-3.71-8.14,5.5-8.56
		c9.48-0.43,13.82-8.07,9.34-16.45c-1.51-2.83-3.64-5.16-5.87-7.42c-1.98-2-1.64-3.48,1.04-4.37c2.21-0.73,4.5-1.28,6.65-2.15
		c8.56-3.49,9.72-10.15,2.92-16.58c-1.09-1.02-2.31-1.91-3.53-2.78c-4.78-3.44-4.77-3.53,0.19-6.52c3.72-2.24,7.63-4.35,8.62-9.14
		c1.45-7-1.78-11.03-10.47-13.6c-1.86-0.55-4.83,0.08-5.39-1.76c-0.75-2.44,2.48-3.04,3.92-4.47c3.61-3.58,6.57-7.36,4.53-12.76
		c-2.01-5.3-6.38-7.4-11.77-7.77c-0.83-0.06-1.67,0.02-2.5-0.07c-1.75-0.19-4.08,0.97-5.1-0.84c-1.04-1.86,1.16-3.23,2.05-4.73
		c2.49-4.19,3.03-8.57,0.7-12.83c-2.32-4.26-6.68-4.6-10.94-4.39c-2.14,0.1-4.24,0.78-6.36,1.19c-1.52,0.29-3.15,2.3-4.48,0.57
		c-1-1.31,0.82-2.67,1.46-3.95c3.25-6.54,3.14-13.27-0.9-16.74c-4.94-4.24-10.3-2.32-15.51-0.25c-0.31,0.12-0.59,0.33-0.91,0.41
		c-1.89,0.52-3.14,3.62-5.03,2.44c-1.87-1.17,0.18-3.62,0.04-5.55c-0.34-4.7,1.24-10.17-3.87-13.15c-4.92-2.87-9.66-0.47-14.18,1.83
		c-0.15,0.08-0.29,0.19-0.44,0.23c-3.23,0.91-4.8,6.17-7.98,4.89c-2.97-1.21-3.21-5.88-4.77-8.98c-4.22-8.39-10.67-9.42-17.35-2.63
		c-1.65,1.68-2.87,3.67-3.77,5.85c-0.49,1.18-0.62,2.86-2.34,2.81c-1.62-0.05-1.83-1.73-2.5-2.82c-0.43-0.71-0.74-1.49-1.15-2.22
		c-5.46-9.73-14.23-9.93-20.2-0.45c-1.07,1.7-1.82,3.53-2.21,5.53c-0.24,1.22-0.1,2.93-1.85,3.13c-1.32,0.15-1.9-1.17-2.61-2.06
		c-0.63-0.78-1.17-1.63-1.85-2.36c-3.08-3.32-6.57-5.94-11.4-4.33c-4.87,1.62-7.48,5.22-8.27,10.32c-0.45,2.95,1.39,7.03-0.81,8.59
		c-2.85,2.02-5.34-2.14-8.24-3.11c-9.69-3.22-16.44,1.46-15.98,11.55c0.1,2.13,0.44,4.33,1.12,6.35c1.3,3.86,0.21,4.4-3.41,3.24
		c-2.82-0.9-5.87-1.26-8.85-1.49c-4.88-0.38-8.32,2.6-8.86,7.46c-0.55,4.99,0.3,9.62,3.69,13.58c0.72,0.84,1.71,1.85,1.03,3.11
		c-0.69,1.29-2.05,0.76-3.16,0.77c-2.66,0.02-5.35-0.24-7.98,0.03c-7.16,0.75-10.3,6.3-7.56,12.96c1.29,3.13,3.22,5.86,5.42,8.35
		c2.72,3.09,1.53,4.22-1.9,4.66c-1.32,0.17-2.64,0.42-3.91,0.77c-10.56,2.94-12.67,10.25-5.33,18.51c0.88,0.99,2.01,1.74,2.97,2.66
		c1.77,1.72,5.68,1.43,5.8,4.08c0.14,3.03-3.82,3.11-5.8,4.74c-7.87,6.5-6.49,16.48,2.82,20.87c2.62,1.24,7.09-0.25,7.74,3.13
		c0.61,3.21-3.46,4.91-5.43,7.3c-5.19,6.29-3.23,14.1,4.36,16.98c2.69,1.02,5.47,1.32,8.35,0.85c1.1-0.18,2.47-0.44,3.17,0.79
		c0.71,1.26-0.37,2.2-1.02,3.11c-1.35,1.91-2.7,3.79-3.45,6.05c-2.47,7.43,0.72,12.78,8.34,14.27c3.46,0.68,6.58-0.43,9.8-1.2
		c1.23-0.29,2.6-1.33,3.73-0.13c0.99,1.05-0.1,2.21-0.46,3.23c-1.2,3.38-1.28,6.88-1.15,10.37c0.24,6.45,5.42,10.37,11.68,8.71
		c3.04-0.8,5.98-2.08,8.84-3.4c4.7-2.16,4.74-2.17,4.6,3.23c-0.06,2.32-0.2,4.71,0.21,6.97c1.61,9.04,9.54,11.85,16.71,6.02
		c1.16-0.95,2.26-1.97,3.33-3.02c4.85-4.78,4.84-4.79,6.7,1.62c2.01,6.96,5.71,10.79,10.67,11.06c5.52,0.3,11.31-3.72,13.95-9.57
		c0.58-1.29,0.54-3.37,2.42-3.4c1.92-0.03,1.74,2.13,2.44,3.35c2.43,4.23,4.72,8.75,10.6,8.53c5.53-0.21,7.7-4.52,10.06-8.63
		c1.48-2.58-0.05-7.24,2.94-7.88c3.02-0.65,4.58,3.76,7.07,5.63c7.2,5.42,14,3.37,16.73-5.21c0.4-1.26,0.36-2.71,0.93-3.87
		c1.21-2.5-1.67-6.19,0.88-7.4c2.4-1.14,3.93,2.82,6.39,3.84c4.62,1.91,9.08,2.4,13.31-0.6c3.88-2.75,3.39-6.95,3-10.95
		c-0.21-2.15-0.71-4.27-1.2-6.38c-0.76-3.26,0.54-4.01,3.45-2.99C378.32,496.95,380.84,496.84,383.33,496.92z M184.9,420.27
		c-8.8-6.62-9.58-7.75-11.24-18.29c-0.43-2.72-1.79-2.69-3.83-2.3c-18.62,3.62-31.02-5.36-40.16-20.3
		c-2.05-3.35-3.57-3.15-6.13-1.05c-6.33,5.21-12.46,10.72-16.65,17.77c-5.64,9.49-11.03,19.27-6.17,30.97
		c5.49,13.21,14.94,23.51,24.65,33.62c1.75,1.82,2.97,1.61,4.1-0.68c2.39-4.83,6.13-8.7,9.59-12.73
		c4.93-5.73,10.83-9.69,18.78-10.04c4.88-0.21,9.6,0.46,14.34,1.3c1.29,0.23,3.72,1.18,3.25-1.32
		C173.88,428.99,178.98,424.63,184.9,420.27z M299.53,533.61c-5.15,7.62-11.1,12.05-20.04,10.43c-2.12-0.38-2.19,0.91-1.94,2.39
		c2.91,17.64-4.06,30.48-19.18,39.28c-2.72,1.59-2.76,3.21-1.03,5.61c5.69,7.88,12.01,15.15,20,20.8
		c8.93,6.32,18.71,8.95,29.29,5.21c12.09-4.27,21.55-12.36,29.89-21.91c2.47-2.83,2.72-4.48-1.16-6.59
		c-11.15-6.07-17.11-15.86-19-28.34c-0.74-4.91,0.38-9.6,0.89-14.38c0.17-1.63,1.05-3.8-1.9-3.22
		C307.62,544.45,303.01,540.53,299.53,533.61z M420.6,398.34c2.8,9.42-0.08,15.75-7.96,19.93c-2.64,1.4-0.24,2.34,0.62,3.22
		c3.29,3.37,6.78,6.76,6.94,11.76c0.14,4.19,1.66,4.57,5.29,3.58c9.39-2.55,18.09-0.71,26.09,4.87
		c6.29,4.39,11.13,10.02,14.71,16.72c1.41,2.64,2.56,3.38,5.27,1.34c10.01-7.52,18.44-16.19,23.36-28.03
		c3.78-9.12,3.57-17.63-1.32-26.31c-5.49-9.75-12.57-17.93-21.51-24.64c-3.13-2.35-4.74-2.9-7.2,1.17
		c-5.35,8.87-12.41,16.09-23.09,18.57C434.89,402.12,428.24,400.94,420.6,398.34z M252.98,538.63c-7.58-3.54-9.7-6.69-10.31-14.83
		c-0.44-5.81-0.46-5.87-6.07-3.57c-4.84,1.98-9.87,3.18-14.25-0.3c-3.86-3.06-4.12-0.91-5.12,2.19
		c-3.58,11.13-10.72,18.73-22.57,20.91c-5.55,1.02-11.22,1.5-16.85,2c-2.56,0.23-3.62,0.91-2.95,3.7
		c2.99,12.42,7.47,24.14,15.01,34.61c6.62,9.19,15.18,13.82,26.75,13.72c10.1-0.09,19.33-2.91,28.57-6.39
		c3.8-1.43,4.36-3.18,2.33-6.64c-3.28-5.6-6.46-11.3-6.75-18.06C240.29,554.99,245.34,546.46,252.98,538.63z M414.97,376.45
		c4.77-4.74,9.24-8.46,14.98-10.21c11.09-3.38,21.81-1.93,31.93,3.27c4.1,2.1,5.71,1.33,7.3-2.8c4.35-11.31,5.57-22.95,4.28-34.87
		c-0.81-7.48-3.22-14.61-9.83-18.91c-11.05-7.2-23.54-10.72-36.48-12.74c-3.3-0.51-4.97,0.6-5.01,4.22
		c-0.04,3.65-0.24,7.36-0.95,10.93c-2.82,14.22-8.24,21.92-20.84,25.24c-2.34,0.62-4.99,0.84-7.13,2.54
		c6.42,6.29,7.38,10.5,3.88,18.18c-1.11,2.43-1.01,3.19,1.8,3.26C406.65,364.76,412.2,368.26,414.97,376.45z M379.74,596.93
		c10.23,0.81,19.97-2.76,26.56-12.41c6.63-9.7,11.27-20.3,12.68-32.2c0.43-3.62-0.74-4.1-3.91-4.24c-19.06-0.85-33.34-8.53-39-28.06
		c-0.61-2.11-1.07-3.14-3.61-1.52c-5.06,3.23-10.62,3.93-16.12,1.02c-2.91-1.54-3.42,0.11-3.92,2.31
		c-1.01,4.41-1.96,8.94-6.13,11.57c-2.76,1.74-1.9,3.01-0.27,5c3.95,4.85,6.54,10.36,7.44,16.65c1.56,10.88-2.17,20.69-6.23,30.36
		c-1.26,3-1.01,4.4,2.11,5.57C358.77,594.51,368.32,597.23,379.74,596.93z M377.63,326.1c0.52-2.77,0.84-4.55,1.19-6.33
		c2.61-13.16,10.64-21.06,23.84-23.6c3.48-0.67,7-0.69,10.46-0.39c4.75,0.41,6.12-1.54,5.83-6.08c-0.57-8.96-3.04-17.39-6.71-25.46
		c-6.04-13.29-16.88-19.13-31.17-19.17c-10.62-0.03-20.73,2.86-30.93,5.3c-3.25,0.78-3.07,2.24-1.4,4.45
		c2.35,3.11,3.61,6.75,4.68,10.43c3.94,13.49,2.61,25.71-8.6,35.57c-1.04,0.92-2.57,1.66-2.41,3.86c6.17,0.06,10.5,2.73,11.74,9.16
		c0.28,1.47,0.5,2.97,0.55,4.46c0.14,3.54,0.92,5.04,5.07,3.34C366.04,319.09,372.23,319.42,377.63,326.1z M413.96,464.13
		c-4.73,9.21-6.08,10.28-16.73,11.92c-3.46,0.53-2.03,2.1-1.24,3.73c2.45,5.06,3.23,10.2,0.22,15.27c-1.16,1.96-0.63,2.46,1.35,2.87
		c5.16,1.07,9.53,3.51,13.48,7.12c9.49,8.66,12.87,19.91,14.16,32.08c0.34,3.21,0.9,5.06,4.75,4.15
		c12.47-2.94,24.06-7.73,34.22-15.65c4.63-3.61,7.68-8.19,8.65-14.11c2.19-13.26-1.33-25.71-5.04-38.19
		c-1.3-4.39-3.03-5.13-6.93-2.45c-7.44,5.12-15.52,8.02-24.9,6.63C426.68,476.13,419.76,471.19,413.96,464.13z M297.97,221.83
		c-5.13-0.33-9.59,1.58-13.72,4.14c-9.24,5.71-17.6,12.51-24.91,20.62c-2.02,2.24-1.62,3.11,0.91,4.25
		c5.79,2.62,11.51,5.58,15.61,10.53c8.15,9.85,9.61,20.91,4.91,32.77c-0.98,2.48-2.04,4.33,2.39,3.71
		c4.78-0.66,8.59,2.17,10.74,6.01c2.76,4.94,4.22,3.74,6.84-0.01c2.77-3.96,6.95-6.52,11.88-6.4c4.19,0.1,4.38-1.53,3.48-4.78
		c-3.56-12.87,1.65-22.71,11-31.01c1.98-1.76,4.15-3.34,6.33-4.86c8.91-6.21,8.93-6.19,1.8-14.02c-0.56-0.62-1.07-1.28-1.63-1.89
		C323.93,230.36,312.45,223.26,297.97,221.83z M202.11,341.91c-0.87-0.52-1.13-0.76-1.44-0.84c-1.44-0.4-2.92-0.69-4.34-1.14
		c-12.12-3.86-20.99-10.48-22.15-24.47c-0.4-4.82-0.2-9.64-0.64-14.44c-0.3-3.28-1.25-4.95-5.36-4.14
		c-14.59,2.85-26.67,9.99-36.99,20.42c-2.39,2.42-3.92,5.45-4.71,8.7c-3.22,13.21-2.75,26.36,0.9,39.46c1,3.57,2.14,3.89,5.37,1.94
		c15-9.06,30.14-7.53,43.24,4c1.25,1.1,2.4,2.3,3.61,3.44c1.41,1.33,2.46,1.58,3.15-0.73c2.04-6.76,7.14-9.28,13.7-9.38
		c2.89-0.04,3.88-0.5,2.56-3.7C196.25,354.33,195.96,347.73,202.11,341.91z M255.17,304.28c-1.5-1.33-2.37-2.08-3.22-2.86
		c-11.53-10.69-13.95-23.44-7.17-37.59c1.15-2.4,1.94-5.01,3.34-7.25c2.22-3.57,0.66-5.08-2.66-6.09
		c-9.95-3.04-20.11-4.72-30.51-4.19c-9.23,0.47-17.4,3.74-22.64,11.75c-5.77,8.8-10.32,18.26-13.1,28.49
		c-1.75,6.42-1.46,6.8,5.1,7.04c16.57,0.59,30.18,10.95,35.17,26.75c0.45,1.42,0.81,3.46,2.87,1.98c5.47-3.93,10.99-2.95,16.6-0.59
		c2.53,1.07,3.44-0.25,3.6-2.43C243.11,311.61,246.9,306.52,255.17,304.28z M182.18,464.8c-1.02,0.96-1.74,1.59-2.41,2.27
		c-11.94,11.9-24.48,14.02-39.5,6.64c-2.39-1.17-4.85-2.26-7.05-3.73c-2.75-1.83-4-1.14-4.99,1.85
		c-3.73,11.24-5.04,22.77-3.66,34.47c1,8.49,4.33,16.1,11.66,21.24c8.16,5.73,17.64,8.46,26.99,11.41c5.39,1.7,5.56,1.56,5.46-4.16
		c-0.21-12.25,3.8-22.46,13.9-29.93c5.07-3.75,11.09-5.02,17.55-6.71c-2.72-3.23-3.63-6.64-3.61-10.41
		c0.03-3.94,1.29-7.39,4.04-10.52C191.8,476.41,185.03,473.72,182.18,464.8z M419.93,538.81c-0.42-8.22-3.23-14.79-7.42-20.65
		c-8.37-11.69-20.11-17.33-34.34-18.32c-2.75-0.19-2.1,1.09-1.95,2.59c0.72,6.98,3.84,13.01,7.62,18.73
		c7.24,10.98,16.91,18.62,30.06,21.23C417.38,543.08,420.49,542.97,419.93,538.81z M177.22,540.83
		c23.33-2.51,34.87-15.51,40.29-37.11c0.62-2.48-0.5-3.45-2.99-2.81c-5.31,1.38-10.8,2.27-15.88,4.23
		c-13.87,5.36-22.93,14.98-25.13,30.21C172.98,538.99,173.56,541.44,177.22,540.83z M445.61,469.78c4.08,0.33,9.55-0.95,14.91-2.86
		c2.18-0.77,3.54-1.87,1.72-4.35c-11.32-15.43-33.27-25.78-53.08-15.51c-2.7,1.4-2.42,2.34-0.94,4.4
		C417.02,463.67,428.95,469.67,445.61,469.78z M268.42,311.28c2.36-4.5,3.75-9.29,4.74-14.15c3.12-15.31,1.08-29.1-12.1-39.52
		c-6.81-5.38-8.62-4.83-10.51,3.55C245.92,281.61,252.63,298,268.42,311.28z M348.07,272.24c0.39-3.87-1.25-8.93-2.8-14.03
		c-1.21-4.02-2.96-4.46-6.39-2.02c-11.04,7.87-23.04,35.9-13.78,53.4c1.41,2.66,2.38,2.69,4.31,0.91
		C340.15,300.57,347.54,288.95,348.07,272.24z M152.29,469.86c14.95,0.64,25.79-6.33,35.04-16.78c2.55-2.88,1.27-3.59-1.46-4.71
		c-5.63-2.31-11.5-3.87-17.47-3.81c-14.45,0.14-26.56,5.45-35.15,17.62c-1.94,2.75-0.75,3.63,1.83,4.5
		C140.81,468.6,146.56,470.19,152.29,469.86z M217.92,337.08c-0.66-2.39-1.17-4.84-2-7.17c-5.33-14.95-15.18-25.48-30.29-30.88
		c-8.2-2.93-8.91-2.68-7.12,5.54c2.12,9.74,4.48,19.8,13.35,25.93c6.56,4.54,14.12,7.35,21.81,9.61
		C216.39,340.91,217.93,340.3,217.92,337.08z M326.27,528.85c-0.97,5.83-2.21,11.29-2.73,16.81c-1.41,15.3,3.12,28.57,14.42,39.24
		c1.87,1.76,3.81,3.63,5.49-0.52C351.65,564.17,345.01,541.82,326.27,528.85z M378.42,341.92c17.17-2.64,36.73-15.94,39.58-36.89
		c0.64-4.72-0.08-5.66-4.88-4.5c-3.74,0.9-7.18,2.54-10.55,4.42C388.19,312.99,379.7,324.9,378.42,341.92z M446.9,371.16
		c-15.49-0.19-27.27,5.38-36.44,16.79c-2.07,2.58-0.51,2.87,1.3,3.68c18.31,8.2,38.4-0.82,50.28-14.04
		c1.99-2.21,0.61-3.13-1.42-3.86C455.89,372.02,451.08,370.82,446.9,371.16z M187.05,390.25c-2.34-3.72-5.21-6.05-7.96-8.37
		c-12.83-10.83-27.12-14.99-43.59-9.29c-4.01,1.39-3.76,2.53-1.08,5.2C149.27,392.5,166.82,395.59,187.05,390.25z M270.78,545.7
		c-0.16-3.85-0.21-7.65-0.9-11.46c-0.67-3.69-1.69-3.43-4.38-1.43c-10.11,7.51-13.83,18.31-16.28,29.93
		c-1.32,6.23-0.6,12.3,1.3,18.18c1.55,4.8,3.18,5.09,6.37,1.22C265.59,571.58,270.9,559.65,270.78,545.7z M121.18,481.64
		c-5.34,13.6-8.66,27.43-4.15,42c0.88,2.85,2.57,5.47,4.98,7.37c11.3,8.93,24.09,13.29,38.52,12.54c-8.71-1.58-17.12-4.21-25-8.22
		c-10.77-5.48-16.94-13.97-16.97-26.59C118.53,499.57,119.77,490.61,121.18,481.64z M149.79,297.31
		c-8.44,1.21-16.31,4.19-23.17,9.37c-4.49,3.39-9,7.01-10.62,12.84c-3.85,13.89,0.78,26.62,5.14,39.38
		C113.67,321.51,121.49,311.28,149.79,297.31z M175.15,285.8c0.51-2.06,1.12-4.09,1.53-6.17c1.91-9.8,6.51-18.41,11.75-26.75
		c3.15-5.02,7.59-8.18,13.24-9.93c6.92-2.15,13.98-2.58,22.43-2.08C190.75,232.39,172.02,253.68,175.15,285.8z M173.48,561.06
		c5.42,37.94,29.43,55.28,63.73,37.58C206.26,605.71,187.57,604.55,173.48,561.06z M474.57,482.93c2.89,13.13,6.76,26.37-0.89,39.2
		c-7.53,12.64-20.86,16.5-33.43,21.53c11.05-1.76,22.03-3.8,31.04-11.06c4.91-3.96,7.97-9.03,8.86-15.62
		C481.77,505.03,479.71,493.83,474.57,482.93z M364.94,601.23c4.18,1.03,8.31,2.34,12.54,3.04c11.4,1.9,22.58,1.67,30.83-7.93
		c8.6-10.01,13.02-21.88,13.43-36.08C414.21,596.32,392.74,606.69,364.94,601.23z M329.53,230.8c-4.54-6.02-10.5-10.23-16.89-13.83
		c-9.34-5.26-18.89-6.13-28.48-0.55c-6.94,4.04-13.44,8.65-18.53,14.98c-1.02,1.27-1.97,2.61-2.95,3.91
		c5.58-3.79,10.54-7.95,15.94-11.56c10.38-6.96,21.01-10.51,33.13-3.92C317.9,223.17,323.97,226.55,329.53,230.8z M329.95,609.01
		c-9.32,8.11-19.38,14.71-32.06,15.89c-13.35,1.25-21.98-8.31-32.68-15.45c7.92,13.46,21.4,21.04,33.66,18.95
		C311.72,626.2,321.36,618.37,329.95,609.01z M477.66,348.84c1.99-6.39,2.88-12.93,3.12-19.59c0.43-11.56-4.5-19.61-14.93-24.82
		c-9.71-4.86-20.08-5.99-30.58-6.97c9.19,1.8,18.1,4.32,26.53,8.52c7.59,3.78,12.69,9.32,14.82,17.73
		C478.73,332.06,478.52,340.39,477.66,348.84z M483.43,456.95c27.48-15.6,30.47-50.58,4.06-68.11
		C510.89,411.16,506.47,432.53,483.43,456.95z M418.93,264.99c-1.77-6.21-4.05-10.92-6.89-15.4c-4.46-7.05-10.74-11.22-19.07-12.06
		c-12.64-1.27-24.53,1.66-36.05,6.55c1.31-0.04,2.57-0.34,3.82-0.66c9.57-2.43,19.31-3.54,29.14-2.76
		C404.57,241.81,411.62,252.52,418.93,264.99z M111.91,453.85c-19.45-20.64-27.54-42.12-4.64-65.9
		C85.66,403.93,82.81,431.3,111.91,453.85z M264.37,256.31c12.25,14.67,12.66,16.07,12.2,39.6
		C285.19,281.18,280.35,264.32,264.37,256.31z M463.62,459.85c-8.26-17.32-25.79-25.35-40.65-19.37
		C439.57,439.76,452.16,447.21,463.62,459.85z M381.69,320.01c6.89-9.45,16.14-16.03,27.81-21.64
		C392,299.72,385.1,305.25,381.69,320.01z M187.83,296.73c4.38,1.9,8.43,4.35,12.37,7.03c3.91,2.66,7.12,5.92,9.94,9.66
		c2.71,3.58,4.54,7.74,7,11.49C216.08,309.87,205.81,300.16,187.83,296.73z M262.5,579.7c13.28-9.04,15.73-28.72,10.46-37.96
		C274.89,555.83,269.48,567.36,262.5,579.7z M378.91,518.59c4.94,16.89,14.24,24.77,30.93,25.91
		C395.79,539.51,385.99,530.69,378.91,518.59z M136.7,368.27c17.85-2.45,23.47-1.22,40.78,8.51
		C167,364.12,154.67,361.27,136.7,368.27z M174.7,395.43c-6.16-0.02-12.26-0.15-18.31-1.42c-6.15-1.28-11.82-3.63-16.96-7.32
		C147.63,397.34,159.8,400.33,174.7,395.43z M396.31,338.64c12.7-1.88,19.47-8.76,22.02-23.56c-2.83,5.07-5.38,9.49-9.02,13.24
		C405.72,332.01,401.5,334.87,396.31,338.64z M246.67,267.69c-5.33,8.93-2.79,25.23,6.9,30.7c-2.56-4.82-4.93-9.36-5.88-14.54
		C246.73,278.6,246.64,273.33,246.67,267.69z M427.72,397.42c11.21,3.78,25.39-1.49,31.21-12.93
		C449.69,391.86,439.97,396.86,427.72,397.42z M176.53,310.03c0,15.49,8.35,25.97,20.59,26.76
		C185.33,329.96,185.33,329.96,176.53,310.03z M320.67,545.2c-4.28,13.55,0.12,29.36,10.66,37.33
		C323.61,570.64,319.17,558.72,320.67,545.2z M395.91,500.63c11.05,6.06,19.59,14.43,24.5,26.25
		C417.1,513.55,410.27,503.53,395.91,500.63z M245.8,573.36c-0.3-10.56,2.74-19.88,7-29.91
		C243.63,552.51,240.99,564.15,245.8,573.36z M451.86,472.31c-10.87,0.64-21.46-0.26-31.33-5.56
		C429.47,475.28,441.7,477.49,451.86,472.31z M174.8,442.68c-13.04-5.08-28.61-3.04-32.54,6.65
		C152.18,443.6,162.53,440.6,174.8,442.68z"/>
	<path class="st0" d="M322.41,508.68c0,6.96,0.06,12.97-1.75,18.74c-1.18,3.75-1.76,8.66-6.55,9.07c-4.36,0.37-6.15-3.96-8.03-7.27
		c-2.89-5.09-4.55-10.7-6.61-16.98c-1.14,4.6-2.05,8.53-3.08,12.42c-1.11,4.15-3.41,7.57-6.69,10.33c-3.61,3.04-6.83,2.86-10.01-0.7
		c-3.78-4.23-4.29-9.61-4.91-14.91c-0.23-1.94,0.38-4.01-1.1-6.15c-2.88,2.41-4.03,5.93-6.21,8.67c-2.61,3.3-5.23,7.22-9.98,6.25
		c-4.86-0.99-5.63-5.63-6.25-9.82c-0.89-5.99-0.61-11.94,1.41-18.15c-2.34,0.1-3.06,1.75-4.04,2.83c-2.94,3.21-6.07,6.22-9.71,8.59
		c-2.8,1.82-5.86,3.73-9.24,1.49c-3.63-2.4-4.46-6.11-3.63-10.16c0.98-4.76,2.84-9.22,5.17-13.48c0.6-1.11,1.13-2.26,2.2-4.41
		c-5.54,3.99-10.38,6.86-15.65,8.9c-3.06,1.19-6.23,1.74-8.93-0.76c-2.67-2.47-2.45-5.75-1.73-8.87c1.25-5.43,4.68-9.76,8.62-14.82
		c-5.65,0.9-10.28,2.13-15.07,1.93c-3.48-0.15-6.83-0.66-8.57-4.04c-1.91-3.7-0.02-6.87,2.39-9.53c4.7-5.2,10.29-9.26,17.79-12.33
		c-7.42-0.18-13.74,0.03-19.8-2.15c-2.37-0.85-4.73-1.69-6.67-3.31c-3.8-3.19-4.02-7.41-0.39-10.79c4.2-3.91,9.31-6.34,15.45-8.51
		c-3.34-1.28-6.19-2.22-8.91-3.44c-6.19-2.79-10.95-8.57-9.85-12.56c1.62-5.89,7.25-6.47,11.98-7.48c4.18-0.89,8.6-0.67,14.05-1.01
		c-3.04-1.77-5.33-3.1-7.61-4.44c-3.93-2.31-7.53-4.99-9.59-9.21c-2.36-4.82-0.73-8.02,4.51-9.16c7.33-1.6,14.54-0.22,22.62,1.18
		c-5.02-5.17-9.79-9.56-11.99-15.79c-1.12-3.16-2.52-6.55,0.05-9.47c2.68-3.04,6.35-2.41,9.8-1.45c5.14,1.42,9.98,3.58,15.57,7.02
		c-2.38-5.79-4.69-10.35-5.86-15.32c-0.73-3.1-1.96-6.46,0.72-8.95c2.51-2.33,5.72-0.95,8.56-0.1c4.65,1.4,8.99,3.49,12.91,6.41
		c0.65,0.49,1.34,1.24,2.21,0.8c1.13-0.57,0.86-1.75,0.61-2.66c-1.07-3.87-2.13-7.75-1.76-11.8c0.34-3.75,1.32-7.54,4.9-9.32
		c3.69-1.83,7.16,0.1,10.22,2.24c2.83,1.99,5.04,4.67,7,7.58c2.08-1.67,1.55-3.69,2.02-5.38c0.8-2.9,1.7-5.77,3.39-8.29
		c4.25-6.33,8.6-6.63,13.7-1.02c3.54,3.89,5.4,8.72,7.59,13.99c1.67-2.12,1.53-4.33,2.18-6.24c1.4-4.15,2.96-8.18,6.78-10.79
		c4.93-3.36,8.96-2.24,11.07,3.37c2.25,6,2.76,12.31,2.53,18.69c-0.05,1.28-0.01,2.56-0.01,5.12c2.45-4.18,4.19-7.3,6.08-10.33
		c2.31-3.72,5.16-6.99,9.02-9.18c5.9-3.34,10.29-1.2,10.81,5.57c0.48,6.28,0.32,12.59-0.98,20.1c2.8-3,4.77-5.11,6.73-7.22
		c2.42-2.6,5.24-4.67,8.51-6c6.51-2.64,10.94,0.67,10.37,7.69c-0.42,5.25-2.3,10.03-4.97,14.52c-1.1,1.85-2.13,3.73-3.71,6.51
		c4.96-1.88,8.61-4.42,12.89-5.42c3.94-0.92,7.88-1.45,11.88-0.9c5.15,0.7,7.36,4.68,5.36,9.48c-2,4.82-4.92,9.05-9.1,12.45
		c1.37,1.59,2.71,0.98,3.88,0.72c2.97-0.65,5.99-0.9,8.93-0.28c3.98,0.84,7.98,2.1,9.06,6.74c1.05,4.53-1.01,8.24-4.3,11.07
		c-2.74,2.35-5.91,4.19-9.37,6.59c4.28,0.73,8.17,1.14,11.93,2.09c4.86,1.22,9.94,3.56,10.18,8.94c0.24,5.34-4.97,7.41-9.42,9.02
		c-4.33,1.57-8.77,2.81-13.35,4.24c2.13,1.84,4.77,1.56,7.05,2.35c4.26,1.48,8.39,3.25,11.7,6.48c5.61,5.47,3.97,12.16-3.65,14.23
		c-4.19,1.14-8.51,1.53-12.88,0.89c-1.39-0.2-2.84-0.92-4.48,0.23c4.7,3.57,9.91,6.37,13.11,11.4c1.7,2.67,3.82,5.33,2,8.71
		c-1.69,3.15-4.87,2.95-7.89,3.17c-5.83,0.43-11.46-1.17-17.97-2.14c3.22,4.66,6.1,8.46,8.59,12.5c4.48,7.27,5.18,12.68,1.64,15.58
		c-5.41,4.44-10.71,1.17-15.83-1.16c-2.02-0.92-3.85-2.26-6.88-4.07c3.24,6.71,6.21,12.11,6.15,18.48
		c-0.06,6.75-3.39,9.13-9.62,6.44c-6.05-2.61-10.55-7.41-15.67-12.01c-1.06,2.34,0.23,4.14,0.56,5.89
		c1.03,5.32,1.09,10.58-0.15,15.85c-1.34,5.71-4.36,7.02-9.45,4.02c-4.11-2.42-7.05-6.06-9.62-10
		C325.82,514.2,324.38,511.82,322.41,508.68z M268.92,430.99c1.06-6.76,7.82-5.97,12.03-9.22c-5.71,1.14-9.71-2.75-14.5-3.99
		c-1.77-0.46-3.53-0.47-3.22-2.64c0.28-2.03,1.97-1.7,3.78-1.87c5.44-0.52,10.82-0.83,16.43,1.13c-0.45-2.77-2.08-3.22-3.33-3.72
		c-5.32-2.14-7.3-6.9-9-11.65c-0.61-1.7-1.02-2.86-2.76-2.57c-2.27,0.38-2.41,2.34-1.6,3.87c1.4,2.66,0.45,3.43-2.12,3.95
		c-2.87,0.57-3.97,2.43-2.35,5.13c1.02,1.7,1.48,2.77-0.86,3.8c-4.25,1.88-3.42,3.83,0.24,5.54c1.49,0.7,3.05,1.88,0.91,3.1
		c-4.2,2.4-3.61,4.16,0.18,6.1c1.19,0.61,1.42,1.75,1.36,2.98c-2.76,2.4-3.85,4.83,0.97,5.54c5.38,0.79,0.92,4.13,1.87,6.06
		c1.17,2.37,6.19-0.6,5.42,4.11c-0.03,0.16-0.04,0.33-0.09,0.49c-1.67,5.21,1.15,5.45,4.94,4.37c1.84-0.53,3.34-0.68,3.84,1.61
		c0.48,2.16,1.54,4.43,3.86,3.11c2.39-1.37,6.86-3,5.93-5.76c-1.59-4.7-0.49-8.72,0.51-13.11c-1.61,1.55-2.71,3.35-4.17,4.81
		c-2.3,2.31-5.2,3.59-7.92,1.01c-2.56-2.43-0.56-4.86,0.96-7.07c1.21-1.76,3.5-2.81,4.13-5.74
		C278.87,431.99,273.99,436.93,268.92,430.99z M353.07,383.87c13.2-3.67,25.38-9.15,33.9-20.42c2.19-2.89,5.19-6.5,2.9-10.39
		c-2.1-3.57-6.3-2-9.68-2c-1.47,0-3.02,0.21-4.38,0.73c-13.06,4.98-22.74,13.49-27.7,26.84
		C346.87,384.53,347.27,384.95,353.07,383.87z M341.99,370.9c10.9-7.04,19-16.55,24.36-28.31c1.15-2.52,1.73-5.39,2.12-8.17
		c0.8-5.7-2.58-8.29-7.77-5.98c-3.99,1.77-7.23,4.56-10.16,7.86c-7.93,8.96-12.83,19.32-15.08,31c-0.52,2.7-2.79,6.6-0.52,7.86
		c2.55,1.42,4.82-2.49,7.07-4.29L341.99,370.9z M303.01,355.9l-0.03-0.06c0.26,2.14,0.37,4.31,0.84,6.41
		c0.27,1.21,0.07,3.1,1.57,3.41c1.87,0.39,2.32-1.59,2.95-2.83c4.12-8.04,6.57-16.68,8.42-25.46c1.84-8.72,1.84-17.52-0.77-26.12
		c-1.67-5.5-4.99-6.28-9.23-2.5c-2.58,2.3-3.9,5.33-4.88,8.54C297.89,330.28,298.43,343.15,303.01,355.9z M299.93,455.49
		c2.77,4.03,4.04,4.21,6.23,0.41c1.37-2.38,2.37-3.49,4.71-1.09c2.02,2.08,3.57,1.65,3.93-1.32c0.31-2.54,1.2-3.65,3.9-2.55
		c2.3,0.93,3.87-0.32,3.59-2.53c-0.45-3.6,1.34-3.46,3.81-2.98c1.15,0.22,2.43,0.24,3.05-1.06c0.47-1,0.1-2.04-0.64-2.75
		c-1.31-1.26-2.02,0.28-2.91,0.82c-0.95,0.57-1.88,0.74-2.78,0.06s-1.06-1.68-0.66-2.69c0.46-1.17,1.36-2.05,2.66-1.8
		c1.67,0.31,3.27,0.25,4.93-0.03c5.23-0.89,5.73-1.64,3.36-6.37c-1.04-2.08-1.19-3.28,1.41-4.04c4.1-1.2,3.27-3.22,0.43-4.95
		c-2.35-1.42-3.63-2.49-0.6-4.55c3.37-2.29,3.19-4.46-0.6-6.1c-2.07-0.9-2.88-1.81-1.23-4.05c1.49-2.02,0.36-3.52-1.97-3.83
		c-3.03-0.4-3.69-1.63-2-4.25c0.37-0.58,0.17-2.3,0.06-2.31c-4.95-0.67-6.41-5.74-10.12-7.92c-0.24-0.14-0.72,0.14-0.97,0
		c-3.4-1.84-6.07-5.66-10.8-3.9c-0.12,0.05-0.66-0.7-0.83-1.15c-1.55-4.02-3.77-2.85-6.07-0.78c-1.41,1.27-2.98,2.81-4.56,0.58
		c-3.71-5.24-4.43-0.59-6.41,1.54c-2.11,2.28-5.89-3.8-7.95,1.14c-0.19,0.45-0.19,0.98-0.26,1.47c-0.24,1.5-1.22,1.76-2.55,1.66
		c-1.95-0.15-4.13-0.71-4.77,2.15c-0.66,2.94,0.36,6.24,2.58,6.98c4.19,1.4,7.18,4.01,10.21,6.83c0.79,0.74,1.7,1.2,2.63,0.35
		c1-0.9,0.21-1.83-0.18-2.7c-1.12-2.46-1.97-4.98-1.55-7.72c0.28-1.84,0.84-3.73,2.98-4.17c2.3-0.46,3.91,0.88,4.77,2.8
		c0.8,1.8,0.98,3.88,1.75,5.7c0.68,1.6-0.31,4.09,2.83,4.52c2.95,0.4,3.73-1.3,4.69-3.32c1.15-2.43,2.7-4.63,4.96-6.15
		c3.04-2.05,5.03-1.01,5.31,2.68c0.28,3.6-1.51,6.37-3.57,9.06c-0.7,0.92-1.52,2.01-0.58,3.14c1.08,1.29,2.1,0.18,3.05-0.39
		c1.99-1.21,3.93-2.58,6.27-2.99c2.48-0.44,4.77,0,5.78,2.66c1.09,2.86-0.68,4.44-3,5.4c-2.52,1.04-5.15,1.81-7.74,2.69
		c3.11,1.26,6.32,0.66,9.24,1.88c2.15,0.9,3.98,2.21,3.58,4.75c-0.42,2.64-2.76,3.23-5,3.15c-2.71-0.1-5.4-0.61-9.05-1.07
		c2.83,2.51,5.06,4.2,6.92,6.22c1.65,1.79,2.63,4,0.49,6.21c-1.98,2.05-4,1.13-5.8-0.24c-2.25-1.71-4.37-3.61-7.34-6.1
		c1.38,3.53,2.55,5.94,3.24,8.47c0.77,2.83-0.03,5.64-2.85,6.71c-3.08,1.18-4.21-1.6-5.51-3.77c-1.28-2.13-0.78-5.13-3.38-7.17
		c-1.45,3.7-0.17,7.44-1.94,10.56c-1,1.77-3.66,3.77-1.5,5.55c1.7,1.41,3.19-1.42,4.7-2.53c1.33-0.98,2.88-1.35,3.97,0.17
		c1.25,1.74,0.17,3.06-1.23,4.22C302.1,455.47,300.7,454.24,299.93,455.49z M297.66,501.01c-0.52-8.28-1.12-16.23-4.94-23.53
		c-2.28-4.37-2.64-4.48-5.31-0.47c-5.74,8.65-7.91,18.62-10.24,28.48c-1.89,7.98-0.75,15.93,1.98,23.53
		c2.35,6.55,6.49,7.15,11.13,2.14c2.69-2.91,4.13-6.36,5.1-10.13C297.07,514.36,296.87,507.49,297.66,501.01z M213.96,421.96
		c-10-0.27-16.35,1.34-23.62,6.21c-2.44,1.64-5.46,3.17-4.95,6.81c0.48,3.41,3.31,4.74,6.2,5.79c18.45,6.7,34.13,0.76,48.56-10.74
		c2.85-2.27,1.57-3.33-1.19-4.13C230.79,423.54,222.49,422.01,213.96,421.96z M277.95,485.97c-0.08-5.46-0.2-9.78-1-14.05
		c-0.4-2.15-1.28-2.61-2.92-1.06c-13.79,13.01-22.94,28.03-20.49,47.94c0.36,2.96,1.25,6.33,4.61,7.05c3.06,0.66,5.3-1.81,6.92-4.11
		C272.87,510.69,278.74,498.91,277.95,485.97z M205.41,398.99c-6.14-0.13-11.61-0.01-16.77,2.35c-4.84,2.22-5.61,5.23-2.12,9.35
		c3.15,3.72,7.48,5.44,12.01,6.73c12.57,3.56,25.03,2.22,37.43-0.92c1.85-0.47,4.59-0.55,4.96-2.68c0.39-2.3-2.03-3.73-3.79-4.81
		C227.22,402.93,216.84,398.19,205.41,398.99z M291.2,365.64c3.36-12.12,7.06-23.95,5.29-36.44c-0.97-6.83-3.32-13.25-8.07-18.52
		c-3.59-3.97-6.59-3.95-9.84,0.31c-3.03,3.97-4.48,8.73-4.21,13.59C275.21,340.09,283.63,352.63,291.2,365.64z M259.01,376.16
		c5.95,0,6.66-0.93,5.16-6.06c-0.93-3.18-1.75-6.41-2.86-9.53c-4.7-13.32-12.41-23.77-26.83-27.72c-2.09-0.57-4.41-1.64-6.19-0.13
		c-2.03,1.73-1.05,4.32-0.54,6.56c3.01,13.05,10.61,23.11,20.96,31.17C251.93,372.95,255.57,375.07,259.01,376.16z M262.8,469.04
		c-0.68-1.49,1.11-4.33-1.39-5.41c-2.09-0.91-4.12,0.82-5.84,2.1c-3.46,2.58-7.03,5.08-10.2,7.99
		c-8.17,7.49-13.32,16.94-16.62,27.37c-1.03,3.27-1.72,7.2,1.76,9.61c3.46,2.4,6.36-0.19,8.96-2.17
		c7.78-5.9,14.08-13.14,18.45-21.91C260.6,481.25,262.67,475.65,262.8,469.04z M380.86,492.75c6.12,0.24,8.13-3.22,5.92-9.11
		c-6.14-16.37-23.99-28.55-41.73-28.59c-2.57-0.01-3.65,0.54-2.03,3.05c7.51,11.62,14.91,23.32,27.33,30.58
		C373.83,490.71,377.35,492.5,380.86,492.75z M361.65,398.92c13.56,0.7,25.74-2.9,36.56-10.88c3.52-2.6,5.6-6.08,4.09-10.36
		c-1.43-4.04-5.31-4.66-9.14-4.64c-15.55,0.1-27.27,7.17-36.37,20.58c7.25-2.52,13.8-4.68,18.47-10.33c1.07-1.29,2.03-2.94,4-2.36
		c3.93,1.15,7.44,0.68,10.93-1.58c1.72-1.12,3.83-0.53,4.41,1.66c0.58,2.15-1.26,3.15-2.96,3.05c-3.81-0.23-5.77,1.83-7.3,4.86
		c-1.16,2.29-2.74,3.05-5.64,2.67C371.79,390.69,366.47,394.38,361.65,398.92z M278.01,362.87c-0.78-6.99-0.98-14.38-2.55-21.47
		c-1.72-7.75-4.43-15.38-10.19-21.31c-2.75-2.83-6.21-5.2-10.2-3.7c-4.1,1.54-3.86,5.78-3.9,9.44c-0.02,1.65,0.18,3.32,0.48,4.95
		c2.11,11.35,8.02,20.99,14.01,30.55c1.29,2.05,3.36,3.65,5.2,5.32c1.65,1.49,3.84,2.78,5.88,1.91
		C279,367.59,277.41,364.98,278.01,362.87z M317.91,481.96c-0.51,7,1.32,13.62,3.85,19.95c3.29,8.23,7.69,15.9,14.71,21.65
		c4.42,3.62,7.4,2.5,8.09-3.2c0.66-5.44,0.64-10.88-0.75-16.33c-3.45-13.49-13.31-22.36-22.36-31.83c-1.9-1.99-2.94-0.89-3.13,1.3
		C318.08,476.31,318.04,479.14,317.91,481.96z M300.09,496.66c-0.07,12.12,3.06,23.37,9.19,33.79c1.01,1.71,2.12,3.71,4.43,3.55
		c2.59-0.18,3.32-2.5,4.03-4.56c1.14-3.32,1.75-6.73,2.1-10.24c1.52-15.16-3.69-28.49-10.97-41.29c-0.69-1.22-1.04-3.4-2.81-2.96
		c-1.18,0.29-2.28,1.9-2.91,3.17C300.25,483.98,299.84,490.28,300.09,496.66z M351.26,427.28c16.14,9.98,32.13,15.51,50.05,14.07
		c1.94-0.16,3.95-0.78,5.7-1.65c4.13-2.06,4.71-5.5,1.6-8.88c-3.01-3.27-6.97-4.95-11.04-6.52
		C382.11,418.37,367.3,422,351.26,427.28z M203.78,375.25c-2,0-4.01-0.16-5.99,0.03c-5.56,0.54-6.97,3.51-3.98,8.1
		c1.88,2.88,4.69,4.65,7.53,6.42c13.04,8.11,27.55,10.32,42.53,10.66c0.96,0.02,2.29,0.39,2.75-0.6c0.72-1.56-0.34-2.92-1.35-4.01
		C234.08,383.68,221.16,374.93,203.78,375.25z M331.58,462.32c-0.09,8.22,3.25,14.61,6.04,21.05c4.97,11.49,12.96,20.51,23.74,26.89
		c4.89,2.89,7.53,1.15,7.53-4.53c0-2.35-0.29-4.64-1.14-6.86C361.18,481.62,347.63,471.36,331.58,462.32z M378.87,417.68
		c11.78,0.3,19.52-2.13,27.02-5.43c2.42-1.06,5.31-2.54,5.18-5.47c-0.14-3.17-2.74-5.29-5.71-6.28c-6.04-2.01-12.19-2.88-18.63-2.05
		c-11.03,1.41-20.25,7.14-29.84,12.01c-1.25,0.63-3.12,1.36-2.65,3.14c0.43,1.62,2.4,1.65,3.81,1.81
		C366.12,416.35,374.21,417.18,378.87,417.68z M202.35,469.68c17.45-2.25,31.05-10.58,41.43-24.39c0.39-0.52,0.63-1.16,0.9-1.77
		c1.06-2.36,0.34-3.53-2.29-3.25c-15.56,1.66-30.57,4.86-42.81,15.58c-1.85,1.62-3.57,3.52-4.91,5.58c-2.08,3.2-1.02,5.75,2.5,7.07
		C198.86,469.14,200.71,469.32,202.35,469.68z M209.19,485.35c-0.2,6.97,3.2,8.85,9.4,6.07c15.97-7.15,26.22-19.92,34.02-35.02
		c0.57-1.1,1.62-2.46,0.3-3.62c-1.27-1.11-2.85-0.57-4.27-0.09c-11.96,4.04-22.84,9.97-31.76,19.01
		C212.89,475.74,209.78,480.47,209.19,485.35z M207.17,353.06c0.06,3.37,1.94,7.63,4.01,10.63c9.58,13.93,24.36,18.33,39.7,21.69
		c1.14,0.25,2.47,0.32,3.14-0.89c0.81-1.47-0.39-2.54-1.17-3.53c-5.75-7.34-11.49-14.73-18.39-21.03
		c-6.02-5.51-13.35-8.73-21.31-10.39C209.62,348.82,207.26,350.12,207.17,353.06z M320.11,369.41
		c10.74-13.02,23.54-24.72,23.98-43.39c0.1-4.21,1.3-9.3-3-11.09c-4.16-1.74-7.53,2.22-10.29,5.39
		C318.35,334.63,318.48,351.8,320.11,369.41z M391.84,464.79c1.66,0,3.33,0.1,4.99-0.02c4.77-0.36,6.16-2.84,3.62-7
		c-1.36-2.23-3.28-4.17-5.18-6.01c-11.45-11.08-25.56-12.34-40.39-10.72c-1.75,0.19-4.09-0.35-4.89,1.66
		c-0.87,2.19,1.1,3.69,2.48,5.03C363.42,458.4,376.78,463.57,391.84,464.79z M347.97,429.4c-0.95,3.12-0.59,5.79-2.89,7.14
		c-3.03,1.78-4.82,3.13-3.78,7.78c1.01,4.54-7.87,4.64-7.54,10.51c0.05,0.91-1.79,1.34-3,1.28c-2.62-0.14-4.28,0.54-4.95,3.53
		c-0.74,3.3-3.24,4.4-6.55,3.44c-1.52-0.44-3.29-1.53-4.04,1.04c-0.89,3.09-3.4,4.55-6.45,5.64c4.19,2.93,5.35,2.75,6.84-1.51
		c0.89-2.53,1.57-3.09,4.16-1.87c5.29,2.49,7.63,0.98,7.94-5.07c0.16-3.14,0.95-4.24,4.17-3.2c3.35,1.09,5.44-0.27,4.78-3.9
		c-0.61-3.32,1.22-4.02,3.69-4.62c4.11-0.99,5.69-3.59,3.77-7.39c-1.36-2.69,0.05-3.05,1.96-3.75
		C350.53,436.85,350.65,433.93,347.97,429.4z M248.44,424.92c-2.97-3.89-2-6.38,0.62-8.46c1.56-1.24,1.22-2.41,0.14-3.82
		c-2.67-3.51-1.29-6.34,1.99-8.3c2.22-1.33,3.61-2.37,2.64-5.38c-1.1-3.43,0.6-5.88,4.11-6.67c2.55-0.57,3.31-1.77,3.3-4.44
		c-0.02-4.01,1.86-6.88,6.53-5.85c2.89,0.64,3.35-1.11,3.97-3.13c1.05-3.41,3.08-4.6,6.39-2.53c0.64,0.4,1.42,1,2.01-0.14
		c-5.76-4.73-7.39-4.43-10.17,2.18c-0.74,1.77-1.83,2.25-3.47,1.91c-5.38-1.1-6.84,2.21-6.99,6.49c-0.07,2.22-0.42,3.19-2.89,3.49
		c-5.84,0.71-7.19,2.96-5.36,8.85c0.77,2.49,0.25,3.43-2.16,4.4c-5.3,2.14-5.69,3.68-2.63,8.62c1.12,1.81,2.16,3.02-0.26,4.91
		C242.33,420.06,242.64,421.1,248.44,424.92z M319.73,375.23c4.58-0.47,7.8,0.71,7.97,5.05c0.1,2.54,0.66,2.84,3.08,2.81
		c5.26-0.05,6.45,1.59,5.73,7.06c-0.19,1.4-0.24,2.28,1.4,2.43c1.2,0.11,2.88,0.42,2.96,1.46c0.42,5.4,2.43,9.82,6.21,13.79
		c1.48,1.56-1.57,3.81-1.54,6.41c6.57-5.47,6.65-6.63,0.65-10.62c-1.98-1.31-2.35-2.57-1.07-4.48c2.37-3.52,0.84-5.74-2.67-6.71
		c-2.47-0.68-2.98-1.78-2.78-4.24c0.47-5.55-0.7-6.83-6.32-6.92c-2.59-0.04-3.3-0.9-3.76-3.34
		C328.63,372.85,325.4,371.86,319.73,375.23z M252.7,437.07c-4.45,5.23-4.3,8.54,0.81,9.51c4.2,0.8,5.49,2.54,4.86,6.67
		c-0.45,2.94,0.65,5.56,4.42,4.79c3.41-0.69,4.4,0.68,4.63,3.84c0.29,4.06,2.79,5,6.32,3.53c1.66-0.69,3.22-1.62,4.82-2.44
		c-7.53,1.75-7.61,1.79-10.82-4.57c-0.72-1.43-1.59-1.4-2.78-1.32c-4.87,0.3-5.38-2.74-5-6.52c0.16-1.58,1.58-2.96,0.81-4.68
		C252.19,446.02,250.97,444.67,252.7,437.07z"/>
	<path class="st0" d="M151.92,420c5.01-1.22,8.85-4.71,13.66-5.91c3.41-0.85,6.75-0.8,8.9,2.57c1.6,2.51,1.38,5.2-0.65,7.37
		c-2.65,2.83-5.98,3.64-9.54,1.86C160.3,423.89,156.32,421.89,151.92,420z M157.98,420.52c3.38,1.5,5.99,3.15,8.83,3.79
		c3.11,0.7,5.82-0.91,6.2-4.24c0.43-3.8-2.56-4.04-5.4-4.04C164.04,416.02,161.38,417.97,157.98,420.52z"/>
	<path class="st0" d="M296.93,567.01c-1.68-5.17-3.63-9.86-5.51-14.59c-1.34-3.37-0.83-6.63,2.49-8.73
		c2.78-1.76,5.76-1.62,8.36,0.38c3.02,2.33,3.51,5.46,2.01,8.89C302.19,557.75,298.34,561.6,296.93,567.01z M297.41,560.21
		c2.29-3.31,4.32-5.75,5.11-8.87c0.5-2,0.29-4.04-1.6-5.39c-1.79-1.28-3.8-1.25-5.66-0.26c-2.1,1.12-2.3,3.19-1.9,5.23
		C293.97,554.02,295.46,556.77,297.41,560.21z"/>
	<path class="st0" d="M443.44,420.29c-4.82,0.95-8.56,3.48-12.59,5.24c-2.12,0.93-4.32,1.88-6.7,0.95c-3.21-1.26-5.57-3.31-4.69-7.1
		c0.91-3.91,3.84-5.37,7.58-4.54C432.61,416.08,437.42,419.73,443.44,420.29z"/>
	<path class="st0" d="M224.32,547.09c0.68-5.34,1.38-10.19,1.74-15.1c0.05-0.64,0.35-1.27,0.57-1.9c1.18-3.24,3.27-5.4,6.92-5.36
		c2.78,0.03,5.47,0.76,6.33,3.78c0.94,3.31-0.16,6.28-2.85,8.42C232.84,540.28,227.63,542.33,224.32,547.09z M227.15,541.42
		c3.44-2.57,6-4.3,8.34-6.29c1.86-1.58,2.87-3.72,1.78-6.17c-0.68-1.54-2.25-1.77-3.8-1.76c-2.78,0.02-4.27,1.84-4.84,4.16
		C227.93,534.2,227.74,537.16,227.15,541.42z"/>
	<path class="st0" d="M425.48,346.51c-4.24,4.89-7.54,8.8-10.97,12.59c-2.1,2.32-4.64,4.06-7.91,2.48c-2.51-1.22-4.3-3.21-4.09-6.27
		c0.26-3.85,3.08-5.48,6.26-6.14C413.91,348.09,419.14,347.48,425.48,346.51z"/>
	<path class="st0" d="M370.02,546.8c-3.8-3.53-7.51-6.55-11.28-9.54c-2.68-2.13-3.9-5.01-2.51-8.44c0.97-2.4,2.94-3.84,5.46-3.61
		c3.68,0.35,6,2.63,6.93,6.24C369.92,536.45,368.22,541.7,370.02,546.8z"/>
	<path class="st0" d="M371.37,293.54c-1.19,4.75-1.37,9.39-2.34,13.87c-0.35,1.59-1,3.21-1.89,4.57c-2.11,3.22-6.6,4.37-9.14,2.28
		c-3.19-2.62-2.8-5.84-0.73-8.93C360.78,300.12,367.17,298.26,371.37,293.54z"/>
	<path class="st0" d="M423.95,494.17c-5.25-1.36-10.29-1.8-15.33-2.43c-4.57-0.57-7.11-4.16-6.35-7.95
		c0.52-2.58,1.92-4.63,4.46-5.56c2.7-0.99,4.98,0.14,6.61,2.19C416.91,484.89,419.76,489.92,423.95,494.17z M417.22,490.64
		c-1.01-3.65-3.11-5.8-4.8-8.14c-1.22-1.69-2.96-2.75-5.17-1.84c-1.89,0.78-2.7,2.44-2.74,4.35c-0.05,2.32,1.46,3.79,3.47,4.27
		C410.8,489.95,413.74,490.15,417.22,490.64z"/>
	<path class="st0" d="M298.22,274.37c1.49,5.05,4.16,9.3,5.46,14.06c1.03,3.77-0.01,6.93-3.48,8.96c-2,1.17-4.16,1.09-6.13-0.19
		c-1.68-1.09-2.51-2.78-2.12-4.71C293.21,286.23,297.11,280.9,298.22,274.37z"/>
	<path class="st0" d="M171.14,345.62c4.87,0.56,9.79,0.9,14.61,1.76c4.05,0.72,6.32,3.52,6.42,7.69c0.08,3.47-1.51,6.31-4.81,7.37
		c-3.74,1.2-6.77-0.74-9.09-3.59C175.25,355.14,174.11,350.27,171.14,345.62z M175.13,348.68c1.22,3.47,2.64,6.44,5,8.82
		c1.86,1.88,3.93,3.94,6.94,2.38c2.37-1.23,3.03-3.49,2.57-5.97c-0.58-3.1-2.98-4.29-5.75-4.65
		C181.11,348.9,178.3,348.87,175.13,348.68z"/>
	<path class="st0" d="M225.65,292.83c3.01,4.46,7.62,7.11,11.25,10.82c2.19,2.23,3.28,5.09,1.54,8.18
		c-1.46,2.59-3.83,3.74-6.73,3.09c-3.39-0.77-4.63-3.33-5.03-6.59c-0.61-4.97-1.41-9.93-2.12-14.89
		C224.92,293.24,225.29,293.03,225.65,292.83z"/>
	<path class="st0" d="M192.96,485.08c-0.92,3.78-3.45,6.27-7.36,6.9c-4.21,0.68-8.62-0.31-12.77,1.38
		c-0.46,0.19-1.25-0.17-1.75-0.48c-0.17-0.1-0.07-1.17,0.15-1.28c5.43-2.54,6.86-8.86,11.49-12.13c2.01-1.42,4.04-2.17,6.42-0.68
		C191.42,480.23,192.61,482.25,192.96,485.08z M177.6,489.69c4.02,0.68,7.64,0.97,10.78-1.42c2.27-1.73,3.02-3.96,0.87-6.4
		c-1.96-2.23-4.04-1.94-6.04-0.06C181.01,483.88,179.46,486.43,177.6,489.69z"/>
	<path class="st0" d="M348.11,378.63c7.49-2.23,12.4-7.51,16.18-13.98c0.88-1.51,1.45-2.86,3.48-2.99
		c3.99-0.26,7.91-0.66,10.89-3.97c1.13-1.25,2.84-1.06,3.83,0.52c1.12,1.78-0.18,2.76-1.51,3.57c-0.98,0.6-2.8,0.94-2.94,1.65
		c-1.93,10.1-12.07,9.55-18.19,14.16c-2.5,1.88-5.64,2.97-6.78,6.28C347.27,384.95,346.87,384.53,348.11,378.63z"/>
	<path class="st0" d="M290.12,482.24c2.93-0.12,4.58,2.48,3.23,5.19c-3.27,6.54-3,13.15-0.37,19.69c0.88,2.19,0.01,3.41-1.13,4.89
		c-2.18,2.82-5.06,5.28-3.73,9.62c0.47,1.52-0.86,2.92-2.62,2.94c-1.8,0.02-3.22-1.46-2.48-2.89c2.3-4.46-0.61-7.57-2.31-11
		c-0.97-1.95-1.21-3.4,0.45-5.34c4.54-5.33,7.24-11.34,5.64-18.66C286.21,484.08,287.89,482.73,290.12,482.24z M288.8,496.18
		c-1.96,4.1-3.04,7.41-5.3,10.12c-2.33,2.79,0.12,4.89,1.19,7.14c0.41,0.85,1.38,1.97,2.3,1.08c1.74-1.67,3.7-3.39,3.62-6.17
		c-0.02-0.64-0.28-1.28-0.48-1.91C289.18,503.43,288.83,500.33,288.8,496.18z"/>
	<path class="st0" d="M235.11,428.85c-0.09,2.07-1.48,3.14-3.54,3.19c-7.09,0.15-13.32,2.6-18.92,6.81
		c-2.13,1.6-3.81,0.04-5.51-0.77c-3.06-1.46-5.96-2.88-9.39-0.76c-1.62,1-3.43,0.44-3.89-1.64c-0.46-2.06,1-3.05,2.84-3.31
		c1.3-0.19,3.28,0.42,3.84-0.26c4.95-5.96,10.66-4.3,16.91-2.69c4.01,1.04,8.11-1.01,11.89-2.9
		C232.36,425.02,234.95,426.09,235.11,428.85z"/>
	<path class="st0" d="M260.4,517.79c-2.43-0.69-3.42-2.55-1.99-4.49c2.59-3.5,1.9-6.88,0.43-10.31c-1.15-2.68-0.18-4.12,1.92-5.85
		c4.55-3.76,8.21-8.2,8.28-14.61c0.02-1.89,1.19-3.06,2.93-3.6c1.21-0.38,2.34-0.04,3.14,0.97c1.34,1.68,0.25,3-0.59,4.49
		c-3.07,5.46-5.04,11.27-3.67,17.59c0.47,2.18-0.4,3.05-1.86,4.02c-2.93,1.92-5.87,3.67-5.11,8.15
		C264.18,515.96,262.63,517.51,260.4,517.79z"/>
	<path class="st0" d="M197.3,405.26c3.7,2.33,6.37-0.69,9.24-2.39c2.58-1.53,4.49-1.54,7.14,0.32c5.1,3.57,11.06,5.17,17.32,5.42
		c1.84,0.07,3.78-0.07,4.49,2.2c0.39,1.25-0.11,2.32-1.06,3.09c-1.81,1.48-3.17,0.25-4.88-0.59c-5.21-2.56-10.69-1.39-15.94-0.06
		c-2.95,0.75-5.27,0.94-7.79-1.1c-2.3-1.86-4.87-3.41-8.1-1.34c-1.26,0.8-2.94,0.48-4.01-0.93c-0.65-0.85-0.81-1.83-0.39-2.81
		C194.02,405.42,195.53,405.32,197.3,405.26z"/>
	<path class="st0" d="M287.99,319.57c-2.19,4.1,1.01,6.88,3.42,9.74c2.02,2.4,2.65,4.5,1.45,7.65c-2.03,5.34-2.7,10.95-0.65,16.55
		c0.51,1.41,0.32,2.62-0.96,3.52c-0.72,0.51-1.55,0.7-2.35,0.31c-1.34-0.66-2.06-1.89-1.77-3.27c1.43-6.82-1.7-12.31-5.15-17.64
		c-1.19-1.83-1.84-3.31-0.66-5.43c1.99-3.57,3.15-7.29,1.21-11.39c-0.66-1.4-0.38-2.97,1.1-3.98c0.88-0.6,1.83-0.75,2.82-0.25
		C288.06,316.18,288.26,317.6,287.99,319.57z"/>
	<path class="st0" d="M260.09,368.5c-0.17,1.85-0.89,2.91-2.35,3.25c-1.71,0.41-3.14-0.36-3.62-1.9
		c-2.26-7.35-6.78-12.39-14.2-14.72c-1.47-0.46-1.18-1.79-1.27-2.92c-0.31-3.94-0.16-8.03-5.01-9.79c-1.52-0.55-1.97-2.29-0.79-3.78
		c1.29-1.63,3.36-1.75,4.26-0.19c2.47,4.29,6.71,5.07,10.81,6.27c1.21,0.35,2.1,1.01,2.21,2.37c0.6,7.45,4.48,13.37,8.83,19.1
		C259.54,366.93,259.81,367.91,260.09,368.5z"/>
	<path class="st0" d="M236.09,504.07c-3.12-0.71-3.6-3.19-1.74-4.73c4.08-3.39,3.78-7.44,3-11.77c-0.38-2.1,0.64-3,2.38-3.74
		c5.96-2.52,11-6.06,13.57-12.36c0.6-1.48,1.84-2.37,3.6-2.03c1.42,0.27,2.47,1.07,2.84,2.49c0.44,1.74-0.51,3.16-1.93,3.65
		c-6.27,2.15-7.4,7.66-8.62,13c-0.67,2.94-1.54,5.28-4.76,6.27c-2.52,0.78-4.12,2.5-4.39,5.44
		C239.84,502.41,238.47,503.92,236.09,504.07z"/>
	<path class="st0" d="M377.62,485.31c-2.84-5.25-9.06-3.53-13.83-5.63c-0.69-0.3-0.91-1.7-1.36-2.58
		c-2.87-5.62-6.72-10.3-12.61-12.95c-1.84-0.83-3.14-1.91-2.9-4.1c0.14-1.26,0.85-2.23,2.09-2.53c2.22-0.54,3.13,1,4.27,2.57
		c3.5,4.83,8.72,7.12,14.27,8.39c3.3,0.76,5.51,2.09,6.17,5.48c0.6,3.06,2.45,4.91,5.33,6.01c1.27,0.48,2.15,1.66,1.83,3.2
		C380.63,484.45,379.73,485.14,377.62,485.31z"/>
	<path class="st0" d="M270.3,338.53c-0.78,6.6,0.9,12.97,3.81,19.08c0.71,1.49,1,2.81-0.09,4.18c-0.77,0.96-1.74,1.62-3.02,1.31
		c-1.78-0.42-2.14-1.84-2.34-3.42c-0.8-6.25-4.29-11.15-8.45-15.49c-1.84-1.92-2.68-3.58-2.07-6.13c0.92-3.83,1.22-7.46-2.08-10.64
		c-1.46-1.4-1.25-3.62,0.79-4.65c2.18-1.1,4.01,0.45,4.01,2.3c0,4.62,3.47,6.05,6.38,8.15C268.96,334.46,271.14,335.47,270.3,338.53
		z M268.49,350.26c-0.28-4.2-0.42-8.41-0.88-12.6c-0.27-2.44-2.62-3.25-4.41-4.37c-0.79-0.5-1.71-0.36-2.01,0.65
		c-0.8,2.7-1.9,5.58,0.12,8.08C263.56,344.81,265.96,347.47,268.49,350.26z"/>
	<path class="st0" d="M337.77,503.19c-1.35,2.62-0.97,5.7,1.15,8.94c1.06,1.63,0.2,3.77-2.01,4.27c-2.1,0.48-3.25-1.1-3.09-2.9
		c0.34-3.8-1.93-5.36-4.89-6.49c-2.97-1.13-4.19-3.03-4.32-6.39c-0.22-5.95-0.82-11.94-4.3-17.16c-0.87-1.31-1.2-2.81-0.18-4.19
		c0.74-1,1.84-1.46,3.09-1.04c1.34,0.45,2.58,1.39,2.51,2.8c-0.4,7.88,5.53,11.92,10.06,16.78
		C337.07,499.17,338.6,500.21,337.77,503.19z M325.55,489.84c0.66,4.49,1.16,8.36,1.8,12.21c0.47,2.81,3.04,3.29,5.14,4.13
		c1.42,0.57,2.03-0.54,2.5-1.71c0.94-2.3,0.38-3.96-1.46-5.72C330.83,496.15,328.49,493.16,325.55,489.84z"/>
	<path class="st0" d="M306.39,481.72c2.41,0.67,4.35,2.44,3.46,4.65c-2.69,6.76,0.9,11.94,3.83,17.2c1.43,2.56,2.12,4.63,0.68,7.36
		c-1.49,2.82-2.43,5.73-0.5,8.97c0.87,1.45,0.59,3.53-1.59,3.97c-2.21,0.44-3.72-0.91-3.46-3.11c0.47-3.98-1.44-6.7-4.11-9.12
		c-1.2-1.09-1.74-2.12-1.41-3.89c1.31-7.18,2.84-14.33-0.17-21.58C302.2,483.92,303.62,481.98,306.39,481.72z"/>
	<path class="st0" d="M401.59,433.86c-0.35,3-2.17,3.19-4.35,2.6c-1.88-0.51-3.85-2.2-5.67-0.89c-5.26,3.78-9.68,2.47-14.68-0.88
		c-3.52-2.36-8.02-3.09-12.47-2.63c-1.76,0.18-3.36-0.24-4.2-1.98c-0.62-1.28-0.57-2.64,0.48-3.7c1.43-1.45,3.01-0.81,4.6-0.18
		c6.09,2.4,12.33,1.99,18.59,0.87c0.32-0.06,0.69-0.42,0.92-0.33c5.21,2.09,10.1,5.06,15.88,5.6
		C401.05,432.37,401.33,433.39,401.59,433.86z"/>
	<path class="st0" d="M204.13,379.41c3.78,4.06,8.47,0.94,13.11,0.45c1.56-0.17,2.24,1.15,3.09,2.18c4.38,5.29,8.9,10.21,16.76,9.69
		c2.04-0.13,3.34,1.66,2.85,3.82c-0.52,2.32-2.27,3.64-4.47,2.34c-6.32-3.74-13.02-5.84-20.38-5.78c-1.46,0.01-2.51-0.85-3.3-1.97
		c-2.07-2.93-4.22-5.48-8.42-5.16c-1.63,0.13-2.62-1.32-2.52-3.1C200.92,380.3,201.85,379.51,204.13,379.41z"/>
	<path class="st0" d="M338.05,469.8c1.55,0.07,2.81,0.86,3.37,2.39c2.22,6.06,7.23,9.41,12.34,12.54c2.36,1.44,3.65,3.06,3.85,5.86
		c0.21,2.96,0.58,5.88,3.41,7.92c1.46,1.05,1.79,3.05,0.08,4.29c-1.82,1.33-3.11-0.07-4.02-1.56c-0.86-1.41-1.23-3.54-2.95-3.83
		c-6.82-1.14-8.55-6.12-9.99-11.85c-1.01-4.03-3.06-7.7-7.16-9.77c-1.39-0.7-1.94-2.27-1.55-3.9
		C335.74,470.62,336.64,469.95,338.05,469.8z"/>
	<path class="st0" d="M303.01,355.9c3.68-7.25,3.49-14.69,1.07-22.24c-0.1-0.32-0.42-0.69-0.34-0.92
		c2.09-5.51,4.56-10.89,3.93-17.07c-0.09-0.89,1.39-1.37,2.44-0.87c1.32,0.63,2.26,1.97,1.85,3.23c-1.48,4.51,0.69,8.05,2.65,11.7
		c0.97,1.82,0.52,3.46-0.46,5.16c-3.36,5.85-5.63,12.01-4.93,18.94c0.18,1.73-0.08,3.42-1.9,4.22c-2.25,0.98-3.33-0.63-4.36-2.21
		C302.98,355.84,303.01,355.9,303.01,355.9z"/>
	<path class="st0" d="M396.11,409.52c-3.31-0.64-5.15,1.97-7.31,3.59c-1.91,1.43-3.54,1.94-5.92,1.19
		c-5.7-1.79-11.5-1.58-17.23,0.07c-1.62,0.46-3.22,1.1-4.67-0.35c-0.79-0.79-0.9-1.75-0.39-2.74c0.95-1.84,2.7-1.62,4.36-1.67
		c6.61-0.21,12.94-1.43,18.07-5.96c1.78-1.57,2.97-0.48,4.46,0.15c3.14,1.34,6.14,3.54,9.81,1.23c1.06-0.67,2.29-0.14,3.07,0.93
		c0.52,0.71,0.74,1.53,0.22,2.32C399.47,409.96,397.83,409.89,396.11,409.52z"/>
	<path class="st0" d="M218.57,449.76c5.71-0.29,11.29-0.9,15.37-5.67c1.07-1.26,2.48-1.72,4.04-1.06c1.32,0.56,2.18,1.65,2.07,3.11
		c-0.13,1.69-1.34,2.62-2.88,3.06c-6.84,2-12.84,5.4-17.65,10.73c-1.03,1.14-2.31,1.4-3.62,1.1c-3.81-0.88-7.42-1.56-10.59,1.85
		c-0.99,1.06-2.64,0.44-3.21-1.07c-0.62-1.64,0.12-3.39,1.64-3.66c3.81-0.66,5.51-3.33,7.18-6.27
		C212.72,448.68,215.85,449.89,218.57,449.76z"/>
	<path class="st0" d="M217.55,485.5c-1.52-0.17-2.4-0.85-2.74-2.09c-0.46-1.69,0.21-3.29,1.74-3.66c4.11-0.98,4.79-4.07,5.23-7.47
		c0.4-3.12,1.84-4.76,5.27-5.38c6.06-1.09,11.9-3,15.14-9.08c0.68-1.28,1.96-1.75,3.42-1.4c1.24,0.3,1.99,1.2,2.36,2.35
		c0.47,1.47-0.11,2.69-1.44,3.33c-6.57,3.16-11.21,8.1-14.08,14.78c-0.29,0.68-1.07,1.55-1.7,1.63c-4.75,0.56-8.96,1.93-11.58,6.37
		C218.9,485.32,217.97,485.35,217.55,485.5z"/>
	<path class="st0" d="M248.06,379.85c-0.18,1.35-0.86,2.25-2.04,2.7c-1.54,0.59-2.5-0.39-3.42-1.38c-3.44-3.67-7.26-7-11.84-9
		c-4.36-1.91-9.01-2.95-10.46-8.49c-0.47-1.78-2.86-1.39-4.28-2.18c-1.44-0.8-2.27-1.93-2.09-3.63c0.11-1.05,0.63-1.91,1.61-2.36
		c1.71-0.78,3.03,0.07,3.8,1.42c1.63,2.85,4.24,2.95,6.94,2.71c3.61-0.33,5.67,0.89,7.13,4.51c2.34,5.82,6.27,10.52,12.48,12.81
		C247.21,377.45,248.11,378.37,248.06,379.85z"/>
	<path class="st0" d="M338.66,338.75c0.47,2.05-1.19,2.85-2.25,4.1c-4.27,5.03-9.07,9.77-9.88,16.86c-0.16,1.4-0.93,2.52-2.43,2.83
		c-1.27,0.27-2.3-0.27-2.97-1.34c-0.79-1.25-0.83-2.74,0.16-3.72c5.52-5.49,5.81-12.35,5.35-19.46c-0.04-0.66-0.25-1.63,0.09-1.94
		c4.15-3.76,7.4-7.99,8.47-13.7c0.19-1.01,1.87-1.27,3.05-0.58c1.13,0.65,1.97,2.08,1.32,2.9
		C335.99,329.21,337.29,333.95,338.66,338.75z"/>
	<path class="st0" d="M342.01,370.88c-1.92,0.33-4.23,1.3-5.12-1.31c-0.81-2.37,1.19-3.35,2.93-4.51c5.1-3.39,6.78-8.84,7.72-14.43
		c0.46-2.73,1.27-4.63,3.92-5.7c2.09-0.84,3.4-2.5,4.15-4.68c0.42-1.21,1.09-2.45,1.98-3.35c1.23-1.26,2.9-1.82,4.45-0.48
		c1.54,1.32,0.78,3.15-0.31,3.92c-4.43,3.11-5.03,7.39-4.37,12.22c0.31,2.28-1.51,2.94-2.93,4.11c-4.92,4.05-10.96,7.18-12.45,14.25
		C341.99,370.9,342.01,370.88,342.01,370.88z"/>
	<path class="st0" d="M394.32,457.86c-0.38,2.77-1.88,3.22-4.22,2.17c-1.59-0.71-2.85-3.19-4.77-1.96
		c-6.13,3.94-10.06,0.45-14.46-3.34c-3.48-2.99-7.44-5.61-12.42-5.88c-1.55-0.08-2.73-1.23-2.88-2.98
		c-0.11-1.22,0.17-2.38,1.31-3.03c1.53-0.87,2.81-0.25,4.09,0.75c5.59,4.36,12.06,5.16,18.87,4.54c0.82-0.08,2.06-0.54,2.41-0.16
		c3.34,3.53,6.78,6.84,11.49,8.53C394.03,456.62,394.12,457.38,394.32,457.86z"/>
</g>
</svg>
