<?xml version="1.0" encoding="utf-8"?>
<!-- Generator: Adobe Illustrator 23.0.2, SVG Export Plug-In . SVG Version: 6.00 Build 0)  -->
<svg version="1.1" id="Layer_1" xmlns="http://www.w3.org/2000/svg" xmlns:xlink="http://www.w3.org/1999/xlink" x="0px" y="0px"
	 viewBox="0 0 595.28 841.89" style="enable-background:new 0 0 595.28 841.89;" xml:space="preserve">
<style type="text/css">
	.st0{fill:none;stroke:#000000;stroke-width:0.5;stroke-miterlimit:10;}
</style>
<g>
	<path class="st0" d="M467.69,307.32c-0.43,7.6,0.35,8.88,7.28,12c8.3,3.74,12.16,9.87,10.65,18.77c-0.86,5.09,0.71,8.29,5.07,9.98
		c10.93,4.22,13.86,14.83,7.3,25.01c-2.92,4.53-2.95,8.29,1.18,12.81c6.75,7.39,8.41,16.19,2.75,25.26
		c-1.44,2.31-1.33,4.38-0.21,6.56c1.14,2.22,2.38,4.39,3.68,6.52c5.09,8.39,4.33,13.79-2.88,20.29c-1.61,1.45-3.19,2.93-4.73,4.46
		c-3.45,3.44-4.62,6.91-2.57,12.02c5.47,13.6,4.12,18.08-6.82,27.46c-1.7,1.46-2.35,3.09-2.38,5.21c-0.05,3.7,0.63,7.29,1.33,10.89
		c1.54,8.02-1.33,13.58-8.73,17.02c-1.51,0.7-3.04,1.38-4.61,1.92c-4.74,1.64-7.04,4.3-6.83,9.94c0.38,10.13-6.78,15.3-15.18,18.13
		c-5.67,1.91-7.38,5.3-7.79,10.61c-0.9,11.76-4.08,14.93-15.87,16.46c-1.65,0.21-3.34,0.52-4.97,0.35
		c-6.7-0.69-10.71,1.83-13.19,8.44c-2.68,7.13-9.49,9.7-16.49,10.34c-4.36,0.4-6.2,2.43-7.25,6.12c-0.59,2.08-1.13,4.19-1.96,6.18
		c-2.84,6.79-9.02,10.1-16.15,8.49c-6.01-1.36-11.97-2.93-17.89-4.65c-2.54-0.74-4.5-0.6-6.19,1.59
		c-8.34,10.79-18.68,12.36-30.58,6.54c-2.84-1.39-5.61-0.86-8.14,0.57c-2.15,1.22-4.13,2.8-6.03,4.41c-6.7,5.67-12.81,6.17-20,1.06
		c-3.78-2.69-7.18-5.92-10.76-8.91c-2.44-2.05-4.78-2.12-7.77-0.63c-9.3,4.65-14.43,3.56-20.91-4.43c-2.41-2.97-5.19-3.32-8.44-2.7
		c-3.27,0.62-6.49,1.5-9.76,2.13c-7.59,1.48-12.82-1.32-15.96-8.53c-0.73-1.67-1.19-3.46-1.83-5.18c-1.73-4.58-4.3-6.87-9.85-5.55
		c-7.4,1.76-13.89-1.65-17.18-8.73c-2.25-4.84-5.71-6.46-10.68-6.47c-12.49-0.04-15.77-3.02-16.15-15.48
		c-0.16-5.19-1.3-8.2-7.12-9.27c-5.09-0.94-8.74-4.76-10.24-9.99c-0.87-3.03-1.84-6.14-1.96-9.24c-0.16-4.21-2.48-5.91-6.03-6.76
		c-1.78-0.42-3.6-0.69-5.4-1c-9.17-1.58-14.07-8.53-12.42-17.7c0.35-1.96,1.01-3.87,1.38-5.84c0.85-4.57,0.78-8.31-3.74-11.79
		c-7.35-5.64-8.46-11.99-4.56-20.31c2.59-5.52-1.06-8-4.44-10.7c-7.33-5.85-8.83-11.1-5.43-19.73c0.55-1.39,1.2-2.75,1.77-4.13
		c1.85-4.49,2.29-8.51-0.8-13.11c-4.08-6.08-3.77-13.13-0.38-19.54c2.54-4.81,2.27-9.07-0.05-13.75c-4.47-9-3.24-15.34,4.04-22.51
		c1.31-1.29,2.57-2.63,3.96-3.82c2.74-2.35,3.32-4.8,1.91-8.37c-3.74-9.54-0.52-19.03,8.56-23.95c5.08-2.75,6.57-6.6,6.62-11.75
		c0.03-3.32-0.43-6.65,0.41-9.95c2.49-9.75,8.5-16.09,18.25-18.62c5.02-1.3,8.63-3.42,9.98-9.04c1.16-4.81,5.66-6.93,9.98-8.21
		c5.46-1.61,8.94-4.84,10.76-10.13c4.67-13.61,14.51-19.75,28.61-19.52c4.92,0.08,8.67-1.46,12.24-5.29
		c5.83-6.24,13.21-9.26,22.17-7.29c7.39,1.63,13.51-0.41,18.69-6.48c8.76-10.26,15.95-11.53,28.26-5.43
		c6.1,3.02,11.2,3.33,17.72-0.12c9.44-5,19.8-6.4,28.85,1.86c3.72,3.39,7.02,1.56,10.5-0.18c8.89-4.42,16.11-3.88,22.17,1.81
		c1.57,1.47,2.95,3.18,4.18,4.95c2.75,3.96,5.94,5.58,11.04,4.34c7.6-1.84,13.86,1.11,18.04,7.65c2.49,3.89,5.71,5.02,10.08,4.96
		c14.31-0.21,17,1.7,21.81,15.35c1.78,5.05,4.53,7.9,10.37,8.29c8.56,0.57,14.36,5.48,15.84,14.09c0.95,5.53,4.16,7.36,9.04,8.24
		C464.73,293.4,468.23,297.83,467.69,307.32z M414.99,541.91c-4.64-2.09-5.8-8.24-11.32-9.46c4.26,6.93,8.93,13.51,13.61,20.1
		c1.1,1.55,2.46,1.7,3.82,0.5c1.62-1.43-0.19-2.28-0.73-3.33c-1.44-2.79-4.72-4.31-5.28-7.7c3.66,1.41,5.09,5.04,7.58,7.61
		c1.31,1.36,2.99,2.92,4.6,1.07c1.34-1.54-0.9-2.48-1.79-3.43c-5.33-5.68-11.16-10.88-16.05-16.99c-0.53-0.67-1.15-1.78-2.67-0.87
		C408.32,534.33,413.76,536.79,414.99,541.91z M435.48,532.11c-4.81-1.34-7.21-5.69-10.73-8.64c-3.8-3.19-7.46-6.55-11.18-9.84
		c-0.27,0.33-0.54,0.66-0.81,0.99c10.93,10.19,21.85,20.39,32.78,30.58c0.36-0.33,0.72-0.66,1.08-0.98
		c-0.64-1.24-1.27-2.49-1.91-3.73c2.04-0.2,3.1,3.05,6.25,1.54c-11.76-10.31-23.11-20.27-34.46-30.23
		c-0.28,0.32-0.57,0.65-0.85,0.97c1.82,1.66,3.65,3.31,5.45,5C426.04,522.38,431.5,526.51,435.48,532.11z M401.96,313.93
		c0.22,3.95,1.57,2.58,3.25,0.76c8.02-8.69,16.09-17.33,24.12-26.01c0.9-0.98,1.79-1.98,2.57-3.05c0.71-0.97,1.3-2.29,0.25-3.16
		c-1.43-1.19-1.96,0.57-2.62,1.32c-4.65,5.22-9.07,10.66-13.89,15.71c-4.54,4.76-7.69,10.86-13.59,14.32
		c0.25-2.38,2.15-3.65,3.54-5.25c7.41-8.52,14.85-17,22.22-25.56c0.87-1.01,2.64-2.36,0.88-3.74c-1.47-1.15-2.22,0.76-3.06,1.64
		c-3.29,3.47-5.68,7.81-9.87,10.43c1.16-4.63,5.22-7.17,7.76-10.8c0.58-0.84,2.24-1.67,0.81-2.86c-1.12-0.93-2.17,0.07-2.96,0.98
		c-8,9.15-16,18.31-23.97,27.49c-0.81,0.94-2.28,2.03-0.76,3.36c1.44,1.26,2.42-0.2,3.32-1.09c2.7-2.69,4.88-5.92,8.22-7.94
		c-0.87,4.03-4.64,5.9-6.73,9.02C400.4,311.1,398.5,312.83,401.96,313.93z M202,295.93c-2.16-0.78-3.29-2.68-4.66-4.32
		c-3.62-4.31-7.2-8.66-10.83-12.96c-1.05-1.24-2.37-1.95-3.91-0.94c-1.13,0.74-0.66,1.83-0.01,2.59c6.4,7.59,12.84,15.16,19.3,22.7
		c0.61,0.72,1.46,1.62,2.54,0.83c1.19-0.88,0.74-2.03,0.16-3.11c-0.83-1.55-2.79-2.5-2.49-4.66c2.97,0.27,3.22,4.49,7.71,4.82
		c-5.77-7.85-10.83-14.94-16.14-21.82c-1.43-1.85-2.92-6.17-5.58-3.9c-2.23,1.89,1.75,4.15,3.12,6.14
		C194.64,286.3,199.75,290.06,202,295.93z M443.94,511.86c-6.84-2.76-11.03-9.48-17.99-12.13c1.62,3.71,5.02,5.61,7.79,8.06
		c7.71,6.81,15.58,13.43,23.45,20.05c0.87,0.73,1.93,2.62,3.2,1.25c1.17-1.27,0.12-2.79-1.13-3.81c-0.64-0.53-1.41-0.93-1.96-1.53
		c-3.99-4.43-9.84-6.77-13.28-11.81c2.34,0.15,3.84,1.84,5.51,3.14c3.01,2.34,5.9,4.84,8.9,7.2c0.7,0.55,1.63,1.57,2.57,0.61
		c0.76-0.77,0.45-1.95-0.1-2.79c-0.53-0.8-1.26-1.53-2.03-2.12c-9.28-6.98-18.58-13.93-27.91-20.85c-0.65-0.48-1.44-1.6-2.48-0.33
		c0.42,2.01,2.29,2.72,3.53,3.98C435.81,504.65,440.86,507.2,443.94,511.86z M435.02,343.88c6.35-5.15,13.98-8.16,20.81-12.49
		c1.97-1.25,4.42-1.9,6.21-4.41c-6.77,1.46-34.62,17.29-35.86,20.29c3.22-0.6,5.51-3.37,8.81-3.36c-1.7,2.77-4.9,3.26-7.38,4.83
		c-0.69,0.44-1.68,0.81-1.4,1.77c0.38,1.31,1.55,1.04,2.48,0.7c1.09-0.4,2.11-0.97,3.17-1.45c9.88-4.45,19.1-10.13,28.59-15.31
		c1.92-1.05,6.21-1.68,4.78-4.24c-1.56-2.8-4.23,0.65-6.3,1.61C450.83,335.58,443.79,341.44,435.02,343.88z M163.11,313.96
		c1.83,0.08,2.92,1.41,4.17,2.46c2.91,2.44,5.75,4.97,8.75,7.3c1.29,1,2.84,3.53,4.48,1.56c1.45-1.75-1.46-2.37-2.37-3.52
		c-1.91-2.42-5.29-3.5-6.18-6.85c5.32,1.42,7.61,7.48,12.89,8.94c0.27-0.34,0.54-0.68,0.82-1.02
		c-11.69-10.53-23.38-21.06-35.07-31.59c-0.36,0.38-0.72,0.76-1.08,1.14c0.7,3.07,3.57,4.39,5.58,6.41
		c5.46,5.46,12.48,9.29,16.73,16.02c-2.11,0.03-3.12-1.72-4.46-2.86c-5.29-4.52-10.5-9.13-15.79-13.65
		c-0.76-0.65-1.63-2.2-2.83-0.75c-0.77,0.93-0.64,2.3,0.2,3.23c0.99,1.09,2.21,1.98,3.32,2.97c3.67,3.29,8.25,5.6,10.72,10.15
		c-5.29-1.88-8.55-6.56-13.1-9.46c-0.76-0.48-1.45-1.82-2.47-0.85c-0.92,0.88-0.85,2.16,0.17,3.09c1.09,1,2.32,1.85,3.43,2.83
		c4.29,3.79,9.65,6.36,12.87,11.36c-5.44-2.55-9.73-6.74-14.55-10.2c-1.12-0.8-2.35-3.05-4.07-0.75c-1.29,1.73-0.43,2.98,1.1,4.16
		c8.13,6.31,16.19,12.73,24.36,18.99c1.06,0.81,2.33,3.2,4.02,0.88c1.31-1.79-0.33-2.96-1.44-4.22c-2.86-3.2-7.3-4.72-9.32-8.8
		c4.33,1.53,7.29,4.95,10.72,7.73c0.74,0.6,1.6,1.62,2.52,0.7c0.84-0.84,0.17-1.87-0.58-2.57c-0.96-0.9-2.06-1.66-3.02-2.56
		C170.06,320.88,165.6,318.42,163.11,313.96z M412.15,312.79c2.88-4.98,7.65-8.11,11.71-11.94c3.13-2.95,6.29-5.87,9.39-8.86
		c0.97-0.94,2-2.32,0.98-3.48c-1.36-1.54-2.31,0.26-3.1,1.09c-6.41,6.7-12.76,13.46-19.11,20.22c-0.93,0.99-2.02,2.05,0.03,3.04
		c-0.05,1.74-1.59,2.43-2.51,3.56c-0.9,1.11-2.74,2.22-1.5,3.76c1.55,1.91,3.02-0.01,4.24-0.91c6.84-5.04,13.51-10.31,20.45-15.21
		c4.08-2.88,4.04-6.12,2.17-10.39c-2.47,2.14-4.46,4.2-6.77,5.79C422.37,303.42,418.53,309.62,412.15,312.79z M201,536.88
		c7.93,6.45,17.51,7.1,27.1,7.65c0.64,0.04,1.58-0.07,1.53-0.86c-0.05-0.72-0.49-1.65-1.06-2.07c-3.61-2.65-7.58-3.98-12.12-3.03
		c-5.33,1.11-10.53,0.9-15.47-1.67c-4.7-4.87-5.86-11.05-6.21-17.42c-0.4-7.3-2.73-13.28-9.92-16.39c-0.99-0.43-1.99-1.76-3.08-0.72
		c-0.95,0.9-0.26,2.2,0.13,3.28c1.36,3.74,2.5,7.59,4.21,11.17C189.75,524.44,193.48,532.09,201,536.88z M426.01,554.91
		c-4.98,0.37-7.56,3.82-9.66,7.72c-2.37,4.4-4.6,8.87-6.83,13.34c-3.72,7.46-9.34,12.15-17.78,13.81
		c-6.13,1.21-12.22,1.4-18.37,1.35c-10.86-0.09-19.72,3.88-26.56,12.42c-2.18,2.72-4.9,5-7.12,7.69c-4.19,5.05-9.7,6.26-15.75,5.45
		c-4.96-0.67-9.76-2.05-13.97-5.02c-2.72-1.92-5.52-3.73-8.73-4.78c-12.26-3.99-23.93-2.01-35.34,3.29
		c-12.22,5.67-19.08,3.25-25.32-8.74c-0.46-0.89-0.88-1.8-1.3-2.7c-3.35-7.07-9.18-10.24-16.77-10.56c-1.83-0.08-3.66-0.12-5.49-0.1
		c-1.82,0.02-3.64,0.16-5.47,0.24c11.99-1.11,19.59,4.63,24.62,15.04c1.79,3.71,4.16,7.24,6.77,10.44
		c4.17,5.13,9.21,6.14,15.18,3.39c3.17-1.46,6.18-3.27,9.25-4.93c14.59-7.89,28.66-9.43,41.7,3.21c1.29,1.25,2.94,2.2,4.55,3.04
		c10.07,5.26,19.28,4.11,26.49-3.43c3.91-4.09,7.81-8.22,11.3-12.66c4.72-6.01,11.01-8.28,18.26-8.78
		c6.37-0.44,12.61,0.71,18.87,1.51c10.28,1.31,16.99-2.28,21.13-11.81c1.65-3.81,2.99-7.76,4.33-11.7
		c2.32-6.8,6.03-12.58,11.97-16.78c6.34-1.23,12.76-2.21,19.01-3.68c13.22-3.1,21.92-7.65,19.73-24.42
		c-0.06-0.49-0.06-0.99-0.09-1.49c-2.21,14.8-12.55,21.18-25.56,25.06C434.66,551.65,429.96,552.26,426.01,554.91z M360.55,530.93
		c-0.3-5.13,4.89-6.68,4.55-11.03c-0.08-1.05,2.05-1.19,3.46-0.66c1.38,0.52,1.95,2.37,3.93,2.22c0.1-0.98,0.18-1.95,0.31-2.92
		c0.71-5.15,8.4,1.2,8.64-5.19c0.02-0.57,2.41,0.29,3.48,1.04c1.35,0.94,2.6,2.03,4.29,3.38c0.69-1.68,0.27-4.45,2.7-4.13
		c2.2,0.29,1.83-1.23,2.68-2.19c2.85-3.21,0.75-7.06,1.83-10.55c0.81-2.62,1.24-6.97-2.68-9.54c-1.79-1.18-1.95-3.87,1.24-4.14
		c1.98-0.17,1.92-0.51,1.6-2.28c-0.69-3.77,1.16-5.17,4.81-3.87c1.54,0.55,2.92,1.51,4.49,2.34c0.13-1.79-0.55-3.62,1.13-5.1
		c5.19-4.57,5.83-6.84,3.27-12.74c-1.06-2.45-0.59-4.02,1.83-4.6c3.81-0.9,5.02-4.65,5.42-7.05c0.4-2.4,3.96-3.83,2.39-5.58
		c-3.69-4.12-0.74-5.35,2.33-6.86c-1.13-1.72-4.39-2.06-3.31-4.98c0.93-2.5,4.08-1.81,5.69-3.44c-4.81-6.84-3.53-10.51,4.22-12.41
		c0.32-0.08,0.67-0.05,0.99-0.14c1.97-0.55,2.16-2.55,2.64-3.93c0.61-1.79-1.6-1-2.39-1.62c-3.02-2.35-4.57-6.66-9.19-6.9
		c-0.1,0-0.28-0.29-0.25-0.4c0.93-3.56-7.26-5.14-2.11-9.64c0.02-0.02-0.3-0.63-0.53-0.69c-2.92-0.73-5.37-1.58-2.89-5.33
		c0.56-0.84-0.68-0.79-1.19-1.06c-5.54-2.94-5.54-3.49-0.07-7.24c2.09-1.43,2.38-5.22,0.24-6.26c-4.82-2.35-7.04-7.51-11.51-10.21
		c-0.96-0.58-0.78-1.74-0.43-2.75c0.26-0.75,0.8-2.09-0.13-2.12c-3.44-0.12-5.46-2.84-8.22-4c-5.76-2.42-6.08-2.93-1.72-7.19
		c2.88-2.81,1.74-6.7-2.34-7.76c-1-0.26-2.61-0.63-2.25-1.39c1.71-3.55-2.78-5.75-1.64-9.2c0.74-2.24-2.92-2.88-2.77-5.45
		c0.03-0.47-2.17,0.85-3.38,1.24c-1.5,0.48-4.01,0.85-4-0.31c0.03-3.99-2.83-4.3-5.35-5.4c-1.09-0.47-0.06-3.22-2.17-2.7
		c-7.26,1.79-5.29-3.05-4.09-6.18c1.54-4.03-1.09-5.24-3.51-5.19c-5.34,0.1-10.87-1-16.02,1.43c-1.26,0.59-2.24,0.17-3.09-0.82
		c-0.39-0.45-1.11-1.3-1.45-0.36c-1.41,4.03-5.15,4.39-8.32,5.85c-1.48,0.68-2.2,3.3-4.44,2.02c-1.88-1.07-1.41-3.17-1.57-4.97
		c-0.12-1.36,0.84-3.71-1.14-3.81c-3.83-0.2-3.42-3.28-4.3-5.53c-2.08,1.22-2.95,4.34-5.83,3.38c-1.88-0.63-1.61-2.65-1.88-4.29
		c-0.21-1.26,1.19-3.27-1.27-3.61c-1.86-0.26-3.13,0.8-3.9,2.5c-1.28,2.85-3.84,2.38-6.31,3.1c-4.97,1.45-4.07-2.2-5.25-4.34
		c-1.22-2.2-3.28-4.7-5.4-4.64c-2.58,0.07-1.96,3.27-2.13,5.38c-0.25,3.18-0.99,5.71-4.73,2.56c-0.63-0.53-1.36-1.29-2.1-0.33
		c-3.19,4.13-4-0.87-5.91-1.62c-0.75,2.01-1.45,5.73-3.76,3.79c-3.11-2.61-7.18-2.49-10.22-5.17c-0.84,1.6-2.41,3.06-2.97,4.31
		c-1.83,4.12-8.22,5.63-6.54,11.75c0.63,2.29,1.2,5.26-1.34,6.88c-2.37,1.51-3.62-1.73-5.8-2.09c-1.13,1.72-1.44,5.2-4.63,3.52
		c-2.96-1.56-5.25-4.9-9.21-2.19c-0.23,0.16-1.06-0.71-1.67-0.95c-1.12-0.44-7.8,3.14-7.7,4.17c0.24,2.53,1.09,5.29-3.2,4.84
		c-4.02-0.43,0.02,4.63-3.25,4.86c-1.1,0.08-2-0.17-2.75-0.84c-1.37-1.21-2.85-2.37-3.93-3.81c-2.77-3.68-3.52,0.75-5.24,1.18
		c1.84,3.28-2.76,7.63,1.85,10.58c1.19,0.76,1.64,2.61,0.66,4.09c-1.05,1.58-2.59,1.01-4.07,0.67c-0.72-0.17-1.38-0.99-2.26-0.34
		c1.53,3,6.18,5.29,4.11,8.91c-1.97,3.45-4.79-1.15-7.65-0.97c0.61,6.5-3.43,4.2-7.06,3.24c1.08,2.96,2.39,6.04-2.48,5.93
		c-1.61-0.04-1.44,0.66-1.19,1.82c0.46,2.07,0,4.24,1.17,6.29c1.29,2.28-0.01,3.73-2.26,4.53c-4.92,1.76-6.87,6.62-3.6,10.82
		c2.51,3.23,2.81,5.05-1.01,6.9c-0.49,0.24-1.06,0.94-1.08,1.45c-0.16,4.5-3.82,6.81-5.83,10.14c-1.81,3-1.42,7.32-6,8.37
		c0.14,0.3,0.47,0.71,0.38,0.9c-1.87,3.68,2.57,6.04,2.01,9.07c-0.38,2.03-0.07,2.14,1.55,2.36c1.47,0.2,2.93,0.63,4.35,1.1
		c1.25,0.42,2.74,0.9,2.85,2.46c0.1,1.49-1.18,2.2-2.3,3c-0.97,0.69-3.38,0.42-2.74,2.1c0.69,1.81-0.41,4.51-0.1,4.58
		c3.24,0.7,3.86,5.05,6.33,5.36c5.96,0.74,5.09,3.27,2.35,6.76c2.35,0.91,5.56-0.06,6.16,2.87c0.54,2.65-2.19,3.84-3.83,5.39
		c-0.93,0.89-2,1.64-3.16,2.57c3.2,0.9,3.7,0.9,5.21,6.67c1.19,4.54,3.45,9.4,0.01,14.08c-1.62,2.2,0.74,3.73,1.22,5.44
		c0.46,1.62,2.13-0.28,3.21-0.66c4.31-1.55,5.21-0.7,4.56,4.47c1.84,0.12,4.57-2.59,5.24,0.99c0.34,1.81-1.03,3.93-1.84,6.63
		c4.19-2.54,5.21,2.06,7.33,2.39c5.06,0.77,3.76,3.05,2.37,5.82c-1.75,3.49,0.02,7.62,3.87,7.88c3.52,0.24,3.17,1.99,2.75,4.35
		c-0.18,1.02-1.73,2.25,0.57,3.12c4.94,1.87,9.52,2.23,13.92-1.43c2.41-2,4.63-1.99,5.42,1.74c0.19,0.88-0.29,2.22,1.29,2.2
		c5.88-0.09,3.76,3.52,2.95,6.43c-0.44,1.59-1.6,3.39,1.01,3.93c4.37,0.9,8.94,2.81,12.58-1.89c1.36-1.75,3.29-2.89,4.67-0.07
		c1.08,2.2,1.51,0.58,2.36-0.03c3.37-2.43,4.72-1.7,5.26,2.6c0.2,1.62-0.59,3.39,0.49,4.84c0.69,0.93,12.19,1.74,12.86,0.8
		c4.71-6.58,5.15-0.02,6.9,2.26c4.1-2.56,9.71,0.14,11.5,5.35c0.56,1.62,0.05,4.4,2.17,4.49c1.97,0.08,3.97-1.32,5.02-3.54
		c0.98-2.07,3.23-3.33,3.86-5.75c0.25-0.96,1.28-2.04,2.25-1.42c2.61,1.68,2.89-0.33,3.02-1.88c0.31-3.76,3.48-3.41,5.78-4.25
		c2.79-1.02,3.25,1.62,4.31,3.09c0.9,1.24,1.38,2.9,3.15,0.92c0.58-0.65,1.67-1.09,2.25-0.48c3.76,4.03,6.15-0.83,7.06-2.15
		c2.02-2.92,3.48-3.69,6.18-1.11c1.36-7.12,6.76-9.75,12.31-6.16C354.8,527.48,356.89,526.12,360.55,530.93z M463.2,515.36
		c0.18-12.39,5.8-20.75,17.17-25.32c1.85-0.74,3.62-1.71,5.35-2.71c9.61-5.58,12.05-12.83,8.13-23.24
		c-1.65-4.37-3.32-8.7-5.41-12.88c-5.71-11.43-6.19-23.68,5.98-34.12c11.26-9.67,11.04-22.35,0.45-32.73
		c-3.08-3.02-6.64-5.55-10-8.28c-9.31-7.56-10.47-11.71-6.6-23c1.67-4.87,4.17-9.46,5.01-14.63c1.2-7.41-1.38-12.48-7.93-16.11
		c-4.88-2.7-10.24-3.95-15.47-5.58c-12.61-3.92-16.4-9.1-16.11-22.27c0.04-1.83,0.14-3.66,0.15-5.5
		c0.05-11.28-5.7-17.34-17.04-17.75c-5.66-0.2-11.33,0.02-17-0.09c-9.63-0.18-15.49-4.55-18.55-13.77c-0.94-2.84-1.82-5.71-2.6-8.61
		c-3.85-14.19-15.67-17.65-29.77-9.35c2.07,0.53,3.95-0.44,5.9-0.7c9.48-1.29,13.99,1.62,16.74,10.85c0.57,1.91,1.04,3.86,1.47,5.81
		c2.32,10.45,9.07,15.98,19.44,17.22c7.1,0.85,14.25,1.21,21.35,2c6.62,0.74,10.84,4.44,13,10.8c1.84,5.41,2.55,11.03,3.5,16.6
		c1.53,8.92,6.02,14.95,14.68,18.55c17.66,7.34,22.85,17.58,19.48,36.45c-0.35,1.96-0.71,3.95-1.31,5.84
		c-1.8,5.68-0.06,10.11,4.5,13.66c4.2,3.28,8.59,6.35,12.52,9.93c6.58,5.99,7.78,12.26,3.85,20.29c-1.96,4.01-4.59,7.73-7.12,11.44
		c-4.94,7.26-6.57,15.04-5.02,23.75c1.64,9.2,5.73,17.72,6.83,27.08c0.94,7.96-1.62,14.09-7.91,18.7
		c-3.35,2.46-6.93,4.63-10.52,6.74c-4.99,2.93-6.94,7.42-7.11,12.92C463.14,510.03,463.2,512.7,463.2,515.36z M119.42,497.02
		c-3.23-3.22-6.21-6.31-9.06-9.59c-4.48-5.15-5.61-10.63-3.24-17.12c1.94-5.3,3.65-10.74,4.84-16.25
		c2.18-10.11,0.86-19.13-7.24-26.97c-12.26-11.86-11.96-15.11-0.65-28.23c5.84-6.77,9.44-14.38,8.72-23.69
		c-0.63-8.23-2.82-16.08-5.62-23.72c-2.4-6.55-1.33-11.67,4.17-15.92c0.52-0.4,1.56-0.75,1.05-1.86
		c-8.69,4.15-11.61,10.42-9.25,19.52c1.1,4.25,3.38,7.95,5.2,11.86c5.37,11.53,3.29,21.72-6.21,30.13c-1.5,1.32-3.08,2.55-4.51,3.94
		c-8.57,8.29-9.92,23.53,2.91,31.07c9.02,5.3,12.09,14.32,9.83,24.59c-1.38,6.27-4.35,11.81-7.33,17.41
		c-4.31,8.09-1.85,15.52,6.23,19.72C112.62,493.66,116.03,495.32,119.42,497.02z M194.53,265.71c6.27-5.12,9.84-12.39,14.4-18.88
		c3.77-5.36,8.83-7.65,15.12-8.39c8.06-0.94,15.57,1.49,22.98,3.73c8.95,2.7,17.01,1.54,24.95-2.95c6.37-3.61,12.72-7.3,19.32-10.44
		c13.7-6.53,22.41-4.97,32.65,6.18c6.01,6.55,12.9,9.19,22.57,7.31c-9.91,0.46-15.37-4.69-20.14-11.38
		c-8.86-12.44-20.68-15.29-33.97-7.79c-6.77,3.83-12.86,8.84-19.36,13.16c-9.6,6.38-19.85,6.96-30.52,3.01
		c-3.12-1.16-6.26-2.29-9.45-3.22c-13.5-3.95-24.51,0.85-30.91,13.26C199.42,254.62,197.8,260.47,194.53,265.71z M372.56,596.07
		c-9.03-1.28-16.43,3.24-22.11,11.41c-1.55,2.23-2.2,3.63,1.35,4.38c5.86,1.24,11.62,2.92,17.46,4.2
		c4.97,1.09,10.19-1.55,12.57-6.02C388.18,598.12,387.23,596.46,372.56,596.07z M163.88,272.61c7.37-1.21,14.08-2.13,20.7-3.49
		c2.9-0.6,5.66-2.03,7.43-4.7c3.06-4.6,4.9-9.8,7.28-14.74c0.57-1.18,0.74-2.05-1.05-2.51c-9.11-2.34-22.78,3.23-27.34,11.45
		C168.5,262.95,166.45,267.46,163.88,272.61z M268.13,615.37c2.99,2.63,5.92,5.27,8.92,7.83c1.38,1.18,2.85,2.29,4.36,3.31
		c5.09,3.44,10.92,3.27,15.63-0.68c2.69-2.25,5.35-4.52,8.56-5.91c2.69-1.16,2.29-1.97,0.35-3.65
		C294.43,606.36,281.15,605.93,268.13,615.37z M240.21,234.11c15.88,8.9,29.66,4.77,42.08-8.23c-3.2-1.37-6.43-2.67-9.59-4.13
		c-9.5-4.38-16.21-3.12-23.2,4.72C246.92,229.36,244.27,232.05,240.21,234.11z M117.64,327.51c1.67,0.49,2.67-0.17,3.72-0.63
		c11.08-4.87,20.55-20.25,20.03-32.41c-0.05-1.24-0.35-1.7-1.7-1.7c-9.9-0.01-20.64,10.2-21.31,20.52
		C118.06,318.05,118.65,322.85,117.64,327.51z M362.64,297.34c-9.36-19.13-35.69-19.09-46.49-11.39
		C330.11,296.21,346.08,297.4,362.64,297.34z M204.48,589.56c0.04-0.15,0.09-0.3,0.13-0.46c-1.99,0.15-3.98,0.22-5.95,0.45
		c-8,0.94-12.58-1.81-15.29-9.52c-1.1-3.13-1.75-6.42-2.7-9.6c-3.12-10.46-10.86-18.95-22.5-18.36c-2.61,0.13-5.28-0.58-7.91-0.98
		c-8.51-1.29-11.13-3.75-12.6-12.3c-1.13-6.55-1.97-13.15-2.96-19.73c-1.17-7.82-4.09-14.6-11.15-18.94
		c5.97,5.72,8.75,12.76,8.92,20.99c0.1,4.65,0.45,9.31,0.9,13.94c0.45,4.65,1.14,9.39,4.3,13.06c2.99,3.48,7.13,4.46,11.69,4.59
		c16.28,0.49,21.1,4.3,25.57,19.69c0.51,1.76,0.84,3.58,1.45,5.29c3.44,9.62,7.45,17.53,22.3,13.18
		C200.56,590.32,202.54,589.99,204.48,589.56z M213.23,591.19c-1.97-0.14-4.75,0.21-7.51,0.86c-1.93,0.46-2.49,1.21-1.55,3.11
		c1.54,3.11,2.8,6.36,4.34,9.48c2.92,5.91,6.83,7.82,13.42,6.53c3.73-0.73,7.39-1.85,11.13-2.53c2.19-0.4,2.23-1.26,1.54-3.05
		C231.11,596.47,223.69,591.21,213.23,591.19z M129.93,522.16c0.15-10.85-4.52-18.49-13.41-23.74c-3.1-1.83-5.4-2.85-5.44,2.47
		c-0.02,2.76-1.17,5.5-1.63,8.27c-1.49,8.99,2.25,14.37,11.16,16.14c1.46,0.29,3.1,0.08,4.4,0.67
		C129.96,528.23,130.73,525.97,129.93,522.16z M415.37,577.08c5.59-0.88,11.2-0.27,16.78-1.34c4.83-0.93,7.86-3.41,8.88-8.12
		c0.77-3.55,1.13-7.18,1.76-10.77c0.35-1.99-0.38-2.61-2.38-2.62C426.99,554.21,416.82,563.34,415.37,577.08z M505.97,433.09
		c-0.17-6.02-4.67-10.11-6.89-15.22c-0.62-1.43-1.61-0.29-2.39,0.3c-10.13,7.65-12.73,20.23-6.68,31.51
		c1.37,2.56,2.12,2.82,4.05,0.41c2.47-3.09,5.37-5.85,8.22-8.61C504.68,439.15,506.09,436.5,505.97,433.09z M499.16,364.33
		c-0.07-6.26-2.08-9.86-6.18-12.24c-2.29-1.33-4.72-2.49-6.86-4.02c-2.21-1.58-3.1-0.85-3.94,1.37c-1.23,3.27-2.53,6.48-3.24,9.93
		c-0.84,4.09,0.04,7.68,2.95,10.55c2.71,2.68,5.74,5.04,8.65,7.51c0.91,0.77,2.36,1.61,2.89,0.09
		C495.18,372.53,498.86,368.29,499.16,364.33z M466.3,515.53c0,1.33,0.04,2.66-0.01,3.99c-0.13,3.88,1.34,4.75,4.76,2.82
		c2.31-1.3,4.85-2.17,7.23-3.34c5.81-2.85,8-7.53,6.76-13.92c-0.6-3.09-1.11-6.22-1.38-9.35c-0.25-3.01-1.32-3.67-4.18-2.52
		C470.34,496.92,466.28,503.6,466.3,515.53z M400.44,248.08c-2.79,0-4.79,0.02-6.78-0.01c-1.31-0.02-2.08,0.05-1.94,1.9
		c0.87,11.79,8.07,18.58,20.16,18.84c8.32,0.18,8.32,0.18,5.44-7.21c-0.18-0.46-0.35-0.93-0.51-1.41
		C413.63,250.38,410.08,247.88,400.44,248.08z M345.49,239.82c4.3,0.13,8.63-2.21,13.18-3.69c1.25-0.41,1.72-1.17,1.03-2.67
		c-5.56-12.1-19.88-15.55-30.6-7.35c-1.07,0.82-1.56,1.42-1.01,2.84C330.1,234.15,338.89,239.95,345.49,239.82z M246.12,287.11
		c-12.47-0.23-22.63,7.52-25.93,19.25c-0.78,2.76-0.03,3.21,2.56,2.77c10.32-1.77,19.4-5.85,26.4-13.87
		c1.82-2.09,6.03-4.04,5.15-6.07C253.09,286.37,248.76,287.42,246.12,287.11z M429.76,383.69c-1.26,10.18-0.18,13.31,6.33,19.62
		c2.39,2.32,4.88,4.53,7.17,6.94c4.92,5.15,5.46,10.74,1.8,16.86c-2.08,3.48-4.92,6.23-8.05,8.77c-3.82,3.1-6.02,7.06-5.65,12.15
		c0.1,1.34,0.16,3.06,1.38,3.54c1.65,0.66,2.07-1.29,2.74-2.29c4.22-6.4,7.65-13.21,11-20.1c4.82-9.91,3-19.02-2.37-27.85
		C440.3,395.03,434.84,390.07,429.76,383.69z M103.19,464.96c6.8-9.36,6.01-23.75-1.35-30.06c-5.1-4.38-5.08-4.37-7.4,2.05
		c-0.85,2.34-2.01,4.59-2.71,6.97c-1.52,5.17-0.87,9.91,3.47,13.62C97.96,459.89,100.91,462,103.19,464.96z M95.94,396.78
		c3.49-2.74,6.41-5.49,8.75-8.73c3.38-4.67,4.69-10.12,3.28-15.61c-2.58-10.1-3.7-10.27-10.96-3.05
		c-7.31,7.27-8.15,12.48-3.59,21.46C94.32,392.61,94.98,394.49,95.94,396.78z M465.08,307.77c0.21-9.68-1.33-11.64-10.88-13.94
		c-1.77-0.43-3.55-0.86-5.28-1.41c-1.62-0.52-2.47-0.28-2.64,1.65c-0.63,7.2,1.47,16.13,10.01,19.11
		C465.02,316.21,464.89,316.58,465.08,307.77z M166.2,576.45c1.86,0.19,3.51,0.31,5.15,0.54c1.24,0.17,1.73-0.11,1.78-1.51
		c0.31-8.3-6.05-16.8-14.13-18.74c-6.74-1.62-6.73-1.63-6.12,5.49c0.17,1.98,0.19,3.97,0.28,5.96c0.23,4.98,3.24,7.43,7.79,8.21
		C162.72,576.7,164.59,576.45,166.2,576.45z M413.62,492.52c-4.41,2.05-5.4,5.27-5.98,8.51c-0.69,3.92-1.13,7.91-1.37,11.88
		c-0.87,14.78-4.25,17.83-19.2,17.08c-0.66-0.03-1.33-0.05-1.99-0.14c-6.2-0.9-10.53,2.14-14.1,6.71c-0.47,0.6-1.05,1.58-0.85,2.14
		c0.41,1.21,1.66,0.76,2.59,0.62c8.76-1.32,17.28-3.47,25.34-7.23c3.1-1.45,5.79-3.37,7.21-6.59
		C409.77,515.23,411.81,504.34,413.62,492.52z M429.63,368.43c0.05-7.77-7.8-18.13-15.07-20.6c-3.27-1.11-2.9,0.62-2.37,2.7
		c1.84,7.23,3.58,14.47,8.77,20.28c1.93,2.15,3.54,6.25,6.27,5.28C429.47,375.28,429.24,370.87,429.63,368.43z M347.43,557.53
		c6.9-0.01,13.42-5.72,14.29-12.31c0.29-2.21-1.02-2.21-2.36-2.07c-7.09,0.73-14.31,1.06-20.64,4.93c-1.67,1.02-4.19,1.89-4.28,3.84
		c-0.1,2.27,2.81,2.37,4.43,3.29C341.48,556.7,344.35,557.61,347.43,557.53z M435.73,473.01c-0.66-3.81-1.94-7.04-3.28-10.27
		c-1.09-2.64-2.43-2.34-3.87-0.36c-3.13,4.3-6.58,8.42-8.73,13.32c-1.24,2.82-3.67,6.72-1.65,8.72c1.97,1.96,5.93-0.37,8.7-1.68
		C431.2,480.71,434.76,477.81,435.73,473.01z M238.19,547.16c5.47,13.42,13.43,16.68,23.21,10.14c3.49-2.33,3.51-3.61-0.06-5.49
		C254.25,548.06,246.55,547.48,238.19,547.16z M137.79,316.38c2.81-2.94,4.36-6.48,5.8-10.15c2.4-6.11,2.66-12.69,4.48-18.93
		c1.36-4.68,3.92-7.37,9-7.9c6.45-0.68,12.86-1.74,19.25-2.88c3.72-0.66,7.42-1.63,11.27-4.91c-5.04,0.72-8.84,1.12-12.58,1.82
		c-7.82,1.46-15.93,1.72-23.14,5.75c-3.07,1.72-5.08,3.94-6.07,7.45C142.99,296.51,142.08,306.88,137.79,316.38z M103.93,412.12
		c-2.02,0.5-5.02-1.02-5.16,1.8c-0.14,2.88,2.98,2.53,5.01,2.68c4.13,0.29,8.27,0.25,12.41,0.71c8.9,0.98,17.83,1.6,26.76,2.26
		c1.35,0.1,3.41,0.44,3.4-1.79c-0.01-1.8-1.83-1.6-3.09-1.72C130.09,414.71,116.89,413.41,103.93,412.12z M237.31,280.23
		c-0.32-0.87-0.69-1.97-1.14-3.04c-4.32-10.1-8.63-20.2-13-30.28c-0.52-1.21-1.3-2.32-2.07-3.4c-0.61-0.86-1.47-1.42-2.57-0.82
		c-1.1,0.61-1.07,1.6-0.67,2.6c1.11,2.78,2.21,5.57,3.41,8.32c3.99,9.15,8.01,18.29,12.08,27.4c0.42,0.94,0.77,2.51,2.4,1.87
		C236.7,282.5,237.25,281.58,237.31,280.23z M206.96,255.79c-2.01,0.06-3.17,3.92-1.83,6.2c5.22,8.87,10.48,17.71,15.8,26.52
		c0.67,1.11,1.04,3.31,3.12,2.21c1.76-0.93,1.8-2.5,0.82-4.26c-5.23-9.44-10.39-18.92-15.62-28.36
		C208.72,257.13,208.23,255.96,206.96,255.79z M242.03,276.51c-0.23-0.65-0.55-1.6-0.9-2.52c-3.08-8.07-6.15-16.13-9.27-24.19
		c-0.96-2.47-1.84-5-3.09-7.32c-1.06-1.97-3.25-1.91-4.83-1c-1.66,0.95-0.1,2.37,0.37,3.46c3.12,7.33,6.31,14.64,9.49,21.94
		c1.52,3.5,3.05,7,4.63,10.48c0.43,0.94,1.09,1.71,2.32,1.32C241.63,278.38,242.13,277.79,242.03,276.51z M176.45,491.98
		c-1.6-10.31-4.57-19.57-10.18-28.53C160.42,474.72,162.43,483.38,176.45,491.98z M104.28,405.31c8,0.83,15.58,1.61,23.16,2.42
		c5.79,0.61,11.57,1.29,17.36,1.85c1.33,0.13,2.93-0.03,3.16-1.71c0.28-2.09-1.64-1.77-2.8-1.91c-11.38-1.37-22.77-2.71-34.17-3.92
		C108.52,401.77,105.88,401.78,104.28,405.31z M288.23,252.26c-0.05,0-0.11,0-0.16,0c0,4.82-0.07,9.65,0.03,14.47
		c0.04,1.85-0.73,4.66,2.06,4.85c2.72,0.18,1.95-2.75,2.06-4.24c0.75-10.45,1.15-20.91-0.16-31.35c-0.16-1.26,0.85-3.55-1.48-3.5
		c-1.98,0.05-2.35,2.03-2.35,3.81C288.23,241.61,288.23,246.94,288.23,252.26z M309.15,236.26c-0.11-0.01-0.23-0.03-0.34-0.04
		c0.05-1,0.21-2.01,0.12-2.99c-0.16-1.76,1.52-4.6-1.62-4.83c-2.9-0.21-2.43,2.92-2.57,4.59c-0.98,11.76-1.74,23.54-2.48,35.32
		c-0.08,1.22-0.54,3.26,1.04,3.46c2.16,0.27,1.79-2.11,1.95-3.34C306.64,257.73,307.87,246.99,309.15,236.26z M392.62,309.99
		c2.03,3.01,2.67,6.33,2.8,9.91c0.14,3.64,0.55,7.28,0.99,10.9c0.55,4.44,3.5,6.99,7.34,8.71c1.6,0.72,3.37,0.86,2.74-1.58
		C403.83,327.67,401.47,317.21,392.62,309.99z M280.74,259.92c0.57-6.03-0.61-11.96-0.96-17.94c-0.06-1.07,0.31-2.71-1.3-2.77
		c-1.01-0.04-2.2,0.7-3.07,1.39c-1.53,1.21-1.08,3.02-0.96,4.66c0.24,3.48,0.47,6.97,0.8,10.44c0.45,4.64,0.94,9.27,1.54,13.89
		c0.2,1.5,0.73,3.09,2.8,2.77c2.04-0.32,1.98-1.9,1.85-3.47C281.19,265.9,280.97,262.91,280.74,259.92z M105.78,424.33
		c1.82,2.44,3.42,4.64,6.56,4.19c10.21-1.46,20.54-0.48,30.77-1.54c1.52-0.16,4,0.51,4.03-1.74c0.04-2.66-2.62-2.13-4.26-1.98
		C130.67,424.4,118.39,422.17,105.78,424.33z M158.02,366.7c-2.11-2.98-4.04-3.2-5.67-3.84c-11.91-4.67-23.6-9.83-35.04-15.58
		c-1.48-0.74-3.03-1.37-4.6-1.91c-0.99-0.34-2.28-1.43-3.06,0.04c-0.76,1.42,0.16,2.55,1.43,3.27c1.3,0.73,2.62,1.46,4,2.02
		c10.31,4.16,20.62,8.35,30.99,12.36C149.56,364.41,153.23,365.26,158.02,366.7z M424.16,502.5c-0.52,0.61-1.05,1.02-1.3,1.56
		c-0.53,1.11,0.18,1.87,0.98,2.52c2.96,2.4,5.98,4.74,8.89,7.2c7.6,6.41,15.15,12.9,22.77,19.3c0.93,0.78,2.18,2.07,3.4,0.5
		c0.97-1.24-0.2-2.14-1.07-2.87c-10.48-8.92-20.98-17.82-31.48-26.71C425.73,503.49,425.02,503.09,424.16,502.5z M471.94,343.37
		c-0.42-2.89-2.31-1.53-3.61-0.9c-11.02,5.38-22.01,10.83-32.99,16.32c-1.08,0.54-3.06,1.01-2.32,2.63c0.88,1.92,2.7,0.6,3.92,0.1
		c11.21-4.58,22.12-9.79,32.72-15.64C470.67,345.31,471.82,344.93,471.94,343.37z M210.93,249.76c-0.67,0.58-1.2,0.92-1.59,1.39
		c-1.01,1.24-0.58,2.42,0.12,3.68c5.37,9.59,10.68,19.21,16.07,28.78c0.66,1.17,1.28,3.35,3.16,2.28c1.75-0.99,0.45-2.78-0.17-4
		c-5.16-10.07-10.16-20.24-16.05-29.92C212.06,251.29,211.56,250.66,210.93,249.76z M158.45,476.24c-6.84,1.83-13.2,3.48-19.53,5.25
		c-6.89,1.92-13.76,3.91-20.62,5.96c-0.99,0.29-2.63,0.45-2.23,2.09c0.35,1.45,1.65,2.09,3.11,1.92c1.14-0.13,2.28-0.48,3.37-0.85
		c11.04-3.75,22.07-7.5,33.08-11.3C156.64,478.96,157.99,478.83,158.45,476.24z M429.51,354.53c1.25,1.05,2.26,0.42,3.05,0.03
		c11.92-5.83,23.81-11.73,35.7-17.61c1.33-0.66,2.35-1.5,1.3-3.07c-1.23-1.85-2.56-0.68-3.86,0.01
		c-10.85,5.74-21.71,11.46-32.53,17.24C431.78,351.88,430.05,352.38,429.51,354.53z M160.34,363.7c0.17-0.39,0.34-0.79,0.51-1.18
		c-5.86-2.89-11.7-5.82-17.59-8.65c-9.12-4.38-18.26-8.71-27.42-13c-1.29-0.61-3.15-1.52-3.82,0.47c-0.56,1.65,1.44,1.88,2.57,2.4
		c9.94,4.59,19.86,9.24,29.87,13.67C149.67,359.71,155.05,361.62,160.34,363.7z M189.93,317.85c-0.37-0.51-0.6-0.97-0.95-1.3
		c-10.45-9.98-19.91-20.99-31.3-29.99c-0.97-0.77-2.39-2.06-3.43-0.55c-0.97,1.41,0.74,2.36,1.63,3.2
		c7.76,7.28,15.56,14.5,23.36,21.74c2.68,2.49,5.35,4.99,8.08,7.42c0.43,0.38,1.19,0.52,1.79,0.51
		C189.38,318.87,189.65,318.22,189.93,317.85z M221.55,293.56c-5.75-9.87-11.24-19.34-16.81-28.75c-0.79-1.33-1.74-3.23-3.85-1.66
		c-1.86,1.38-0.91,2.87,0.03,4.34c4.9,7.71,9.78,15.43,14.66,23.14C216.78,292.53,218.17,294.11,221.55,293.56z M354.09,283.23
		c6.38-13.36,12.44-25.85,17.65-38.73c0.41-1,0.97-2.5-0.69-2.92c-1.73-0.44-2.12,1.19-2.68,2.36
		c-5.19,10.97-10.06,22.08-14.39,33.42C353.44,278.81,352.27,280.26,354.09,283.23z M111.05,351.16c-0.32,3.25,1.24,4.44,3.16,5.17
		c12.89,4.84,25.81,9.64,38.73,14.4c1.11,0.41,2.77,1.57,3.32-0.43c0.47-1.71-1.38-2.02-2.57-2.43
		C139.41,362.98,125.3,357.65,111.05,351.16z M313.88,274.28c2.34-5.63,2.51-11.31,3.5-16.74c1.25-6.84,1.72-13.82,2.42-20.76
		c0.15-1.52-0.23-3.37-2.04-3.47c-1.99-0.11-1.38,1.89-1.52,3.05c-1.32,11.04-2.61,22.08-3.82,33.13
		C312.26,270.91,311.86,272.5,313.88,274.28z M118.66,434.68c0-0.07,0-0.14-0.01-0.22c8.42-0.66,16.84-1.25,25.25-2.03
		c1.44-0.13,4,0.14,3.82-2.06c-0.14-1.7-2.45-1.14-3.86-1.22c-9.46-0.54-18.87,0.61-28.3,1c-1.14,0.05-3.08-0.76-3.18,1.24
		c-0.08,1.56,1.24,2.69,2.83,3.03C116.32,434.67,117.5,434.6,118.66,434.68z M490.06,390.56c-3.35-3.69-4.37-4.07-10.31-3.17
		c-9.02,1.37-18.03,2.82-27.01,4.44c-2.23,0.4-4.93-0.5-6.54,2.74C460.57,393.25,474.93,391.94,490.06,390.56z M307.17,270.35
		c0-0.86-0.06-0.35,0.01,0.14c0.17,1.19-0.59,3.06,1.33,3.18c1.43,0.09,1.37-1.62,1.68-2.69c0.19-0.63,0.29-1.3,0.37-1.96
		c1.31-11.54,2.63-23.08,3.9-34.62c0.11-0.97,0.08-2.01-0.17-2.94c-0.21-0.79-0.88-1.52-1.82-1.45c-1.08,0.08-1.09,1.04-1.18,1.86
		C309.97,244.25,308.64,256.63,307.17,270.35z M178.74,351.12c-10.91,3.11-14.66,8.99-12.55,18.87c0.2,0.93-0.09,2.27,1.08,2.56
		c1.45,0.36,1.83-1.13,2.44-2.03C173.57,364.7,176.61,358.48,178.74,351.12z M169.61,281.35c2.25,2.47,4.36,4.78,6.47,7.09
		c6.35,6.99,12.69,13.99,19.08,20.95c0.82,0.89,1.8,2.43,3.25,1.04c1.38-1.32,0.09-2.44-0.79-3.38
		c-7.69-8.24-15.39-16.46-23.14-24.64C173.21,281.06,171.71,279.91,169.61,281.35z M159.19,359.44c0.18-0.26,0.37-0.52,0.55-0.78
		c-0.48-0.42-0.91-0.94-1.45-1.24c-11.62-6.5-23.23-13.01-34.9-19.42c-1.86-1.02-3.97-1.66-6.04-2.21
		c-0.54-0.14-1.65,0.58-1.97,1.18c-0.53,0.99,0.51,1.37,1.25,1.73C130.81,345.62,145,352.53,159.19,359.44z M309.46,606.66
		c-0.9-10.95-1.77-21.67-2.67-32.38c-0.09-1.1,0.08-2.62-1.53-2.69c-1.65-0.07-1.63,1.34-1.56,2.52c0.57,8.78-0.69,17.57,0.3,26.37
		C304.38,604,305.78,605.9,309.46,606.66z M449.88,404.84c0.7,1.71,1.75,1.78,2.73,1.73c5.46-0.26,10.92-0.58,16.37-0.89
		c6.45-0.37,12.9-0.72,19.35-1.18c1.42-0.1,3.59-0.14,3.64-1.85c0.07-2.16-2.19-1.54-3.47-1.48c-7.61,0.35-15.24,0.61-22.81,1.41
		C460.52,403.14,455.12,402.53,449.88,404.84z M323.28,568.31c-0.65,5.92,0.45,11.12,0.93,16.28c0.81,8.59,2.3,17.12,3.6,25.66
		c0.18,1.19,0.22,3.05,2.06,2.91c2.09-0.16,1.84-1.99,1.78-3.48c-0.03-0.66-0.21-1.31-0.33-1.97c-1.98-10.96-3.89-21.94-5.98-32.88
		C324.97,572.86,325.34,570.55,323.28,568.31z M298.32,568.21c9.85,0.74,20.74-5.17,26.71-13.73
		C312.19,551.47,308.55,564.45,298.32,568.21z M314.22,577.3c-0.53,11.52,2.31,21.71,3.22,32.1c0.11,1.26,0.39,2.99,2.22,2.6
		c1.49-0.31,0.94-1.88,0.94-2.98c0-0.49-0.16-0.98-0.21-1.48c-1.25-11.69-4.17-23.2-3.67-35.08c0.03-0.81-0.14-1.66-0.34-2.45
		c-0.24-0.94-0.5-2.22-1.7-2.08c-1.31,0.15-1.07,1.42-0.99,2.41C313.89,572.98,314.09,575.63,314.22,577.3z M296.36,272.8
		c1.65-13.12,1.61-25.86,1.19-38.6c-0.05-1.37,0.08-3.72-1.57-3.75c-2.44-0.04-1.8,2.49-1.64,3.89c1.36,11.45-0.48,22.88-0.07,34.31
		C294.32,270.03,293.76,271.73,296.36,272.8z M446.9,461.05c-1.13,0.22-2.72-0.34-2.93,1.22c-0.2,1.5,1.44,1.6,2.48,1.91
		c11.89,3.63,23.79,7.22,35.7,10.8c1.04,0.31,2.48,1.19,2.96-0.4c0.47-1.54-1.26-1.77-2.24-2.1c-9.9-3.35-19.81-6.64-29.74-9.88
		C451.1,461.94,448.97,461.56,446.9,461.05z M147.78,413.12c-4.78-2.68-8.9-1.88-12.76-2.38c-10.21-1.33-20.46-2.34-30.7-3.43
		c-1.62-0.17-3.89-0.4-3.97,1.79c-0.07,2.07,2.22,1.5,3.54,1.5c8,0.01,15.89,1.3,23.83,1.86
		C133.95,412.9,140.17,414.54,147.78,413.12z M211.59,297.98c0.99-1.36,0.15-2.52-0.51-3.58c-4.67-7.46-9.37-14.91-14.13-22.33
		c-0.89-1.38-1.85-2.95-3.92-1.28c-2.11,1.7-1,3.02,0.2,4.6c5.03,6.62,9.95,13.31,14.99,19.92
		C209.05,296.4,209.54,298.1,211.59,297.98z M216.9,549.65c-1.61-0.36-2.03,0.98-2.67,1.84c-7.49,9.97-14.97,19.94-22.36,29.98
		c-0.76,1.03-2.91,2.41-1.19,3.68c1.82,1.34,2.84-0.91,3.76-2.18c7.15-9.81,14.27-19.63,21.34-29.49
		C216.56,552.4,218.16,551.38,216.9,549.65z M319.66,569.49c-1.93,1.38-1.31,2.97-1.24,4.37c0.6,11.46,2.4,22.78,4.03,34.11
		c0.25,1.74-0.11,5.04,2.19,4.7c2.07-0.3,1.09-3.41,0.81-5.25c-1.63-10.5-3.98-20.9-3.87-31.63
		C321.61,573.76,321.39,571.51,319.66,569.49z M250.59,274.82c-0.12-0.44-0.29-1.08-0.46-1.72c-2.15-8.33-4.29-16.67-6.48-25
		c-0.29-1.1-0.73-2.23-1.35-3.17c-0.65-0.99-1.79-1.74-2.98-1.15c-1.16,0.57-0.53,1.75-0.27,2.65c1.61,5.74,3.24,11.47,4.91,17.19
		c1.16,3.97,2.38,7.93,3.66,11.87c0.29,0.9,0.82,1.97,2.09,1.62C250.74,276.82,250.59,275.84,250.59,274.82z M158.02,283.57
		c2.49,3.84,6.22,5.62,9,8.44c7.46,7.57,15.05,15.02,22.67,22.43c0.81,0.79,2.02,2.46,3.31,0.98c1-1.14-0.52-2.06-1.28-2.8
		c-9.19-8.89-18.39-17.78-27.66-26.59C162.6,284.64,161.17,282.69,158.02,283.57z M219.5,551.98
		c-7.47,10.14-14.97,20.26-22.39,30.44c-0.86,1.17-3.12,2.6-1.15,4.05c1.57,1.16,3.48,0,4.57-1.78
		C207.05,573.92,214.34,563.62,219.5,551.98z M413.42,324.71c0.8-0.46,1.54-0.82,2.21-1.28c6.17-4.21,12.36-8.39,18.47-12.68
		c1.45-1.02,3.17-2.03,3.43-4.06c0.1-0.75-0.03-1.76-0.47-2.31c-0.65-0.82-1.47-0.15-2.13,0.34c-7.55,5.7-15.1,11.4-22.64,17.11
		c-0.67,0.51-1.4,1.13-0.64,2C412.03,324.28,412.77,324.41,413.42,324.71z M284.73,271.34c0.46-0.82,0.86-1.21,0.89-1.63
		c0.69-9.75-0.12-19.55,1-29.29c0.09-0.79-0.21-1.64-0.41-2.44c-0.23-0.95-0.41-2.22-1.66-2.07c-0.88,0.11-1.83,0.78-2.48,1.46
		c-1.02,1.08-0.51,2.48-0.42,3.8c0.55,8.26,1.02,16.53,1.6,24.79C283.38,267.65,282.6,269.61,284.73,271.34z M484.74,479.84
		c-5.43-5.17-38.93-14.95-43.55-12.74C455.66,471.63,469.36,476.51,484.74,479.84z M334.24,570.5c0.15,0.85,0.29,2,0.57,3.12
		c2.12,8.69,4.23,17.39,6.43,26.06c0.35,1.37-0.22,4.03,2.24,3.42c1.82-0.45,1.61-2.79,1.07-4.37c-3.23-9.45-4.51-19.37-7.19-28.94
		c-0.29-1.05-0.06-3.15-2.08-2.66C333.91,567.47,334.39,569.08,334.24,570.5z M163.89,487.93c-0.75-1.85-2.16-1.22-3.29-0.66
		c-9.07,4.51-18.78,7.44-28.05,11.45c-1.22,0.53-3.44,0.78-2.46,2.87c0.79,1.7,2.61,1.09,3.98,0.49c9.26-4.05,18.5-8.13,27.72-12.24
		C162.65,489.45,163.74,489.2,163.89,487.93z M311.86,577.73c0-1.5,0.12-3.01-0.03-4.49c-0.14-1.35,0.49-3.64-1.65-3.51
		c-2.16,0.13-1.26,2.29-1.19,3.66c0.41,7.14,0.76,14.29,1.36,21.42c0.37,4.47,1.08,8.91,1.77,13.35c0.21,1.35,1.09,2.82,2.64,2.34
		c1.55-0.48,0.45-1.99,0.34-3.03C314.1,597.55,311.92,587.76,311.86,577.73z M255.7,272.82c-1.08-4.59-2.24-9.42-3.37-14.27
		c-0.83-3.55-1.54-7.13-2.45-10.66c-0.4-1.56-1.54-2.81-3.28-2.3c-1.86,0.54-1.05,2.17-0.74,3.38c2.11,8.2,4.26,16.38,6.42,24.57
		c0.3,1.13,0.61,2.43,2.22,2.03C255.72,275.25,255.64,274.1,255.7,272.82z M379.54,255.75c-5.16,9.43-10.02,18.28-14.85,27.14
		c-0.54,1-1.24,2.21,0.19,3.04c1.49,0.86,2.09-0.47,2.69-1.41c4.6-7.13,8.69-14.56,12.5-22.14
		C381.02,260.51,381.16,258.59,379.54,255.75z M460.09,516.36c0.68-1.92,0.42-2.73-0.25-3.26c-8.87-6.98-17.76-13.95-26.67-20.88
		c-0.9-0.7-2.16-1.37-3.1-0.14c-0.98,1.27,0.12,2.19,1.02,2.88c3.57,2.71,7.19,5.35,10.8,8.01
		C447.84,507.36,453.81,511.74,460.09,516.36z M274.75,269.84c-0.7-8.33-1.32-15.93-2-23.53c-0.11-1.26,0.02-3.09-1.74-3.09
		c-2.15,0-1.91,1.99-1.83,3.41c0.29,5.46,0.8,10.92,1.02,16.38c0.12,3.16,0.15,6.3,0.88,9.39c0.22,0.92,0.07,2.16,1.52,2.1
		c1.14-0.05,1.79-0.86,1.95-1.93C274.71,271.43,274.72,270.27,274.75,269.84z M131.13,326.94c-0.35,0.55-0.7,1.11-1.05,1.66
		c12.2,7.92,24.4,15.84,36.6,23.76c0.38-0.6,0.77-1.19,1.15-1.79C156.4,341.45,143.58,334.48,131.13,326.94z M419.71,507.38
		c6.95,6.32,13.85,12.69,20.85,18.96c3.97,3.55,8.07,6.95,12.14,10.38c0.86,0.72,2.02,1.91,3.01,0.87c1.51-1.57-0.5-2.27-1.35-3.02
		c-4.24-3.74-8.52-7.45-12.85-11.08C434.59,517.69,427.83,511.68,419.71,507.38z M440.42,468.96c-0.18,0.7-0.37,1.4-0.55,2.1
		c13.63,4.98,27.49,9.16,41.58,12.54c0.2-0.68,0.4-1.36,0.6-2.03C468.18,477.36,454.3,473.16,440.42,468.96z M436.12,365.34
		c3.1,0.15,5.43-1.5,7.93-2.42c8.09-2.96,16.23-5.81,23.96-9.68c1.91-0.96,4.75-2.01,3.37-4.5c-1.14-2.06-3.23,0.25-4.64,1
		c-8.78,4.7-17.85,8.74-27,12.63C438.48,362.92,436.75,362.99,436.12,365.34z M359.42,243.02c-3.15,1.23-3.48,3.15-4.05,4.82
		c-2.66,7.88-5.41,15.75-7.75,23.73c-0.68,2.32-3.28,6.4-1.07,6.94c3.02,0.74,3.02-4.01,3.88-6.39
		C353.8,262.82,357.31,253.53,359.42,243.02z M184.97,577.05c0.59,0.4,1.18,0.8,1.78,1.21c8.39-10.8,16.78-21.59,25.17-32.39
		c-0.47-0.36-0.93-0.72-1.4-1.08C201.19,554.9,192.36,565.41,184.97,577.05z M175.7,519.57c-0.13-0.45-0.26-0.9-0.39-1.34
		c-4.25,2.37-8.55,4.63-12.72,7.13c-6.71,4.02-13.35,8.16-19.98,12.3c-1.09,0.68-2.58,1.52-1.76,3.11c1.01,1.97,2.33,0.44,3.29-0.19
		C154.67,533.61,165.18,526.58,175.7,519.57z M491.56,394.82c-0.06-0.61-0.12-1.22-0.19-1.84c-15.08,0.66-30.13,1.65-45.05,4.02
		c0.06,0.63,0.12,1.27,0.18,1.9C461.53,397.54,476.55,396.18,491.56,394.82z M287.52,274.59c4.71,3.22,8,6.63,11.14,10.19
		c2.3,2.61,5.37,2.28,8.34,1.65c2.07-0.44,2.37-1.6,0.75-3.09C302.33,278.31,296.42,274.36,287.52,274.59z M178.27,524.84
		c-10.1,7.15-19.42,13.74-28.72,20.37c-0.74,0.53-1.88,1.17-1.14,2.37c0.58,0.94,1.75,1.12,2.68,0.78c1.21-0.45,2.4-1.1,3.4-1.92
		c7.07-5.77,14.1-11.58,21.1-17.43C176.59,528.18,178.06,527.55,178.27,524.84z M410.59,521.56c-0.34,0.4-0.69,0.8-1.03,1.2
		c1.02,2.51,3.5,3.71,5.33,5.5c6.18,6.03,12.32,12.1,18.51,18.12c1.13,1.1,2.47,3.04,4.1,1.29c1.61-1.71-0.79-2.45-1.68-3.35
		c-3.26-3.32-6.53-6.63-10-9.72C420.84,530.14,415.68,525.89,410.59,521.56z M152.21,440.41c-0.95-0.68-1.31-1.15-1.71-1.18
		c-11.03-0.84-21.86,1.4-32.8,2.09c-1.05,0.07-2.1,0.67-1.95,1.84c0.21,1.61,1.62,1.41,2.76,1.24c7.25-1.06,14.53-1.55,21.85-1.92
		C144.13,442.29,148.13,442.34,152.21,440.41z M245.76,276.68c-3.19-10.99-6.23-21.6-9.38-32.17c-0.54-1.8-1.86-3.73-3.94-2.75
		c-2.14,1.01-0.39,3.03,0.09,4.35c3.32,9.01,6.8,17.96,10.32,26.9C243.35,274.28,243.52,275.91,245.76,276.68z M330.78,568.3
		c1.24,12.4,3.32,24.59,6.4,36.6c0.28,1.11,0.03,3.17,2.1,2.49c1.47-0.48,1.37-2.06,1.01-3.44c-1.94-7.54-3.62-15.16-5.88-22.6
		C333.09,577,333.55,572.23,330.78,568.3z M331.02,273.67c-0.14,2.29-0.53,3.51,0.9,3.68c1.19,0.13,1.58-0.93,1.87-1.94
		c2.47-8.64,4.96-17.26,7.43-25.9c0.32-1.11,0.78-2.44-0.67-3.03c-1.71-0.7-2.54,0.65-2.89,1.93
		C335.29,257.22,333.01,266.08,331.02,273.67z M335.5,248.51c0.1-1.14,0.47-2.54-1.06-2.89c-1.49-0.34-1.89,0.96-2.18,2.12
		c-1.94,7.7-3.9,15.39-5.81,23.1c-0.4,1.6-0.79,3.22-0.9,4.86c-0.07,1,0.58,1.99,1.78,2c1.01,0.01,1.23-0.9,1.43-1.72
		C331,266.82,333.25,257.67,335.5,248.51z M318.41,274.77c2.41-11.1,4.86-22.11,7.13-33.15c0.31-1.52-0.81-3.24-2.4-3.24
		c-1.64,0-1.49,2.01-1.64,3.19c-1.3,10.2-2.69,20.38-4.69,30.47C316.63,272.98,316.25,274.05,318.41,274.77z M321.67,275.16
		c3.1-3.2,3.4-7.4,4.46-11.28c1.58-5.78,2.91-11.63,4.29-17.46c0.33-1.39,0.13-2.75-1.42-3.31c-1.05-0.38-1.51,0.45-1.71,1.3
		C324.9,254.54,321.99,264.56,321.67,275.16z M164.7,354.94c-4.05-5.75-35.05-24.55-39.02-23.63
		C139.24,338.9,151.18,348.23,164.7,354.94z M150.66,424.94c0.64,11,6.96,19.27,13.19,27.58
		C165.71,440.3,153.33,435.05,150.66,424.94z M223.85,553.91c-1.34,0.4-1.8,0.39-1.92,0.59c-6.14,9.65-12.27,19.31-18.36,29
		c-0.48,0.76-1.38,1.86-0.24,2.63c1.19,0.81,2.27-0.04,2.92-1.06c2.67-4.2,5.43-8.35,7.85-12.69
		C217.35,566.54,221.6,561.19,223.85,553.91z M440.99,375.15c0.15,0.43,0.31,0.86,0.46,1.29c6.73-1.63,13.46-3.24,20.18-4.91
		c1.93-0.48,3.81-1.17,5.71-1.77c1.93-0.61,2.77-2.05,2.17-3.85c-0.79-2.36-2.49-0.75-3.69-0.38c-3.18,0.95-6.31,2.08-9.45,3.18
		C451.11,370.55,445.8,372.3,440.99,375.15z M154.84,472.05c-0.1-0.46-0.2-0.93-0.3-1.39c-5.13,1.12-10.28,2.19-15.4,3.37
		c-8.72,2-17.43,4.07-26.14,6.12c-1.13,0.27-2.62,0.61-2.28,2.06c0.41,1.78,1.9,0.73,2.89,0.49c7.59-1.77,15.19-3.49,22.73-5.44
		C142.54,475.67,148.67,473.8,154.84,472.05z M485.13,466.09c-0.08-3.08-2.29-3.12-3.9-3.54c-10.1-2.69-20.23-5.28-30.36-7.85
		c-1.32-0.33-3.38-1.4-3.74,0.6c-0.29,1.63,1.99,1.93,3.36,2.27c5.46,1.38,11.04,2.25,16.46,3.9
		C472.86,463.3,478.95,464.55,485.13,466.09z M158.71,480.46c-12.52,4.34-25.04,8.67-38.23,13.25
		C125.15,496,152.62,486.64,158.71,480.46z M395.82,584.16c-0.21-0.47-0.45-1.09-0.74-1.68c-4.36-8.93-8.68-17.87-13.13-26.75
		c-0.55-1.11-0.85-3.6-2.77-2.52c-1.66,0.94-0.09,2.74,0.49,3.96c4.14,8.67,8.38,17.29,12.64,25.9c0.42,0.85,1.07,1.72,1.85,2.23
		C394.93,585.82,395.73,585.48,395.82,584.16z M379.22,250.04c-0.58-0.24-1.16-0.47-1.74-0.71c-5.97,11.46-11.93,22.93-17.9,34.39
		c0.63,0.32,1.25,0.64,1.88,0.95C367.59,273.24,375.16,262.53,379.22,250.04z M299.45,272.22c0.21-0.06,0.43-0.12,0.64-0.18
		c0.63-9.27,1.25-18.55,1.88-27.82c0.26-3.82,0.66-7.63,0.78-11.45c0.05-1.5,0.66-4.06-1.59-4.07c-2.74-0.01-1.73,2.72-1.8,4.33
		c-0.14,3.31,0.32,6.6,0.21,9.95C299.24,252.72,299.45,262.47,299.45,272.22z M411.43,566.05c-0.18-0.61-0.21-0.97-0.38-1.24
		c-4.61-7.71-9.21-15.41-13.85-23.1c-0.45-0.74-1.18-1.25-2.06-0.56c-0.84,0.66-0.56,1.52-0.15,2.26
		c4.41,7.82,8.84,15.64,13.29,23.44c0.41,0.73,1.08,1.52,1.95,0.98C410.84,567.45,411.12,566.55,411.43,566.05z M201.83,305.71
		c-0.11,0.15-0.52-0.4-0.94-0.9c-6.54-7.73-13.09-15.45-19.65-23.15c-0.53-0.62-1.19-1.17-1.86-1.64c-1-0.71-2.24-1.23-3.1-0.07
		c-0.76,1.02,0.37,1.79,1.01,2.49c3.14,3.42,6.12,7.02,9.51,10.18C191.69,297.19,196.89,301.44,201.83,305.71z M109.17,398.45
		c12.94,2.93,26.04,4.45,39.3,4.58C135.43,400.95,122.58,397.18,109.17,398.45z M438.68,310.49c-1.19,0.38-1.55,0.41-1.8,0.59
		c-6.81,4.75-13.62,9.5-20.4,14.3c-0.68,0.48-1.11,1.38-0.52,2.19c0.77,1.06,1.75,0.61,2.63,0.08c2.41-1.47,4.84-2.91,7.21-4.43
		c4.05-2.6,8.1-5.22,12.09-7.91c1.12-0.76,1.98-1.84,1.38-3.39C439.03,311.29,438.76,310.69,438.68,310.49z M195.39,312.81
		c-9.11-9.49-16.87-20.35-27.01-28.97c-1.39-1.19-2.65-3.04-5.23-1.25C174.27,292.55,183.76,303.72,195.39,312.81z M271.76,555.02
		c6.83,6.06,14.14,9.1,21.77,12.14C288.43,559.45,283.64,551.74,271.76,555.02z M282.5,274.94c-6.99,0.92-11.84,3.24-16.04,6.84
		c-1.6,1.37-5.25,2.67-3.73,4.86c1.51,2.17,5.18,1.54,7.79,0.21c1.29-0.66,2.46-1.71,3.41-2.82
		C276.36,281.19,278.35,277.98,282.5,274.94z M151.21,386.79c-0.71-1.49-0.78-1.96-0.99-2.04c-10.3-3.61-20.91-6.18-31.47-8.9
		c-1.01-0.26-2.14-0.33-2.28,1.04c-0.15,1.48,1.16,1.96,2.26,2.22C129.27,381.64,139.83,384.11,151.21,386.79z M268.67,571.56
		c-0.29-0.1-0.57-0.2-0.86-0.3c-0.34,0.85-0.75,1.68-1,2.55c-3.11,10.5-5.98,21.06-7.54,31.92c-0.16,1.14-1.54,2.93,0.38,3.4
		c1.98,0.49,2.25-1.7,2.5-3.03C264.39,594.6,266.51,583.08,268.67,571.56z M445.27,388.92c1.91,1.96,3.07,1.3,4.16,1.14
		c10.02-1.47,20.04-2.94,30.06-4.46c1.17-0.18,3.27,0.55,3.15-1.33c-0.12-1.88-2.14-1.68-3.63-1.45c-8.05,1.23-16.1,2.42-24.12,3.77
		C451.86,387.1,448.9,388.03,445.27,388.92z M177.34,522.87c-0.24-0.42-0.49-0.83-0.73-1.25c-7.18,4.66-14.39,9.3-21.54,14
		c-3.75,2.46-7.43,5.02-11.11,7.58c-0.82,0.57-1.61,1.37-0.76,2.45c0.65,0.83,1.49,0.51,2.21,0
		C156.05,538.06,166.69,530.46,177.34,522.87z M385.09,549.06c4.73,11.23,10.41,21.95,16.91,32.24
		C402.44,577.09,389.64,552.38,385.09,549.06z M423.02,339.36c4.33,0.17,26.17-12.5,29.14-17.2
		C441.64,326.51,432.24,332.77,423.02,339.36z M350.72,279.78c3.68-8.68,7.34-17.37,11.03-26.04c1.3-3.05,2.74-6.05,4.01-9.12
		c0.4-0.96,1.32-2.29-0.25-3.01c-1.21-0.56-2.26,0.26-2.99,1.22c-0.49,0.65-0.92,1.41-1.14,2.19
		C358.01,256.64,354.05,268.07,350.72,279.78z M150.22,436.4c-1.52-2.7-3.19-2.26-4.57-2.18c-5.97,0.36-11.92,0.85-17.88,1.31
		c-3.31,0.26-6.63,0.49-9.93,0.86c-1.09,0.12-2.68,0.28-2.54,1.79c0.14,1.53,1.65,1.36,2.81,1.25c2.48-0.23,4.95-0.55,7.44-0.78
		C133.56,437.91,141.59,437.18,150.22,436.4z M168.94,509.65c-0.2-0.39-0.41-0.79-0.61-1.18c-4.67,1.11-8.58,3.99-12.81,6.05
		c-4.77,2.32-9.32,5.12-13.92,7.8c-1.32,0.77-3.73,1.45-2.4,3.53c1.22,1.9,2.55-0.28,3.7-0.85c1.94-0.95,3.76-2.13,5.62-3.23
		C155.33,517.74,162.13,513.69,168.94,509.65z M258.7,273.69c1.71-3.16,0.13-6.16-0.05-9.18c-0.29-5.1-1.26-10.17-2.06-15.23
		c-0.29-1.8-1.43-3.11-3.42-2.85c-1.39,0.18-1.09,1.48-0.91,2.4C253.83,257.23,255.53,265.61,258.7,273.69z M183.19,568.05
		c6.19-7.79,12.25-15.35,18.22-22.98c0.71-0.91,2.5-2.08,1-3.31c-1.63-1.34-2.6,0.48-3.48,1.62c-5.09,6.54-10.17,13.09-15.24,19.65
		C182.69,564.34,181.66,565.69,183.19,568.05z M356.34,283.1c0.42,0.14,0.85,0.29,1.27,0.43c5.96-11.65,11.91-23.31,17.86-34.96
		c0.3-0.59,0.57-1.21,0.76-1.84c0.33-1.08,0.1-2.11-1.03-2.43c-1.04-0.29-1.3,0.8-1.61,1.51c-1.29,2.87-2.48,5.79-3.81,8.65
		C365.32,264.01,360.82,273.55,356.34,283.1z M422.54,336.51c0.37-0.2,0.96-0.5,1.52-0.84c6.94-4.24,13.91-8.46,20.8-12.78
		c0.99-0.62,3.14-1.17,2.36-2.59c-1.08-1.96-2.91-0.65-4.32,0.18c-4.58,2.7-9.16,5.4-13.7,8.16c-2.56,1.55-5.07,3.18-7.55,4.84
		c-0.7,0.46-1.19,1.2-0.86,2.13C421.02,336.28,421.47,336.73,422.54,336.51z M394.72,306.27c7.84-8.89,15.7-17.77,23.52-26.68
		c0.63-0.72,1.41-1.71,0.25-2.55c-1.03-0.75-1.87,0.03-2.54,0.79c-1.86,2.12-3.68,4.27-5.53,6.39
		C404.49,291.04,398.83,298.05,394.72,306.27z M478.85,485.2c-12.92-3.91-25.63-7.76-38.35-11.61c-0.13,0.4-0.26,0.81-0.38,1.21
		c8.71,3.18,17.42,6.38,26.14,9.52c2.66,0.96,5.36,1.78,8.05,2.66C476.02,487.55,477.53,487.49,478.85,485.2z M412.4,516.84
		c0.19,4.33,25.61,27.5,30.7,28.69C432.43,535.56,422.41,526.2,412.4,516.84z M390.38,546.38c-0.39,0.14-0.78,0.29-1.16,0.43
		c-0.09,0.46-0.4,1.03-0.24,1.36c4.84,9.48,9.73,18.94,14.64,28.39c0.37,0.71,0.96,1.56,1.93,0.79c0.69-0.54,1.02-1.39,0.56-2.23
		C400.88,565.53,395.63,555.95,390.38,546.38z M264.92,269.16c-0.89-6.19-1.79-12.77-2.83-19.32c-0.2-1.24-0.65-2.88-2.49-2.37
		c-1.55,0.43-1.01,1.84-0.86,2.96c0.86,6.58,1.69,13.17,2.6,19.74c0.2,1.41,0.17,3.68,1.95,3.51
		C265.57,273.46,264.46,271.04,264.92,269.16z M155.27,548.17c5.76,0.5,24.16-14.69,25.61-20.78
		C172.19,534.44,164.18,540.94,155.27,548.17z M437.6,481.18c-0.43,0.28-1.19,0.49-1.4,0.96c-0.46,1,0.44,1.49,1.16,1.85
		c7.85,3.92,15.71,7.82,23.59,11.69c1.12,0.55,2.34,0.65,2.96-0.76c0.72-1.66-0.79-1.95-1.74-2.4c-7.48-3.55-14.98-7.05-22.48-10.56
		C439.1,481.68,438.46,481.49,437.6,481.18z M447.47,451.99c12.78,3.22,24.57,6.19,37.2,9.37
		C481.4,456.95,452.83,449.85,447.47,451.99z M155.1,353.47c-9.31-7.84-19.49-14.11-29.97-19.91c-1.35-0.75-2.92-1.69-4.44,0.66
		C132.29,340.71,143.7,347.09,155.1,353.47z M168.52,344.46c0.36-0.47,0.71-0.94,1.07-1.41c-9.84-7.98-20.23-15.17-31.11-21.64
		c-0.35,0.51-0.7,1.02-1.06,1.53C147.79,330.12,158.16,337.29,168.52,344.46z M255.35,565.57c-0.5-0.17-1-0.33-1.49-0.5
		c-3.48,10.68-7.01,21.34-10.39,32.06c-0.4,1.28-0.48,3.03,2.05,3.77C248.81,589.07,252.08,577.32,255.35,565.57z M293.59,570.75
		c-1.17,0.73-1.66,0.87-1.69,1.07c-1.07,9.22-1.79,18.48-1.97,27.76c-0.02,0.87,0.22,1.73,1.29,1.75c1.02,0.01,1.43-0.82,1.52-1.67
		C293.77,590.27,294.19,580.87,293.59,570.75z M479.71,455.55c0.54,0.01,1.8,0.42,2.2-0.75c0.51-1.5-0.79-2.13-1.9-2.37
		c-9.23-2.05-18.48-4.04-27.74-6.01c-0.95-0.2-2.19-0.39-2.33,1c-0.1,0.97,0.95,1.21,1.76,1.4
		C460.91,451.03,470.11,453.24,479.71,455.55z M184.68,454.68c-6.07-1.05-10.55,0.63-14.97,2.45c-2.07,0.85-2.6,2.4-1.4,4.42
		c1.06,1.79,2.09,3.62,4.6,2.04C176.8,461.14,180.77,458.79,184.68,454.68z M136.83,515.67c1.6,0.58,2.86-0.5,4.09-1.11
		c7.78-3.79,15.53-7.64,23.25-11.54c0.98-0.5,3.17-0.63,2.07-2.47c-0.88-1.47-2.39-0.35-3.56,0.24c-7.74,3.86-15.49,7.71-23.2,11.63
		C138.27,513.03,136.49,513.37,136.83,515.67z M275.48,603.06c3.98-9.89,4.52-20.27,4.26-30.75
		C276.96,582.36,275.53,592.6,275.48,603.06z M334.31,610.67c0.55-0.12,1.1-0.24,1.65-0.36c-2.73-13.98-5.45-27.96-8.18-41.94
		c-0.48,0.1-0.97,0.2-1.45,0.29C328.45,582.76,330.83,596.82,334.31,610.67z M183.75,571.63c0.46,0.3,0.92,0.59,1.37,0.89
		c7.44-9.38,14.89-18.75,22.33-28.13c-0.52-0.4-1.04-0.79-1.56-1.19C198.18,552.42,190.03,561.3,183.75,571.63z M214.01,546.48
		c-9.03,11.56-18.05,23.12-27.08,34.68c0.54,0.41,1.08,0.82,1.62,1.23C197.91,571.09,206.18,558.95,214.01,546.48z M186.07,530.75
		c-2.62-0.75-3.59,0.62-4.64,1.57c-5.17,4.68-10.31,9.4-15.39,14.18c-0.79,0.75-2.73,1.51-1.32,3.02c1.09,1.17,2.43,0.42,3.49-0.6
		c4.07-3.91,8.19-7.78,12.23-11.72C182.4,535.29,184.78,533.71,186.07,530.75z M250.43,608.33c0.52,0.13,1.04,0.26,1.55,0.39
		c3.36-12.95,6.71-25.9,10.07-38.85c-0.5-0.13-0.99-0.25-1.49-0.38C256.19,582.19,253.12,595.21,250.43,608.33z M192.31,320.68
		c-2.45,0.87-3.3,2.55-4.17,4.05c-2.46,4.26-2.5,9.17-3.4,13.83c-0.26,1.36-1.35,3.26,0.37,3.96c1.66,0.67,2.46-1.31,3.12-2.54
		c0.69-1.28,1.17-2.73,1.44-4.17C190.59,330.97,191.38,326.11,192.31,320.68z M382.24,263.09c-4.32,7.5-8.62,14.94-12.86,22.41
		c-0.44,0.78-1.25,1.93-0.03,2.6c1.12,0.62,1.83-0.47,2.34-1.31c3.9-6.39,7.78-12.8,11.62-19.23
		C384.22,266.03,384.53,264.46,382.24,263.09z M165.73,490.62c-9.99,4.32-20,8.61-29.97,12.98c-1.03,0.45-3.22,0.5-2.38,2.38
		c0.9,2.02,2.61,0.63,3.83,0.05c6.44-3.05,12.84-6.16,19.23-9.31C159.76,495.09,163.44,494.04,165.73,490.62z M336.35,276.87
		c4.4-9.95,8.2-20.05,9.11-30.98C340.54,255.68,338.07,266.18,336.35,276.87z M338.55,566.37c2.25,9.48,4.46,18.97,6.82,28.42
		c0.3,1.19,0.32,3.62,2.4,2.88c1.67-0.6,0.88-2.58,0.47-3.99c-1.55-5.42-3.1-10.83-4.72-16.23
		C342.36,573.57,341.88,569.43,338.55,566.37z M164.72,496.12c-10.05,4.07-20.3,7.74-28.93,14.51
		C146.49,507.86,155.65,502.06,164.72,496.12z M150.85,448.32c-1.02-1.38-2.21-1.28-3.32-1.14c-9.55,1.22-19.1,2.45-28.64,3.77
		c-1.11,0.15-3.29-0.26-2.83,1.75c0.37,1.61,2.27,0.93,3.48,0.71c7.36-1.33,14.75-2.35,22.2-3.07
		C144.67,450.06,147.97,450.39,150.85,448.32z M275.64,574.43c-0.43-0.06-0.85-0.11-1.28-0.17c-1.75,9.41-3.51,18.81-5.22,28.23
		c-0.16,0.9-0.65,2.22,0.51,2.64c1.47,0.54,2.14-0.88,2.37-1.92c0.58-2.57,1.08-5.19,1.23-7.81
		C273.68,588.38,276.33,581.56,275.64,574.43z M492.71,399.01c-0.07-0.64-0.14-1.29-0.21-1.93c-14.56,0.53-29.02,2.26-43.4,4.82
		C463.64,400.94,478.18,399.97,492.71,399.01z M171.29,512.25c-11.16,4.99-21.8,10.84-31.42,18.42
		C150.41,524.64,161.49,519.52,171.29,512.25z M151.7,455.3c-12.49,1.78-25.25,2.55-37.46,6.43
		C127.02,461.54,139.32,458.43,151.7,455.3z M419.13,332.23c0.34-0.07,0.53-0.06,0.66-0.14c7.45-4.42,14.9-8.83,22.32-13.29
		c0.79-0.47,1.09-1.3,0.43-2.14c-0.72-0.93-1.67-1.07-2.63-0.42c-1.93,1.3-3.79,2.72-5.76,3.97c-4.92,3.13-9.89,6.18-14.81,9.3
		c-0.66,0.42-1.5,0.95-1.16,1.95C418.31,331.81,418.86,332.02,419.13,332.23z M247.32,605.6c3.08-4.01,10.58-35.17,9.41-37.62
		C253.21,580.64,249.36,592.87,247.32,605.6z M384.13,586.43c-3.26-7.22-6.5-14.45-9.77-21.67c-0.96-2.12-1.91-4.24-3.01-6.28
		c-0.49-0.91-1.5-1.55-2.52-1.01c-0.99,0.53-0.35,1.47,0,2.16C373.38,568.81,377.45,578.25,384.13,586.43z M173.55,516.25
		c-10.4,2.85-31.44,15.71-32.94,20.34C151.72,529.1,162.76,522.88,173.55,516.25z M151.85,404.97c4.15-7.64,15.06-11.47,13.18-23.17
		C158.76,388.84,154.65,396.51,151.85,404.97z M172.17,338.15c0.17-0.33,0.34-0.67,0.52-1c-7.53-5.97-14.95-12.09-22.66-17.83
		c-2.13-1.58-4.62-5.84-6.96-3.43c-1.43,1.47,3.31,3.69,5.42,5.27C156.27,326.98,164.26,332.51,172.17,338.15z M171.43,552.19
		c0.59-0.41,1.18-0.72,1.64-1.16c5.98-5.77,11.94-11.57,17.9-17.36c0.62-0.6,1.29-1.29,0.29-2.03c-0.75-0.56-1.65-0.29-2.28,0.31
		c-6.13,5.85-12.25,11.71-18.32,17.62c-0.38,0.37-0.49,1.2-0.44,1.79C170.25,551.64,170.93,551.87,171.43,552.19z M452.5,426.96
		c3.99,2.1,8.34,2.02,12.54,2.62c3.75,0.54,7.56,0.74,11.34,0.97c1.26,0.08,2.3-0.52,2.33-2c0.02-1.1-0.84-1.37-1.69-1.34
		C468.85,427.52,460.72,425.11,452.5,426.96z M364.15,585.1c-3-6.69-6.52-14.55-10.08-22.39c-0.28-0.62-0.99-0.97-1.69-0.57
		c-0.95,0.54-0.68,1.4-0.34,2.17c1.06,2.43,2.18,4.84,3.21,7.28c2.06,4.89,4.06,9.8,6.13,14.69c0.38,0.89,0.85,1.92,2.1,1.69
		C364.22,587.83,364.45,587.16,364.15,585.1z M113.87,390.26c10.84,3.31,21.89,5.57,33.27,5.93
		C136.28,392.93,125.19,391.03,113.87,390.26z M374.36,290.75c0.42-0.53,0.96-1.12,1.41-1.77c2.18-3.12,4.4-6.23,6.5-9.41
		c1.74-2.63,3.37-5.33,4.98-8.04c0.69-1.16,0.31-2.26-0.68-3.1c-0.65-0.55-1.29-0.29-1.68,0.35c-3.95,6.52-7.9,13.05-11.77,19.62
		C372.57,289.32,372.72,290.34,374.36,290.75z M478.09,439.57c-8.56-3.47-17.5-4.71-26.67-4.54
		C460.01,438.31,468.87,439.98,478.09,439.57z M114.93,457.39c11.96-1.09,23.94-2.15,35.56-5.34c-5.99,0.02-11.94,0.36-17.8,1.25
		C126.7,454.2,120.56,454.54,114.93,457.39z"/>
	<path class="st0" d="M370.28,389.71c2.91,1.35,5.4,0.99,7.71,0.34c6.31-1.76,10.58,1.2,14.29,5.74c1.01,1.23,1.7,2.62,0.7,4.1
		c-0.97,1.44-2.57,1.44-4.08,1.11c-2.17-0.48-3.98-1.73-5.61-3.16c-2.76-2.41-5.91-1.76-9.04-1.33c-0.78,0.11-1.78,0.32-1.76,1.4
		c0.02,0.96,0.8,1.43,1.65,1.59c2.29,0.45,4.6,0.77,6.88,1.28c1.17,0.26,2.16,0.97,2.29,2.33c0.14,1.4-0.84,2.06-1.87,2.68
		c-5.3,3.21-12.34,1.54-15.45-3.69c-1.02-1.72-1.9-3.53-3.03-5.17c-1.86-2.72-4.48-2.15-6.58-0.71c-2.3,1.56-0.48,3.15,0.73,4.51
		c1.02,1.14,2.06,2.46,1.98,3.94c-0.5,8.46,2.3,17.03-1.78,25.41c-2.58,5.3,0.7,11.3,5.97,13.6c2.82,1.23,4.24,0.36,4.67-2.29
		c1.25-7.62,6.16-9.52,13.02-8.82c2.93,0.3,4.96-0.6,5.96-3.91c0.99-3.27,3.5-3.02,5.1-0.45c1.38,2.21,2.88,3.77,5.27,4.94
		c2.58,1.26,2.04,3.35-0.28,4.46c-2.12,1.02-3.74,2.05-3.78,4.65c-0.02,1.24-0.63,2.35-1.93,2.6c-1.54,0.29-2.53-0.76-3.17-1.97
		c-1.03-1.97-1.97-3.97-4.69-3.74c-2.07,0.17-5.17-1.09-5.92,1.01s2.62,2.32,4.05,3.53c1.61,1.36,4.38,2.43,3.39,4.89
		c-1.13,2.82-3.89,1.48-6.14,1.11c-1.39-0.23-3.34-2.49-4.11,0.07c-0.54,1.78,1.92,2.41,3.34,3.16c2.98,1.56,5.86-0.22,8.79-0.43
		c2.1-0.15,4.69-1.14,5.65,1.58c0.88,2.49-1.34,3.77-3.05,5.14c-4.97,3.98-9.85,2.86-14.8-0.01c-0.93-0.54-2.16-1.83-3.07-0.63
		c-1.04,1.36,0.32,2.37,1.39,3.22c3.65,2.9,7.32,5.78,10.93,8.73c1.01,0.83,2.19,1.8,1.73,3.33c-0.47,1.56-2.2,1.14-3.22,1.74
		c-5.55,3.26-6.86,0.97-10.34-4.05c-4.07-5.86-8.83-10.21-8.98-18.22c-0.07-3.41-5.7-4.23-9.19-4.52c-2.89-0.24-1.91,3.21-2.8,4.95
		c-2.15,4.18-4.08,9.13-7.59,11.79c-4.03,3.05-6.64,8.97-13.48,8.1c-2.19-0.28-2.95,2.82-2.58,5.15c0.89,5.61,3.98,8.64,9.78,8.66
		c4.77,0.01,8.62,0.77,11.68,5.01c2.18,3.02,6.14,2.96,9.67,2.96c1.57,0,3.19-0.08,3.38,1.99c0.17,1.76-1.1,2.68-2.53,3.33
		c-4.43,2.01-9.5,1.05-13.17-2.48c-0.48-0.46-0.92-1-1.47-1.34c-2.04-1.26-4.87-2.64-6.48-1.14c-2.18,2.03,0.84,4.01,2.11,5.17
		c4.67,4.25,5.2,8.91,2.48,14.26c-1.08,2.12-2.46,4.57-5.1,4.02c-3.17-0.67-2.43-3.81-1.93-5.85c1.6-6.57-2.59-10.7-5.65-16.86
		c-1.58,4.05-0.91,6.62-0.42,9.14c0.68,3.46,1.07,6.94,0.35,10.42c-0.33,1.6-0.84,3.5-2.89,3.58c-1.89,0.07-2.95-1.4-3.52-3.06
		c-1.64-4.77-1.5-9.84-2.35-15.57c-2.72,3.99-5.04,7.51-7.48,10.94c-0.93,1.3-1.84,3.31-3.79,2.65c-2.94-0.98-2.4-4.48-3.98-6.58
		c-0.9-1.19-0.08-2.92,1.27-3.29c4.33-1.19,5.45-5.03,7.39-8.25c1.29-2.14,2.41-4.44,4.54-5.9c3.54-2.4,2.16-5.42,0.59-7.88
		c-1.61-2.52-4.41-2.89-7-1.16c-5.26,3.51-11.42,2.52-17.14,3.32c-3.87,0.54-7.97,0.84-12.11-1.06c-2.28-1.05-5.86,0.25-6.81,4.13
		c-0.63,2.56-1.76,5.03-2.88,7.44c-0.99,2.13-0.37,3.95,0.79,5.63c1.24,1.78,2.67,0.34,4.01-0.06c1.54-0.47,3.03-0.44,4.09,0.93
		c0.94,1.22,0.77,2.68-0.24,3.67c-3,2.91-1.14,4.39,1.36,6.15c4.59,3.23,4.54,3.89-0.17,6.66c-1.47,0.87-1.24,2.15-1.51,3.41
		c-0.78,3.56-2.83,4.19-5.58,1.68c-2-1.83-3.17-4.25-4.17-6.74c-1.36-3.4-2.7-6.81-4.16-10.17c-0.69-1.58-1.26-4.08-3.73-2.68
		c-2.04,1.16-2.21,4.02-0.72,5.22c4.79,3.87,3.37,6-1.45,7.9c-0.62,0.25-0.93,1.32-1.36,2.02c-0.86,1.38-1.54,3.45-3.61,2.6
		c-1.71-0.7-1.74-2.74-1.63-4.41c0.19-2.98,0.57-5.96,0.8-8.94c0.08-0.99,0-2.06-1.07-2.6c-1.28-0.66-2.22,0.03-3.07,0.91
		c-1.51,1.55-2.96,3.16-4.52,4.65c-0.85,0.81-1.93,1.49-3.15,0.71c-1.13-0.72-1.18-1.92-1.1-3.12c0.27-3.81,6.61-11.4,10.4-12.34
		c2.91-0.72,5.83-1.39,8.77-1.95c2.9-0.55,4.57-2.08,5.54-4.97c2.6-7.73,2.29-7.07-4.55-11.78c-5.33-3.67-11.38-7.1-14.97-12.59
		c-2.22-3.4-3.04-7.41-6.55-10.46c-4.33-3.77-6.9-0.37-9.6,1.29c-3.39,2.09-0.02,4.03,1.19,5.53c4.23,5.26,3.57,11.19,2.74,17.15
		c-0.15,1.06-0.57,2.44-1.94,2.67c-1.61,0.27-2.49-0.98-2.96-2.19c-0.83-2.16-1.36-4.44-2.03-6.67c-0.36-1.19,0.29-3.04-1.4-3.37
		c-1.47-0.28-2.18,1.34-3.03,2.3c-2.65,3.02-5.53,5.79-8.77,8.16c-1.89,1.39-4.32,2.99-6.25,0.79c-1.8-2.05-0.39-4.48,1.19-6.3
		c2.84-3.27,5.87-6.37,8.69-9.65c0.9-1.05,2.42-2.24,1.33-3.91c-1.28-1.96-2.94-0.8-4.44-0.17c-2.15,0.9-4.28,1.85-6.42,2.79
		c-5.95,2.61-9.28,1.85-13.63-3.06c-1.16-1.31-2.29-2.84-1.28-4.45c1.07-1.7,3.15-1.26,4.54-0.48c5.39,3,9.97,0.51,14.62-1.83
		c1.18-0.6,2.54-1.21,2.21-2.91c-0.3-1.52-1.49-2.07-2.91-2.31c-3.93-0.67-7.87-1.31-11.78-2.1c-1.45-0.29-3.13-0.86-3.14-2.7
		c-0.01-1.78,1.56-2.33,3.02-2.86c4.15-1.51,8.26,0.23,12.37,0.09c4.7-0.16,7.27,2.35,9.54,5.98c1.52,2.44,12.3,1.18,13.38-1.41
		c0.22-0.52,0.18-1.42-0.13-1.87c-5.37-7.74-3.58-17.1-5.8-25.54c-0.35-1.34,0.04-2.77,1-3.74c3.31-3.31,1.93-7.09,0.36-10.19
		c-1.7-3.34-5.93-2.27-9.02-3.2c-0.48-0.15-1.55,0.26-1.72,0.67c-2.89,7.18-9.61,4.68-14.76,5.59c-3.62,0.64-6.86,0.87-8.42,4.81
		c-0.43,1.08-1.4,1.95-2.78,1.66c-1.35-0.29-1.66-1.49-2.03-2.61c-0.61-1.85-0.7-3.77-2.37-5.33c-3.04-2.85-2.25-5.36,1.93-6.67
		c4.37-1.37,8.92-0.83,13.41-0.95c2.41-0.06,4.9,0.5,7.92-0.67c-3.62-2.61-7.62-2.7-10.84-4.5c-2.6-1.46-7.29-2.32-6.11-5.99
		c1.21-3.76,5.38-1.77,8.35-1.13c1.92,0.41,3.79,1.04,6.31,1.76c-1.47-1.69-2.59-2.86-3.58-4.13c-0.93-1.19-1.93-2.5-0.64-4.01
		c1.23-1.45,2.8-0.94,4.12-0.23c2.04,1.09,3.95,2.42,6.97,4.31c-3.35-4.86-7.19-7.68-10.42-11.06c-1.23-1.29-3.45-2.96-2.29-4.53
		c1.68-2.27,3.72-4.79,6.6-5.61c1.95-0.56,3.08,1.39,3.13,3.1c0.13,3.8,2.25,6,5.19,7.94c4.2,2.78,4.37,7.1,4.07,11.6
		c-0.25,3.77-0.18,7.38,4.6,8.71c4,1.11,7.38,3.7,9.14-3.52c1.14-4.68,6.95-7.51,10.44-11.35c4.15-4.57,10.83-4.51,15.07-8.99
		c1.96-2.07,1.88-3.43,0.79-5.59c-1.21-2.39-2.92-2.35-5-1.52c-0.31,0.12-0.65,0.17-0.94,0.33c-11.43,6.2-19.2-0.6-26.84-7.64
		c-1.03-0.95-2.56-2.14-1.47-3.79c0.9-1.37,2.56-1.37,4.1-1.09c2.7,0.48,4.94,1.92,7.19,3.36c1.68,1.08,3.42,2.07,5.17,3.02
		c1.99,1.09,4.18,1.01,5.39-0.83c1.23-1.86-0.9-3.02-2.06-3.97c-3.09-2.53-6.37-4.83-9.59-7.19c-1.91-1.4-3.59-2.99-4.59-5.18
		c-0.88-1.93-2.5-4.02-0.34-5.9c1.86-1.62,3.87-0.29,5.5,0.81c4.42,2.98,8.63,6.26,12.49,9.95c0.96,0.92,1.94,1.83,3.01,2.6
		c1.01,0.72,2.17,0.89,3.25,0.06c1.23-0.94,0.66-2.06,0.25-3.16c-1.15-3.11-2.96-6.01-3.03-9.45c-0.03-1.49-0.16-3.24,1.67-3.76
		c1.49-0.42,2.45,0.8,3.23,1.89c0.58,0.81,0.91,1.8,1.53,2.56c1.1,1.35,0.73,4.91,3.53,3.61c2.44-1.13,4.56-3.48,3.49-6.93
		c-0.74-2.37-1.86-4.7-1.38-7.29c0.37-1.97,0.75-4.24,3.17-4.55c2.27-0.29,2.88,1.89,3.7,3.47c4.6,8.81,3.41,16.54-4.31,23.05
		c-4.11,3.46-4.77,7.56-2.88,12.56c2.16,5.71,5.47,7.56,11.07,4.95c2.91-1.36,5.36-1.5,8.53-0.83c3.73,0.78,7.3-2.06,11.46-1.74
		c2.67,0.2,5.27-0.13,7.5,1.55c2.33,1.76,3.53,1.05,4.23-1.51c0.31-1.12,0.73-2.21,1.14-3.31c1.37-3.67,0.82-5.3-3.67-4.23
		c-3.43,0.82-7.56,1.12-9.14-2.91c-1.71-4.36-1.76-9.22,0.28-13.59c1.06-2.27,2.91-1.18,3.69,0.59c0.86,1.96,1.29,4.11,1.87,6.19
		c0.45,1.62,1.34,2.66,3.13,2.66c1.91,0.01,3.37-0.89,3.66-2.74c0.65-4.2,0.95-8.4-3.53-11.02c-2.5-1.46-4.6-3.33-5.77-6.04
		c-0.62-1.44-0.84-2.94,0.4-4.19c1.28-1.29,2.69-0.82,4.16-0.25c9.29,3.65,11.86,7.33,11.88,17.14c0,1.17,0,2.33,0.03,3.5
		c0.02,0.85,0.12,1.83,1.09,1.99c0.98,0.17,1.45-0.72,1.66-1.53c0.54-2.09,1.09-4.19,1.46-6.32c0.68-3.86,2.46-6.87,6.11-8.57
		c2.74-1.28,3.53-3.78,4.23-6.42c0.34-1.27,0.84-2.81,2.45-2.78c1.79,0.03,2.36,1.58,2.74,3.09c1.24,4.95-0.37,8.87-4.83,11.78
		c-2.6,1.7-5.62,9.41-4.87,12.52c0.59,2.45,2.12,1.66,3.4,0.79c2.47-1.69,4.84-3.54,7.26-5.31c1.48-1.08,2.95-2.18,4.48-3.18
		c1.65-1.08,3.57-1.62,4.99,0.08c1.49,1.79,0.29,3.63-1.03,4.87c-4.12,3.88-8.42,7.57-12.61,11.38c-0.98,0.89-2.93,1.17-1.95,3.38
		c0.63,1.43-0.03,2.79-1.66,2.95c-1.52,0.15-2.7-0.96-2.51-2.46c0.55-4.18-2.86-2.75-4.68-3.41c-2.15-0.78-3.49,0.43-4.22,2.39
		c-0.63,1.71-1.14,3.47-1.79,5.18c-1.19,3.16,0.07,4.77,3.21,5.24c6.31,0.93,10.4,5.41,14.89,9.26c2.43,2.09,4.7,3.98,6.05,7.34
		c1.78,4.42,12.16,4.31,14.91,0.3c1.22-1.78,0.05-3.49-0.31-5.25c-0.57-2.83-3.52-5.73-1.25-8.46c3.06-3.68,6.76-6.9,11.17-9.01
		c0.99-0.47,2.38-0.56,3.23,0.52c0.88,1.12,0.38,2.28-0.45,3.16c-1.59,1.7-3.18,3.43-4.98,4.88c-2.78,2.21-2.6,4.73-1.33,7.58
		c0.78,1.75,1.73,2.63,3.85,2.03c3.07-0.87,5.08-2.23,4.65-5.89c-0.21-1.74-0.5-4.1,1.76-4.67c2.39-0.6,3.08,1.69,3.52,3.39
		c0.77,2.99,2.51,4.1,5.47,3.73c1.15-0.14,2.33-0.08,3.49,0.01c1.69,0.13,3.56,0.37,3.92,2.38c0.39,2.18-1.18,3.54-2.99,4.02
		c-4.5,1.2-9.07,2.08-13.62,3.11C374.39,387.53,372.31,387.48,370.28,389.71z M347.92,448.98c7.71-5.04,9.56-14.14,3.66-23.11
		c-3.63-5.53-3.61-10.78-1.99-16.59c0.67-2.4,1.36-4.81,1.8-7.26c1.62-8.95-0.47-12.1-9.59-12.89c-8.64-0.75-14.94-4.06-17.71-12.68
		c-0.35-1.1-0.95-2.13-1.54-3.13c-2.84-4.83-6.41-6.22-11.84-4.55c-1.75,0.54-3.41,1.33-5.15,1.91c-7.69,2.58-15.25,3.28-22.58-1.26
		c-1.21-0.75-2.79-1.09-4.24-1.24c-8.4-0.87-13.44,2.29-15.25,10.69c-1.67,7.75-6.05,12.26-13.37,14.54
		c-2.69,0.84-5.25,2.1-7.83,3.27c-4.25,1.93-5.79,5.37-4.92,9.81c0.44,2.27,1.04,4.61,2.1,6.64c4.62,8.85,5.71,17.65,2.22,27.38
		c-2.87,8.02,0.65,14.23,8.88,15.91c9.93,2.03,14.96,8.45,18.52,17.01c3.57,8.58,9.6,10.72,16.85,5.11
		c8.22-6.36,16.42-6.09,25.29-2.28c9.26,3.97,12.46,2.64,16.12-6.57c0.61-1.54,1.04-3.16,1.61-4.73c1.72-4.74,4.62-8.4,9.35-10.51
		c2.27-1.01,4.41-2.32,6.61-3.49C345.91,450.29,346.91,449.64,347.92,448.98z M261.38,334.29c-0.35,3.18,1.28,5.4,2.26,7.79
		c1.01,2.45,2.51,4.79-0.7,6.97c-2.8,1.9-4.94,1.05-7.13-0.9c-3.6-3.2-7.19-6.42-10.87-9.53c-1.66-1.4-3.33-3.01-5.99-2.95
		c0.54,3.98,3.22,5.77,5.69,7.71c3.26,2.57,7.13,4.38,9.86,7.57c1.42,1.65,4.28,3.48,2.41,5.82c-1.94,2.42-5.14,3.97-8.48,2.56
		c-2.26-0.95-4.24-2.59-6.34-3.93c-2.05-1.3-4.01-2.83-6.85-3.07c5.66,8.89,13.72,11.48,24.51,8.02c3.26-1.04,6.48-2.64,9.11,2.19
		c-5.14-9.34-0.42-15.4,5.5-21.12c0.12-0.11,0.21-0.26,0.31-0.39c4.31-5.49,4.13-11.74-0.76-18.05c-1.01,2.09-1.04,4.09-0.07,5.82
		c3,5.37-0.16,8.75-3.62,12.08c-2.15,2.07-3.96,2.14-5.44-0.86C263.87,338.19,263.48,335.97,261.38,334.29z M200.89,387.17
		c4.46,4.14,9.49,4.76,14.12,6.25c1.8,0.58,3.76,0.88,3.35,3.43c-0.36,2.27-1.81,3.51-4.12,3.55c-1.66,0.03-3.33-0.19-4.99-0.12
		c-5.36,0.23-10.91-1.03-17.71,2.43c5.52,0.64,4.5,4.42,5.74,8.14c1.68-5.45,5.03-6.04,9.17-6.49c5.22-0.57,11.64,1.18,14.79-5.56
		c0.7-1.5,2.57-1.15,4.09-0.75c1.93,0.51,3.86,1.03,5.83,1.35c1.22,0.2,3.02,0.9,3.52-0.73c0.54-1.79-1.46-1.94-2.58-2.32
		c-8.4-2.91-8.56-2-8.41-13.01c0.04-3.25,0.12-6.49-3.05-8.43c-3.7-2.27-6.16-5.31-6.48-10.13c-3.53,2.95-3.7,5.15-0.49,7.99
		c3.33,2.94,6.93,5.81,8.83,10.04c0.54,1.21,0.99,2.64-0.16,3.74c-1.36,1.3-2.46,0-3.49-0.7c-2.1-1.42-4.12-2.95-6.18-4.44
		c0.85,3.14,3.39,4.22,5.41,5.89c1.23,1.02,3.24,1.97,2.23,3.91c-1.09,2.11-2.92,0.65-4.38,0.12
		C211.31,389.66,206.92,387.19,200.89,387.17z M304.11,340.16c-1.35,10.97-1.35,10.97,9.32,10.61c4.31-0.15,5.17,1.62,3.71,6.67
		c-0.73,2.52-3.61,6.76-1.45,7.32c3.46,0.89,3.04-4.11,4.13-6.56c1.68-3.78,3.45-5.95,8.25-4.88c7.1,1.59,16.76-4.46,20.39-12.5
		c-4.62,3.4-8.65,6.59-12.91,9.43c-2.49,1.66-5.58,2.38-7.24-1c-1.42-2.9,3.29-15.55,6.31-17.01c3.74-1.81,4.07-4.63,3.68-7.98
		c-1.01,2.03-1.12,4.56-3.73,5.58c-5.01,1.96-6.58,6.19-7.27,11.02c-0.24,1.64-0.6,3.27-1.04,4.87c-0.63,2.29-2.31,3.19-4.57,2.92
		s-2.96-1.85-2.94-3.92c0.02-2,0.04-3.99,0.03-5.99c-0.04-7.99-3.13-11.76-11.72-14.07c0.23,2.69,1.76,4.44,3.86,5.44
		c5.88,2.82,6.6,7.71,6.05,13.42c-0.4,4.16-2.63,5.61-6.54,5.91c-4.16,0.32-5.11-2.21-5.66-5.4
		C304.54,342.75,304.33,341.46,304.11,340.16z M204.11,442.26c-0.1,0.51-0.19,1.02-0.29,1.53c3.9,0.63,7.81,1.25,11.71,1.88
		c2.94,0.47,4.12,2.54,4.61,5.18c0.52,2.83-1.44,3.71-3.56,4.57c-5.57,2.25-10.87,6.22-17.41,2.07c2.9,4.53,6.22,6.16,10.93,3.25
		c2.25-1.39,4.79-2.31,7.2-3.43c2.52-1.18,4.74-1.21,6.59,1.34c1.74,2.39,1.04,4.32-0.71,6.22c-3.16,3.42-6.34,6.81-9.46,10.27
		c-0.73,0.81-1.94,1.81-0.63,2.93c0.9,0.76,1.88-0.1,2.66-0.68c3.74-2.82,6.95-6.17,9.91-9.79c0.96-1.18,1.74-3.2,3.88-2.29
		c1.67,0.71,2.28,2.33,2.54,4.04c0.41,2.69,0.17,5.56,1.99,8.09c1.75-6.8,1.03-10.41-3.74-16.58c-2.62-3.38-2.89-5.8,1.65-7.55
		c2.08-0.8,3.99-2.02,5.97-3.06c-3.36-0.5-6.35,0.07-9.34,0.69c-2.26,0.46-4.48,0.49-5.64-1.88
		C218.69,440.36,210.72,443.47,204.11,442.26z M345.35,493.16c-1.46-3.55-4.18-3-6.49-2.96c-5.97,0.1-10.93-1.18-12.67-7.89
		c-0.23-0.89-0.42-2.7-2.17-1.99c-1.05,0.43-1.1,1.78-0.72,2.65c2.13,4.85,0.01,7.97-3.63,11.11c-2.04,1.76-3.03,4.71-4.53,7.1
		c-0.88,1.4-1.53,3.5-2.79,3.99c-4.26,1.66-2.64,3.41-0.61,5.76c1.83-2.77,3.36-5.35,5.17-7.73c1.69-2.23,1.53-7.18,5.15-6.3
		c3.63,0.89,1.69,5.46,2.41,8.36c0.85,3.43,0.17,7.27,2.14,11.17c1.83-2.56,1.45-4.44,1.27-6.2c-0.4-3.97-1.03-7.91-1.45-11.88
		c-0.16-1.5-0.05-3.13,1.77-3.71c1.68-0.53,3.74-0.61,4.49,1.08c2.48,5.59,7.82,10.27,5.76,17.39c-0.23,0.8-0.69,2.03,0.8,2.43
		c3.88-5.44,3.82-7.15-0.09-12.12c-1.44-1.82-2.82-3.74-3.89-5.79c-1.53-2.93-0.7-4.92,2.87-4.95
		C340.36,492.68,342.62,492.97,345.35,493.16z M381.3,447.83c-1.63-3.16-4.11-3.26-5.74-4.58c-2.37-1.93-1.95-5.22,0.81-6.4
		c3.96-1.69,11.16,0.11,14.14,3.84c0.31-3.1,2.27-4.6,4.92-5.75c-3.14-0.38-4.23-2.72-5.74-5.51c-1.48,4.08-3.76,6.28-7.62,5.71
		c-6.97-1.03-11.08,1.69-12.4,8.74c-0.74,3.98-3.05,4.53-6.59,2.73c-2.03-1.04-4.15-3.41-6.94-1.51c0.34,1.33,1.22,1.55,1.99,1.73
		c6.08,1.36,9.23,4.72,8.23,11.32c-0.47,3.09,1,5.6,3.65,7.12c3.69,2.11,5.94,5.14,6.54,9.84c1.85-1.38,2.58-3.77,6.21-2.3
		c-4.76-4.28-8.66-7.06-12.65-9.75c-2.7-1.82-2.69-4.59-1.2-7.08c1.47-2.46,3.52-0.78,5.27-0.04c2.14,0.9,4.18,2.08,6.37,2.84
		c3.27,1.13,5.68-0.02,7.84-3.43c-1.88-0.61-3.65-0.05-5.36,0.52c-3.38,1.12-6.17-0.19-8.93-1.87c-2.64-1.6-2.87-4.01-1.89-6.53
		c1.19-3.06,3.39-1.74,5.4-0.93C378.51,446.89,379.43,447.17,381.3,447.83z M264.25,512.97c-5.39-1.68-3.88-5.27-3.25-8.46
		c0.52-2.65,2.54-3.68,5.1-3.99c2.73-0.34,3.33,1.59,4.06,3.49c1.43,3.73,2.76,7.51,4.4,11.14c1.1,2.43,1.93,5.2,5.01,6.86
		c0.56-2.91-1.72-5.12-1.13-7.13c1.25-4.2,3.5,1.57,5.52-0.36c-4-2.61-8.94-4.97-3.35-11.27c-6.7,2.79-7.19,2.49-9.24-3.52
		c-0.66-1.92-0.37-3.51,0.38-5.27c1.11-2.59,2.07-5.26,3.02-7.92c0.31-0.88,0.86-2.08-0.57-2.48c-0.98-0.27-1.38,0.74-1.68,1.49
		c-0.49,1.24-1.05,2.49-1.26,3.79c-0.87,5.36-4.28,7.54-9.35,7.9c-1.31,0.09-2.59,0.7-3.9,0.82c-6.36,0.59-8.95,5.22-11.75,10.53
		c2.54-0.71,3.35-2.47,4.44-3.82c1.67-2.06,3.58-2.85,6.13-2.05c2.77,0.86,2.66,3.13,2.52,5.31c-0.2,2.99-0.57,5.97-0.87,8.96
		C259.73,514.82,261.08,513.33,264.25,512.97z M389.99,397.97c-2.6-4.29-5.95-6.54-11.04-5.58c-1.79,0.34-3.6,0.6-5.42,0.76
		c-3.03,0.27-5.91-0.02-6.24-3.9c-0.32-3.78,2.86-3.29,5.15-3.92c5.63-1.56,11.7-1.49,18.04-4.65c-5.34-1.72-12.92,3.06-13.13-6.7
		c-0.24,1.87,0,3.22-0.15,4.51c-0.53,4.61-4.81,3.82-7.63,5.05c-2.05,0.9-3.78,0.47-5.06-1.69c-3.11-5.24-2.63-8.64,1.97-12.6
		c1.15-0.99,2.23-2.05,3.34-3.08c-9.81,5.58-9.82,5.58-7.11,15.6c0.09,0.32,0.23,0.63,0.32,0.94c1.04,3.49,0.15,5.71-3.74,6.6
		c-1.7,0.39-3.98,0.34-5.53,3.62c9.28-2.86,12.2,2.98,15.27,9.14c1.61,3.24,5.03,3.37,9.94,1.2c-1.93-0.27-3.79-0.31-5.51-0.81
		c-2.9-0.84-4.49-3.25-4.41-5.98c0.09-2.95,3.03-2.49,5.06-2.75c4.39-0.55,8.62-0.49,12.06,3.05
		C386.99,397.61,388.11,398.66,389.99,397.97z"/>
	<path class="st0" d="M344.91,450.95c-11,3.49-21.46,7.56-25.21,20.23c-1.02,3.46-3.92,4.15-7.31,3.11
		c-4.76-1.47-9.57-2.8-14.35-4.21c-4.43-1.31-8.54-0.43-12.51,1.71c-1.76,0.94-3.52,1.91-5.38,2.62c-6.44,2.47-8.09,1.81-10.86-4.32
		c-1.58-3.49-3.39-6.84-5.32-10.16c-2.96-5.06-7.2-8.02-12.77-9.63c-8.28-2.39-10.03-5.55-7.09-13.69
		c3.05-8.42,2.92-16.36-0.55-24.71c-3.91-9.4-2.76-12.67,6.34-16.52c9.98-4.22,16.95-10.55,20.38-21.02
		c1.69-5.15,5.31-6.27,10.42-4.17c2.92,1.2,5.8,2.59,8.44,4.31c5.97,3.87,11.85,3.34,18.01,0.53c8.99-4.11,12.45-2.89,17.49,5.77
		c1.26,2.16,2.41,4.37,3.66,6.53c2.59,4.46,6.33,7.03,11.61,7.51c9.83,0.89,10.85,2.5,8.21,12c-1.02,3.69-1.86,7.42-2.91,11.1
		c-1.75,6.11-1.04,11.61,2.59,17.09c4,6.04,3.67,9.67,0.09,13.96C346.91,449.64,345.91,450.29,344.91,450.95z M245.45,440.75
		c-0.19,4.6,2.44,5.99,5.52,6.69c8.3,1.89,13.68,7.15,17.29,14.57c1.09,2.24,2.35,4.42,3.25,6.74c1.55,4.04,4.25,4.76,7.93,3.13
		c1.52-0.67,3.08-1.31,4.48-2.19c5.3-3.33,10.89-3.78,16.78-1.95c3.18,0.99,6.45,1.72,9.53,2.96c4.2,1.69,6.93,1.08,8.41-3.62
		c1.72-5.47,5.3-9.61,10.39-12.25c3.68-1.91,7.52-3.52,11.28-5.28c8.75-4.09,9.57-6.23,4.54-14.36c-3.21-5.19-3.9-10.49-2.47-16.24
		c1.24-5,2.55-9.99,3.74-15.01c1.14-4.78,0.23-6.12-4.71-6.21c-7.26-0.13-12.16-3.77-15.62-9.81c-1.08-1.88-2.14-3.76-3.19-5.65
		c-4.32-7.81-6.32-8.69-14.25-4.95c-7.78,3.67-15.03,3.55-22.12-1.49c-1.21-0.86-2.59-1.5-3.93-2.17c-6-3-8.23-2.36-10.71,3.93
		c-3.26,8.24-7.94,14.92-16.67,18.08c-2.32,0.84-4.34,2.48-6.63,3.44c-3.58,1.51-4.61,4.09-3.66,7.64c0.56,2.08,1.07,4.22,1.96,6.17
		c3.3,7.22,3.2,14.49,0.7,21.87C246.55,436.98,245.92,439.22,245.45,440.75z"/>
	<path class="st0" d="M274.83,463.39c0.29-3.17,0.81-6.15,0.8-9.12c-0.03-6.27-2.91-8.76-9.12-8.08c-3.8,0.42-7.54,1.42-11.4,1.03
		c-5.02-0.51-6.34-3.22-3.55-7.42c1.56-2.36,3.45-4.51,4.84-6.96c3.35-5.89,2.72-8.95-2.22-13.63c-1.93-1.82-3.86-3.69-5.47-5.78
		c-2.95-3.82-1.65-7.41,2.99-8.58c1.27-0.32,2.64-0.27,3.96-0.42c6.61-0.77,9.05-2.83,10.86-9.15c0.96-3.36,1.72-6.78,2.86-10.07
		c1.67-4.83,3.89-5.64,8.33-3c1.97,1.17,3.73,2.77,5.42,4.35c8.25,7.72,10.91,7.73,19.22-0.1c1.33-1.25,2.53-2.68,3.99-3.75
		c3.97-2.91,7.5-2.1,8.17,2.61c1.55,10.92,6.63,15.91,18.24,14.82c6.47-0.61,8.02,3.28,4.74,9.13c-1.22,2.17-2.7,4.2-4.08,6.28
		c-4.34,6.56-4.1,8.1,1.92,13.41c2.12,1.87,4.41,3.62,6.17,5.79c1.61,1.99,3.51,4.38,1.81,7.2c-1.72,2.83-4.52,2.96-7.52,2.4
		c-3.1-0.58-6.22-1.07-9.36-1.4c-4.56-0.49-6.83,1.36-6.53,6.27c0.29,4.67-0.41,9.33-1.94,13.76c-2.01,5.79-5.77,6.66-10.07,2.3
		c-1.85-1.87-3.29-4.16-4.84-6.31c-4.46-6.16-7.55-6.35-12.71-0.83c-2.73,2.92-5.52,5.78-8.42,8.52c-1.43,1.35-3.27,2.91-5.31,1.94
		C274.53,467.57,274.89,465.18,274.83,463.39z"/>
</g>
</svg>
