<?xml version="1.0" encoding="utf-8"?>
<!-- Generator: Adobe Illustrator 23.0.2, SVG Export Plug-In . SVG Version: 6.00 Build 0)  -->
<svg version="1.1" id="Layer_1" xmlns="http://www.w3.org/2000/svg" xmlns:xlink="http://www.w3.org/1999/xlink" x="0px" y="0px"
	 viewBox="0 0 595.28 595.28" style="enable-background:new 0 0 595.28 595.28;" xml:space="preserve">
<style type="text/css">
	.st1{fill:#FFFFFF;stroke:#000000;stroke-width:4;stroke-miterlimit:10;}
	.st2{fill:#FFFFFF;stroke:#000000;stroke-width:2;stroke-miterlimit:10;}
	.st3{fill:#FFFFFF;stroke:#000000;stroke-width:2;stroke-miterlimit:10;}
	.st4{fill:#FFFFFF;stroke:#000000;stroke-width:2;stroke-miterlimit:10;}
	.st5{fill:#FFFFFF;stroke:#000000;stroke-width:2;stroke-miterlimit:10;}
	.st6{fill:#FFFFFF;stroke:#000000;stroke-width:2;stroke-miterlimit:10;}
	.st7{fill:#FFFFFF;stroke:#000000;stroke-width:2;stroke-miterlimit:10;}
	.st8{fill:#FFFFFF;stroke:#000000;stroke-width:2;stroke-miterlimit:10;}
	.st9{fill:#FFFFFF;stroke:#000000;stroke-width:2;stroke-miterlimit:10;}
	.st10{fill:#FFFFFF;stroke:#000000;stroke-width:2;stroke-miterlimit:10;}
	.st11{fill:#FFFFFF;stroke:#000000;stroke-width:2;stroke-miterlimit:10;}
	.st12{fill:#FFFFFF;stroke:#000000;stroke-width:2;stroke-miterlimit:10;}
	.st13{fill:#FFFFFF;stroke:#000000;stroke-width:2;stroke-miterlimit:10;}
	.st14{fill:#FFFFFF;stroke:#000000;stroke-width:2;stroke-miterlimit:10;}
	.st15{fill:#FFFFFF;stroke:#000000;stroke-width:2;stroke-miterlimit:10;}
</style>
<ellipse class="st1" cx="316.3" cy="304.09" rx="224.15" ry="221.09"/>
<polygon class="st2" points="292.98,298.39 256.87,287.5 227.43,311.07 226.63,273.36 195.12,252.64 230.73,240.23 240.7,203.86
	263.51,233.89 301.18,232.13 279.66,263.11 "/>
<polygon class="st3" points="449.22,263.15 413.12,252.25 383.67,275.82 382.88,238.11 351.36,217.39 386.98,204.98 396.95,168.61
	419.76,198.65 457.43,196.89 435.91,227.86 "/>
<ellipse class="st4" cx="313.42" cy="422.65" rx="96.26" ry="42.18"/>
<polygon class="st5" points="107.89,43.78 96.97,66.64 121.13,59.03 101.86,75.47 127.03,78.35 102.74,85.53 124.55,98.4
	99.45,95.08 114.14,115.7 92.56,102.46 97.59,127.28 83.26,106.4 77.76,131.12 73.16,106.22 58.09,126.57 64.01,101.95
	41.96,114.41 57.39,94.32 32.18,96.74 54.44,84.66 30.43,76.62 55.68,74.64 37.02,57.52 60.88,65.99 50.8,42.76 69.16,60.2
	69.39,34.88 79.07,58.28 89.59,35.24 88.91,60.56 "/>
<polygon class="st6" points="538.02,38.32 527.1,61.18 551.26,53.57 531.99,70.01 557.15,72.89 532.87,80.07 554.68,92.94
	529.58,89.62 544.27,110.24 522.68,97 527.72,121.82 513.39,100.94 507.89,125.66 503.29,100.76 488.21,121.11 494.14,96.49
	472.09,108.95 487.52,88.86 462.31,91.28 484.57,79.2 460.56,71.16 485.81,69.18 467.14,52.06 491.01,60.53 480.93,37.3
	499.29,54.74 499.52,29.42 509.2,52.82 519.72,29.78 519.04,55.1 "/>
<polygon class="st7" points="91.36,389.38 80.45,412.23 104.6,404.63 85.34,421.07 110.5,423.95 86.21,431.13 108.03,443.99
	82.92,440.67 97.62,461.3 76.03,448.05 81.06,472.87 66.73,452 61.24,476.72 56.63,451.81 41.56,472.16 47.48,447.54 25.44,460
	40.86,439.92 15.65,442.33 37.92,430.26 13.9,422.21 39.15,420.23 20.49,403.12 44.36,411.58 34.27,388.35 52.63,405.79
	52.87,380.47 62.55,403.87 73.06,380.83 72.38,406.15 "/>
<polygon class="st8" points="540.02,483.63 529.1,506.49 553.26,498.88 533.99,515.32 559.15,518.2 534.87,525.38 556.68,538.25
	531.58,534.93 546.27,555.55 524.68,542.31 529.72,567.13 515.39,546.25 509.89,570.97 505.29,546.07 490.21,566.42 496.14,541.8
	474.09,554.25 489.52,534.17 464.31,536.58 486.57,524.51 462.56,516.46 487.81,514.49 469.14,497.37 493.01,505.84 482.93,482.61
	501.29,500.05 501.52,474.72 511.2,498.13 521.72,475.09 521.04,500.4 "/>
<polygon class="st9" points="165.06,502.19 158.66,515.59 172.82,511.13 161.53,520.76 176.27,522.45 162.04,526.66 174.82,534.2
	160.11,532.26 168.72,544.34 156.07,536.58 159.02,551.13 150.62,538.89 147.4,553.38 144.7,538.79 135.87,550.71 139.34,536.28
	126.42,543.58 135.46,531.81 120.68,533.23 133.73,526.15 119.66,521.43 134.46,520.28 123.52,510.24 137.51,515.21 131.6,501.59
	142.36,511.81 142.49,496.97 148.17,510.69 154.33,497.19 153.93,512.02 "/>
<polygon class="st10" points="249.13,31.81 242.74,45.21 256.89,40.75 245.6,50.38 260.35,52.07 246.12,56.28 258.9,63.82
	244.19,61.88 252.8,73.96 240.15,66.2 243.1,80.75 234.7,68.51 231.48,83 228.78,68.4 219.94,80.33 223.42,65.9 210.49,73.2
	219.54,61.43 204.76,62.85 217.81,55.77 203.74,51.05 218.53,49.9 207.6,39.86 221.58,44.83 215.67,31.21 226.43,41.43
	226.57,26.59 232.24,40.31 238.41,26.8 238.01,41.64 "/>
<polygon class="st11" points="408.44,23.04 402.04,36.43 416.2,31.98 404.91,41.61 419.66,43.3 405.42,47.51 418.21,55.05
	403.49,53.1 412.1,65.19 399.45,57.43 402.4,71.97 394,59.74 390.78,74.23 388.09,59.63 379.25,71.56 382.72,57.13 369.8,64.43
	378.84,52.66 364.07,54.07 377.12,47 363.04,42.28 377.84,41.12 366.9,31.09 380.89,36.05 374.98,22.44 385.74,32.66 385.88,17.82
	391.55,31.53 397.71,18.03 397.32,32.87 "/>
<polygon class="st12" points="426.77,534.45 420.37,547.84 434.53,543.39 423.24,553.02 437.98,554.71 423.75,558.92 436.54,566.46
	421.82,564.51 430.43,576.6 417.78,568.84 420.73,583.38 412.33,571.15 409.11,585.64 406.42,571.04 397.58,582.97 401.05,568.54
	388.13,575.84 397.17,564.07 382.4,565.48 395.44,558.41 381.37,553.69 396.17,552.53 385.23,542.5 399.22,547.46 393.31,533.85
	404.07,544.07 404.21,529.23 409.88,542.94 416.04,529.44 415.65,544.28 "/>
<polygon class="st13" points="73.25,173.83 66.86,187.22 81.01,182.77 69.72,192.4 84.47,194.09 70.24,198.3 83.02,205.84
	68.31,203.89 76.92,215.98 64.27,208.22 67.22,222.77 58.82,210.53 55.6,225.02 52.9,210.42 44.07,222.35 47.54,207.92
	34.62,215.22 43.66,203.45 28.88,204.86 41.93,197.79 27.86,193.07 42.65,191.91 31.72,181.88 45.7,186.84 39.79,173.23
	50.55,183.45 50.69,168.61 56.37,182.32 62.53,168.82 62.13,183.66 "/>
<polygon class="st14" points="565.75,405.61 559.36,419 573.51,414.55 562.22,424.18 576.97,425.87 562.73,430.08 575.52,437.62
	560.8,435.67 569.42,447.76 556.77,440 559.72,454.55 551.32,442.31 548.1,456.8 545.4,442.2 536.56,454.13 540.04,439.7
	527.11,447 536.16,435.23 521.38,436.64 534.43,429.57 520.36,424.85 535.15,423.69 524.22,413.66 538.2,418.62 532.29,405.01
	543.05,415.23 543.19,400.39 548.86,414.1 555.03,400.6 554.63,415.44 "/>
<polygon class="st15" points="85.93,523.01 79.53,536.4 93.69,531.94 82.4,541.58 97.14,543.26 82.91,547.47 95.69,555.01
	80.98,553.07 89.59,565.16 76.94,557.39 79.89,571.94 71.49,559.7 68.27,574.19 65.57,559.6 56.74,571.52 60.21,557.09 47.29,564.4
	56.33,552.62 41.56,554.04 54.6,546.96 40.53,542.25 55.33,541.09 44.39,531.06 58.38,536.02 52.47,522.4 63.23,532.63
	63.37,517.78 69.04,531.5 75.2,518 74.81,532.83 "/>
</svg>
